<?xml version="1.0" encoding="utf-8"?>
<!-- Generator: Adobe Illustrator 27.4.1, SVG Export Plug-In . SVG Version: 6.00 Build 0)  -->
<svg version="1.1" id="_レイヤー_2" xmlns="http://www.w3.org/2000/svg" xmlns:xlink="http://www.w3.org/1999/xlink" x="0px"
	 y="0px" viewBox="0 0 182 160" style="enable-background:new 0 0 182 160;" xml:space="preserve">
<style type="text/css">
	.st0{fill:#E7E7D3;}
	.st1{fill:url(#SVGID_1_);}
	.st2{fill:#E0E0E0;}
	.st3{fill:#B8B8B8;}
	.st4{fill:#D9D9D9;}
	.st5{fill:url(#SVGID_00000051384253970004921650000016682402619217274035_);}
	.st6{fill:url(#SVGID_00000114782752186137213140000006761519795113355959_);}
	.st7{fill:#FFFFFF;}
	.st8{fill:#FF4F58;}
	.st9{fill:#FF6F59;}
	.st10{fill:#FFAD5B;}
	.st11{fill:#4B59C7;}
	.st12{fill:#6F5BE0;}
	.st13{fill:#B487FE;}
	.st14{fill:#1A598C;}
	.st15{fill:#2273B5;}
	.st16{fill:#3788CC;}
	.st17{fill:#BDC1C9;}
	.st18{opacity:0.73;fill:#FFFFFF;enable-background:new    ;}
	.st19{fill:#F5F5F5;}
	.st20{fill:#FFB95C;}
	.st21{fill:#D6D6D6;}
	.st22{opacity:0.17;fill:#B8B8B8;enable-background:new    ;}
	.st23{fill:#3F65A1;}
	.st24{fill:#5C544D;}
	.st25{fill:#3C4145;}
	.st26{fill:#33373B;}
	.st27{fill:#EEA886;}
	.st28{fill:#446291;}
	.st29{fill:#3F444F;}
	.st30{fill:#3A3F47;}
	.st31{fill:#FAB46C;}
	.st32{fill:#D4985B;}
	.st33{opacity:0.3;fill:#C2C2C2;enable-background:new    ;}
	.st34{fill:#DA9B5E;}
</style>
<g id="contents">
	<g>
		<circle class="st0" cx="91" cy="80" r="80"/>
		<g>
			
				<linearGradient id="SVGID_1_" gradientUnits="userSpaceOnUse" x1="120.2829" y1="7.9015" x2="40.6129" y2="160.1115" gradientTransform="matrix(1 0 0 -1 0 162)">
				<stop  offset="0" style="stop-color:#D5E4FF"/>
				<stop  offset="1" style="stop-color:#EDFFFE"/>
			</linearGradient>
			<path class="st1" d="M16.2,10h117.9c2.8,0,5.2,2.3,5.2,5.2v105.3c0,2.8-2.3,5.2-5.2,5.2H16.2c-2.8,0-5.2-2.3-5.2-5.2V15.2
				C11,12.3,13.3,10,16.2,10z"/>
			<g>
				<rect x="17.4" y="24.1" class="st2" width="0.3" height="35"/>
				<rect x="41.1" y="24.1" class="st2" width="0.3" height="35"/>
				<rect x="64.8" y="24.1" class="st2" width="0.3" height="35"/>
				<rect x="88.5" y="24.1" class="st2" width="0.3" height="35"/>
				<rect x="112.2" y="24.1" class="st2" width="0.3" height="35"/>
				<rect x="17.5" y="61.2" class="st3" width="3.8" height="1.2"/>
				<rect x="17.5" y="19.8" class="st4" width="5.7" height="0.9"/>
				<rect x="17.5" y="21.5" class="st4" width="8.1" height="0.9"/>
				<rect x="41" y="19.8" class="st4" width="6.7" height="0.9"/>
				<rect x="41" y="21.5" class="st4" width="4.3" height="0.9"/>
				<rect x="65.1" y="19.8" class="st4" width="4.1" height="0.9"/>
				<rect x="65.1" y="21.5" class="st4" width="4.8" height="0.9"/>
				<rect x="88.8" y="19.8" class="st4" width="6" height="0.9"/>
				<rect x="88.8" y="21.5" class="st4" width="4.8" height="0.9"/>
				<rect x="112.3" y="19.8" class="st4" width="3.6" height="0.9"/>
				<rect x="112.3" y="21.5" class="st4" width="2.9" height="0.9"/>
				<rect x="41.2" y="61.2" class="st3" width="3.8" height="1.2"/>
				<rect x="65.1" y="61.2" class="st3" width="3.8" height="1.2"/>
				<rect x="88.8" y="61.2" class="st3" width="3.8" height="1.2"/>
				<rect x="112.5" y="61.2" class="st3" width="3.8" height="1.2"/>
				
					<linearGradient id="SVGID_00000117656611217534116020000012554704880047361170_" gradientUnits="userSpaceOnUse" x1="17.54" y1="121.0478" x2="112.31" y2="121.0478" gradientTransform="matrix(1 0 0 -1 0 162)">
					<stop  offset="0" style="stop-color:#FFC05C"/>
					<stop  offset="1" style="stop-color:#FF3857"/>
				</linearGradient>
				<path style="fill:url(#SVGID_00000117656611217534116020000012554704880047361170_);" d="M104.1,48.7c-7.4,0-13.8-3.2-20.5-6.5
					c-8.3-4.1-16.8-8.4-28.2-7.2c-7.3,0.7-11.8,3.7-15.9,6.3c-3.6,2.4-7.1,4.5-11.8,4.6c-7.5,0.3-10.2-2.9-10.2-3.1v-2.1l0,0
					c0,0,1.7,3.7,10.2,3.6c4.2,0,7.3-2,10.9-4.4c4.2-2.7,8.9-5.8,16.6-6.6c11.8-1.2,20.6,3.1,29.1,7.4c8.9,4.4,17.3,8.5,28,5v1.7
					C109.3,48.4,106.8,48.7,104.1,48.7L104.1,48.7z"/>
				
					<linearGradient id="SVGID_00000082345332461423676120000001506630469250074043_" gradientUnits="userSpaceOnUse" x1="17.54" y1="123.6004" x2="112.34" y2="123.6004" gradientTransform="matrix(1 0 0 -1 0 162)">
					<stop  offset="0" style="stop-color:#9A5CFF"/>
					<stop  offset="0.99" style="stop-color:#4059BF"/>
				</linearGradient>
				<path style="fill:url(#SVGID_00000082345332461423676120000001506630469250074043_);" d="M59.8,48.3c-5.5,0-9.8-3.7-14-7.3
					c-3.2-2.7-6.5-5.5-10.4-6.9c-11.7-4.2-17.7,3.5-17.8,3.5v-2.3c0.1-0.1,1.1-1.5,4.2-2.8c2.8-1.2,7.6-2.2,14.1,0.1
					c4.1,1.4,7.6,4.3,10.9,7.2c6.7,5.7,12.6,10.7,22.7,2.9c7.7-5.8,14.9-11.4,22-13.5c6.9-2,14.2-0.5,21,6.2l-0.1,2.1
					C97.9,23.2,85.6,32.3,70.4,44C66.3,47.1,62.8,48.3,59.8,48.3L59.8,48.3z"/>
			</g>
			<g>
				<path class="st7" d="M38.6,78.7c-1.6-4.5-5.9-7.3-10.5-7.1c-1.1,0-2.2,0.2-3.3,0.6c-3.3,1.2-5.7,3.8-6.7,6.9
					c-0.7,2.2-0.7,4.6,0.1,6.8c0.1,0.2,0.2,0.4,0.3,0.7c0.4,1,1,1.9,1.7,2.7c2.8,3.3,7.5,4.7,11.8,3.2
					C37.7,90.4,40.6,84.3,38.6,78.7z M31.2,89.9C28,91,24.4,90,22.3,87.5c-0.5-0.6-0.9-1.3-1.2-2c-0.1-0.2-0.1-0.3-0.2-0.5
					c-0.6-1.7-0.6-3.5-0.1-5.1c0.7-2.3,2.5-4.3,5-5.2c0.8-0.3,1.6-0.4,2.5-0.5c3.4-0.1,6.6,2,7.8,5.4C37.6,83.8,35.4,88.4,31.2,89.9
					z"/>
				<path class="st8" d="M20.8,79.9l-2.6-0.8c1-3.1,3.4-5.8,6.7-6.9c1.1-0.4,2.2-0.6,3.3-0.6l0.1,2.7c-0.8,0-1.7,0.2-2.5,0.5
					C23.3,75.6,21.5,77.5,20.8,79.9L20.8,79.9z"/>
				<path class="st9" d="M21.1,85.5l-2.5,1.1c-0.1-0.2-0.2-0.4-0.3-0.7c-0.8-2.3-0.8-4.7-0.1-6.8l2.6,0.8c-0.5,1.6-0.5,3.4,0.1,5.1
					C20.9,85.2,21,85.3,21.1,85.5z"/>
				<path class="st10" d="M20.3,89.3c-0.7-0.8-1.2-1.7-1.7-2.7l2.5-1.1c0.3,0.7,0.8,1.4,1.2,2L20.3,89.3z"/>
			</g>
			<g>
				<path class="st7" d="M68.3,86.2c1.8-4.4,0.3-9.4-3.2-12.3c-0.8-0.7-1.8-1.3-2.9-1.7c-3.3-1.3-6.8-0.9-9.6,0.8
					c-1.9,1.2-3.5,3-4.4,5.2c-0.1,0.2-0.2,0.4-0.2,0.7c-0.3,1-0.5,2.1-0.5,3.1c-0.1,4.3,2.5,8.5,6.8,10.2
					C59.8,94.5,66.1,91.8,68.3,86.2L68.3,86.2z M55.3,89.8c-3.2-1.3-5.2-4.4-5.1-7.6c0-0.8,0.1-1.6,0.4-2.3c0-0.2,0.1-0.3,0.2-0.5
					c0.7-1.7,1.9-3,3.3-3.9c2.1-1.3,4.7-1.6,7.2-0.6c0.8,0.3,1.5,0.8,2.2,1.3c2.6,2.2,3.7,5.9,2.4,9.2
					C64.1,89.4,59.4,91.4,55.3,89.8z"/>
				<path class="st11" d="M54,75.4l-1.4-2.3c2.8-1.7,6.3-2.1,9.6-0.8c1.1,0.4,2.1,1,2.9,1.7L63.4,76c-0.6-0.5-1.4-1-2.2-1.3
					C58.8,73.8,56.1,74.1,54,75.4L54,75.4z"/>
				<path class="st12" d="M50.6,79.8L48,79c0.1-0.2,0.2-0.4,0.2-0.7c0.9-2.3,2.5-4.1,4.4-5.2l1.4,2.3c-1.5,0.9-2.6,2.2-3.3,3.9
					C50.7,79.5,50.6,79.6,50.6,79.8z"/>
				<path class="st13" d="M47.5,82.1c0-1,0.2-2.1,0.5-3.1l2.6,0.8c-0.2,0.8-0.4,1.6-0.4,2.3L47.5,82.1L47.5,82.1z"/>
			</g>
			<g>
				<path class="st7" d="M89.7,71.6c-4.7-0.7-9.2,1.7-11.3,5.8c-0.5,1-0.8,2.1-1,3.2c-0.5,3.5,0.7,6.8,2.9,9.2
					c1.6,1.6,3.7,2.8,6.1,3.1c0.2,0,0.5,0.1,0.7,0.1c1.1,0.1,2.1,0,3.2-0.2c4.3-0.9,7.7-4.3,8.4-8.9C99.6,78,95.5,72.5,89.7,71.6z
					 M96,83.5c-0.5,3.4-3.1,6-6.3,6.7c-0.8,0.2-1.6,0.2-2.4,0.1c-0.2,0-0.4,0-0.5-0.1c-1.8-0.3-3.4-1.1-4.6-2.3
					c-1.7-1.8-2.6-4.3-2.2-6.9c0.1-0.9,0.4-1.7,0.8-2.4c1.5-3,4.9-4.9,8.4-4.3C93.7,75,96.7,79.1,96,83.5L96,83.5z"/>
				<path class="st14" d="M82.2,87.9l-1.9,1.9c-2.3-2.3-3.5-5.7-2.9-9.2c0.2-1.2,0.5-2.2,1-3.2l2.4,1.2c-0.4,0.7-0.6,1.5-0.8,2.4
					C79.6,83.6,80.5,86.2,82.2,87.9L82.2,87.9z"/>
				<path class="st15" d="M87.3,90.3L87.1,93c-0.2,0-0.5-0.1-0.7-0.1c-2.4-0.4-4.5-1.5-6.1-3.1l1.9-1.9c1.2,1.2,2.8,2.1,4.6,2.3
					C87,90.3,87.1,90.3,87.3,90.3L87.3,90.3z"/>
				<path class="st16" d="M90.2,92.8c-1,0.2-2.1,0.3-3.2,0.2l0.2-2.7c0.8,0.1,1.6,0,2.4-0.1L90.2,92.8z"/>
			</g>
			<rect x="17.7" y="98.2" class="st17" width="21.5" height="1.7"/>
			<rect x="17.7" y="101.7" class="st17" width="16.1" height="1.7"/>
			<rect x="47.5" y="98.2" class="st17" width="11.9" height="1.7"/>
			<rect x="47.5" y="101.7" class="st17" width="17.6" height="1.7"/>
			<rect x="79.2" y="98.2" class="st17" width="13.2" height="1.7"/>
			<rect x="79.2" y="101.7" class="st17" width="15.3" height="1.7"/>
			<path class="st18" d="M115.1,17h27.6c2,0,3.7,1.6,3.7,3.7V115c0,2-1.6,3.7-3.7,3.7h-27.6c-2,0-3.7-1.6-3.7-3.7V20.6
				C111.4,18.6,113.1,17,115.1,17z"/>
			<rect x="17.7" y="109.6" class="st7" width="68.6" height="1.6"/>
			<rect x="17.7" y="113.4" class="st7" width="74.1" height="1.6"/>
			<rect x="17.7" y="117.2" class="st7" width="48.1" height="1.6"/>
			<g>
				<path class="st19" d="M138.5,33.7c0,3.9-2.3,7.2-5.6,8.7c-1.2,0.5-2.5,0.8-4,0.8c-1.4,0-2.8-0.3-4-0.8c-3.3-1.5-5.6-4.8-5.6-8.7
					c0-5.3,4.3-9.6,9.6-9.6C134.2,24.1,138.5,28.4,138.5,33.7z"/>
				<path class="st20" d="M131.1,31.2c0,1.2-1,2.2-2.2,2.2c-1.2,0-2.2-1-2.2-2.2s1-2.2,2.2-2.2C130.1,29,131.1,30,131.1,31.2z"/>
				<path class="st20" d="M132.9,38.3v4.2c-1.2,0.5-2.5,0.8-4,0.8c-1.4,0-2.8-0.3-4-0.8v-4.2c0-2.2,1.8-4,4-4S132.9,36.1,132.9,38.3
					z"/>
			</g>
			<rect x="120.8" y="47.2" class="st21" width="16.2" height="1"/>
			<rect x="122.6" y="45.4" class="st21" width="12.6" height="1"/>
			<rect x="124.7" y="77.8" class="st21" width="8.5" height="1"/>
			<rect x="122.6" y="76" class="st21" width="12.6" height="1"/>
			<rect x="123.1" y="108.6" class="st21" width="11.7" height="1"/>
			<rect x="121.5" y="106.7" class="st21" width="14.9" height="1"/>
			<g>
				<path class="st19" d="M138.5,64.2c0,3.9-2.3,7.2-5.6,8.7c-1.2,0.6-2.5,0.8-4,0.8c-1.4,0-2.8-0.3-4-0.8c-3.3-1.5-5.6-4.8-5.6-8.7
					c0-5.3,4.3-9.6,9.6-9.6C134.2,54.6,138.5,58.9,138.5,64.2z"/>
				<path class="st9" d="M131.1,61.7c0,1.2-1,2.2-2.2,2.2c-1.2,0-2.2-1-2.2-2.2s1-2.2,2.2-2.2C130.1,59.5,131.1,60.4,131.1,61.7z"/>
				<path class="st9" d="M132.9,68.8v4.2c-1.2,0.6-2.5,0.8-4,0.8c-1.4,0-2.8-0.3-4-0.8v-4.2c0-2.2,1.8-4,4-4S132.9,66.6,132.9,68.8z
					"/>
			</g>
			<g>
				<path class="st19" d="M138.5,94.7c0,3.9-2.3,7.2-5.6,8.7c-1.2,0.6-2.5,0.8-4,0.8c-1.4,0-2.8-0.3-4-0.8c-3.3-1.5-5.6-4.8-5.6-8.7
					c0-5.3,4.3-9.6,9.6-9.6C134.2,85.1,138.5,89.4,138.5,94.7z"/>
				<path class="st16" d="M131.1,92.1c0,1.2-1,2.2-2.2,2.2c-1.2,0-2.2-1-2.2-2.2s1-2.2,2.2-2.2C130.1,89.9,131.1,90.9,131.1,92.1z"
					/>
				<path class="st16" d="M132.9,99.2v4.2c-1.2,0.6-2.5,0.8-4,0.8c-1.4,0-2.8-0.3-4-0.8v-4.2c0-2.2,1.8-4,4-4S132.9,97.1,132.9,99.2
					z"/>
			</g>
			<path class="st7" d="M126,114.4h5.8c0.7,0,1.3,0.6,1.3,1.3v5.8c0,0.7-0.6,1.3-1.3,1.3H126c-0.7,0-1.3-0.6-1.3-1.3v-5.8
				C124.7,115,125.3,114.4,126,114.4z"/>
			<polygon class="st21" points="128.9,120.5 126.7,118.2 127.3,117.6 128.9,119.3 130.6,117.6 131.2,118.2 			"/>
			<path class="st7" d="M131.8,21.2H126c-0.7,0-1.3-0.6-1.3-1.3V14c0-0.7,0.6-1.3,1.3-1.3h5.8c0.7,0,1.3,0.6,1.3,1.3v5.8
				C133.1,20.6,132.6,21.2,131.8,21.2z"/>
			<polygon class="st21" points="130.6,18 128.9,16.3 127.3,18 126.7,17.4 128.9,15.1 131.2,17.4 			"/>
			<g>
				<circle class="st22" cx="86.8" cy="99.5" r="27.3"/>
				<g>
					
						<rect x="140.6" y="85.5" transform="matrix(0.1678 -0.9858 0.9858 0.1678 11.1102 235.4171)" class="st23" width="8.7" height="51.3"/>
					<path class="st24" d="M157.3,150c0,0,0.2,1.6,0.2,1.8c0,0.2,2.4-0.1,2.4-0.1l0.2-1.9C160.1,149.8,157.6,149.8,157.3,150
						L157.3,150z"/>
					<path class="st25" d="M157.5,151.6c0,0-0.8,1-1.5,1.4c-0.7,0.4-1.9,0.6-2.3,1c-0.3,0.3-1.1,1.7,1.9,1.6s4.5,0.2,4.8-0.3
						s-0.5-3.8-0.5-3.8S159.2,151.8,157.5,151.6L157.5,151.6z"/>
					<path class="st24" d="M140.1,150c0,0,0.2,1.6,0.2,1.8c0,0.2,2.4-0.1,2.4-0.1l0.2-1.9C143,149.8,140.4,149.8,140.1,150
						L140.1,150z"/>
					<path class="st25" d="M140.4,151.6c0,0-0.8,1-1.5,1.4c-0.7,0.4-3.4,0.8-3.9,1.2c-0.3,0.3-0.8,1.6,3.5,1.4
						c3-0.1,4.5,0.2,4.8-0.3s-0.5-3.8-0.5-3.8S142.2,151.8,140.4,151.6L140.4,151.6z"/>
					<path class="st26" d="M156.4,108.9c0,0,1.3,3.9,1.1,7.4c-0.2,3.4,0.7,7.1,1,10.7c0.4,4,1.9,13.4,2,15.5
						c0.1,2.1-0.2,8.9-0.2,8.9l-3.1,0.1c0,0-2.6-16.4-3.3-18.1c-0.7-1.7-4-13.6-4.1-15C149.7,117,156.4,108.9,156.4,108.9
						L156.4,108.9z"/>
					<path class="st25" d="M143.5,109.6c0,0-1.7,9.3-1.9,11.4s-0.4,10.1-0.5,11.4c-0.1,1.3-0.8,17.1-1.3,19h3.4
						c0,0,3.5-11.4,3.5-16.9s2.3-11.8,3.9-15.4c1.5-3.6,5-3.7,5.9-10.3C156.5,108.9,144.8,107.5,143.5,109.6L143.5,109.6z"/>
					<path class="st27" d="M149.6,78.4c0,0-3.1-0.7-4.2,1.8c-1,2.5-0.2,7,1.4,7.3c1.6,0.3,3.8-0.3,4.4-1.9s0.9-3.7,0.7-5.1
						S150.5,78.7,149.6,78.4L149.6,78.4z"/>
					<path class="st27" d="M132.4,112c0,0-1,1-1.3,1.1s-1-0.4-3.2-0.5c-0.2,0-0.5,0.2-0.4,0.4c0.1,0.3,0.9,1.3,1.3,1.4
						c0.4,0.1,2.7,0.4,3.6,0s1.6-1.7,1.6-1.7S132.4,112,132.4,112z"/>
					
						<rect x="115.1" y="105.2" transform="matrix(0.168 -0.9858 0.9858 0.168 -6.5957 205.3636)" class="st28" width="6.6" height="2.7"/>
					<path class="st29" d="M86.6,67.8c-17.5,0-31.7,14.2-31.7,31.7s14.2,31.7,31.7,31.7s31.7-14.2,31.7-31.7S104.2,67.8,86.6,67.8z
						 M86.6,126.1c-10.2,0-19-5.7-23.4-14.1l0,0c-2-3.7-3.1-7.9-3.1-12.4C60.1,84.9,72,73,86.6,73c6.9,0,13.1,2.6,17.8,6.9
						c5.3,4.8,8.7,11.8,8.7,19.6C113.1,114.2,101.3,126.1,86.6,126.1z"/>
					<path class="st27" d="M147.2,87.7c0,0,0.2,0.8,0.1,1.2s3.9-0.2,3.9-0.2s0-2.2,0.3-4.1C151.9,82.6,147.2,87.6,147.2,87.7
						L147.2,87.7z"/>
					<path class="st30" d="M151.6,84.5c0,0-0.2,0.5-1.4,0.5s-2.8-1.3-3.3-1.4c-0.5-0.1-0.6-0.4-0.6-0.4l-0.2,0.5l-0.5,0.1
						c0,0,0.2-1.4-0.5-1.9c-0.8-0.4,0-4.5,3.9-3.8c0,0,2.9,0.3,3.1,2S152.1,83.6,151.6,84.5L151.6,84.5z"/>
					<path class="st31" d="M147.3,88.9c0,0-2.1,0.6-4.3,2.1c0,0-2.6,1.2-2.9,4c-0.1,1.5-1.5,7.2-1.8,7.8c-0.3,0.7-6.4,9.1-6.5,9.3
						c-0.1,0.2,1.6,1.4,1.8,1.3s7-7.5,7.4-8.2c0,0,2.1-4.3,2.2-5.1c0,0,0.1,2.5,0.1,3.2c0.1,0.7-0.9,9.6-0.9,10
						c0.1,0.4,6.8,1.7,9.9,1.4s5.4-1.5,5.4-1.5s-1.5-6.1-1.3-7.2s0.6-7.8,0.6-7.8l2.2,3.2l-3.4,5.2l0.8,3.4c0,0,6-7.7,6.2-8.5
						c0.2-0.8-0.1-1.7-0.4-2.4c-0.3-0.7-2.2-3.9-2.7-4.7c-0.5-0.8-1.9-3.1-4-3.8c-2.1-0.7-4.5-1.8-4.5-1.8L147.3,88.9L147.3,88.9z"
						/>
					<path class="st32" d="M147,89c0,0,0-0.8,0.4-0.8s3.8-0.4,4.3-0.2v0.9C151.6,88.8,150.8,89.3,147,89z"/>
					<path class="st27" d="M146.3,82.7c0-0.3,0.6-1.2,1-0.4s-0.1,2-0.5,2C146.5,84.2,146.3,83.4,146.3,82.7L146.3,82.7z"/>
					<path class="st33" d="M104.5,79.9c0,0-34.4-4.3-41.3,32.1l0,0c-2-3.7-3.1-7.9-3.1-12.4C60.1,84.9,72,73,86.6,73
						C93.5,73,99.8,75.6,104.5,79.9z"/>
					<path class="st34" d="M157,109.1c0,0-0.6-2.9-0.3-3.8l0.5-0.8C157.2,104.5,156.9,106.1,157,109.1L157,109.1z"/>
				</g>
			</g>
		</g>
	</g>
</g>
</svg>
