<?xml version="1.0" encoding="utf-8"?>
<!-- Generator: Adobe Illustrator 27.4.1, SVG Export Plug-In . SVG Version: 6.00 Build 0)  -->
<svg version="1.1" id="_レイヤー_2" xmlns="http://www.w3.org/2000/svg" xmlns:xlink="http://www.w3.org/1999/xlink" x="0px"
	 y="0px" viewBox="0 0 182 160" style="enable-background:new 0 0 182 160;" xml:space="preserve">
<style type="text/css">
	.st0{fill:#E7E7D3;}
	.st1{fill:#BFD2FF;}
	.st2{fill:#63738F;}
	.st3{fill:#333842;}
	.st4{fill:#3E4D66;}
	.st5{fill:#FEFEFF;}
	.st6{fill:#FFB861;}
	.st7{fill:#96B3FF;}
	.st8{fill:#FF6EA1;}
	.st9{fill:#3FD4C7;}
	.st10{fill:none;stroke:#333842;stroke-width:0.25;stroke-linecap:round;stroke-miterlimit:10;}
	.st11{fill:#E0E9FF;}
	.st12{fill:#628AEC;}
	.st13{fill:none;stroke:#333842;stroke-width:0.28;stroke-linecap:round;stroke-miterlimit:10;}
	.st14{fill:#FFFFFF;}
	.st15{fill:#BFC5D4;}
	.st16{fill:#F7B699;}
	.st17{fill:#4F5D7A;}
	.st18{fill:none;stroke:#333842;stroke-width:0.35;stroke-linecap:round;stroke-linejoin:round;}
	.st19{fill:#6C7995;}
	.st20{fill:none;stroke:#333842;stroke-width:0.35;stroke-miterlimit:10;}
	.st21{fill:#3C4966;}
	.st22{fill:none;stroke:#333842;stroke-width:0.22;stroke-linecap:round;stroke-miterlimit:10;}
	.st23{fill:#3D434F;}
	.st24{fill:none;stroke:#333842;stroke-width:0.14;stroke-miterlimit:10;}
</style>
<g id="contents">
	<g>
		<circle class="st0" cx="89.9" cy="80" r="80"/>
		<g>
			<path class="st1" d="M48.1,141.5c1.7,0.3,3.3,0.6,5,0.9h1.7L48.1,141.5z"/>
			<g>
				<path class="st2" d="M39,84.4l87.2,0.4c2,0,3.6,1.6,3.6,3.6l-0.2,48.9c0,2-1.6,3.6-3.6,3.6l-87.2-0.4c-2,0-3.6-1.6-3.6-3.6
					L35.4,88C35.4,86,37,84.4,39,84.4z"/>
				<path class="st3" d="M83,85.8c0,0.2-0.2,0.4-0.4,0.4c-0.2,0-0.4-0.2-0.4-0.4s0.2-0.4,0.4-0.4C82.8,85.3,83,85.5,83,85.8z"/>
				<path class="st4" d="M136.5,141.1L136.5,141.1l-108.4-0.5l0,0c0,2.5,2,4.5,4.5,4.5l99.4,0.5
					C134.5,145.6,136.5,143.6,136.5,141.1z"/>
				<path class="st5" d="M37.4,136l0.2-46.5c0-1.6,1.3-2.8,2.8-2.8l84.2,0.4c1.6,0,2.8,1.3,2.8,2.8l-0.2,46.5c0,1.6-1.3,2.8-2.8,2.8
					l-84.2-0.4C38.7,138.8,37.4,137.5,37.4,136z"/>
			</g>
			<g>
				<g>
					<rect x="143.6" y="40.4" class="st6" width="12.2" height="3.1"/>
					<rect x="143.6" y="35.7" class="st7" width="18.2" height="3.1"/>
					<rect x="143.6" y="30.9" class="st8" width="26.4" height="3.1"/>
					<rect x="143.6" y="26.1" class="st9" width="14.9" height="3.1"/>
					<polyline class="st10" points="143.2,23.4 143.2,45.7 171.9,45.7 					"/>
				</g>
				<g>
					<rect x="152.9" y="50.2" class="st11" width="18.7" height="1.8"/>
					<rect x="152.9" y="53.5" class="st11" width="18.7" height="1.8"/>
					<rect x="152.9" y="56.8" class="st11" width="18.7" height="1.8"/>
					<rect x="143.2" y="50.2" class="st11" width="8.1" height="8.4"/>
					<rect x="143.2" y="60.1" class="st11" width="28.4" height="1.8"/>
					<rect x="143.2" y="63.5" class="st11" width="28.4" height="1.8"/>
				</g>
				<path class="st1" d="M106.3,4.1c-0.6,0.1-1.1,0.3-1.7,0.5c0,0,0.1,0.1,0.1,0.1c0.4,0.7,0.2,1.6-0.5,2.1
					c-0.7,0.4-1.6,0.2-2.1-0.5c0-0.1-0.1-0.1-0.1-0.2c-0.4,0.4-0.8,0.8-1.2,1.3c0.1,0,0.1,0,0.2,0.1c0.7,0.4,1,1.3,0.6,2
					s-1.3,1-2,0.6c-0.1,0-0.1-0.1-0.2-0.1c-0.2,0.6-0.3,1.1-0.4,1.7c0.1,0,0.1,0,0.2,0c0.8,0,1.5,0.6,1.6,1.4c0,0.8-0.6,1.5-1.4,1.6
					c-0.1,0-0.1,0-0.2,0c0.1,0.6,0.3,1.2,0.5,1.7c0.1,0,0.1-0.1,0.2-0.1c0.7-0.4,1.6-0.2,2.1,0.5c0.4,0.7,0.2,1.6-0.5,2.1
					c-0.1,0-0.1,0.1-0.2,0.1c0.4,0.5,0.8,0.9,1.3,1.2c0-0.1,0.1-0.1,0.1-0.2c0.4-0.7,1.3-1,2-0.6c0.7,0.4,1,1.3,0.6,2
					c0,0.1-0.1,0.1-0.1,0.2c0.6,0.2,1.2,0.3,1.8,0.4c0-0.1,0-0.1,0-0.2c0-0.8,0.6-1.5,1.4-1.5c0.8,0,1.5,0.6,1.6,1.4
					c0,0.1,0,0.2,0,0.2c0.6-0.1,1.2-0.3,1.7-0.5c-0.1-0.1-0.1-0.1-0.1-0.2c-0.4-0.7-0.2-1.6,0.5-2.1c0.7-0.4,1.6-0.2,2.1,0.5
					c0,0.1,0.1,0.1,0.1,0.2c0.4-0.4,0.9-0.8,1.2-1.3c-0.1,0-0.1,0-0.2-0.1c-0.7-0.4-1-1.3-0.6-2c0.4-0.7,1.3-1,2-0.6
					c0.1,0,0.1,0.1,0.2,0.1c0.2-0.6,0.3-1.1,0.4-1.7c-0.1,0-0.1,0-0.2,0c-0.8,0-1.5-0.6-1.6-1.4c0-0.8,0.6-1.5,1.4-1.6
					c0.1,0,0.1,0,0.2,0c-0.1-0.6-0.3-1.1-0.5-1.7c-0.1,0-0.1,0.1-0.1,0.1c-0.7,0.4-1.6,0.2-2.1-0.5c-0.4-0.7-0.2-1.6,0.5-2.1
					c0.1,0,0.1-0.1,0.2-0.1c-0.4-0.4-0.8-0.8-1.3-1.2c0,0.1,0,0.1-0.1,0.2c-0.4,0.7-1.3,1-2,0.6c-0.7-0.4-1-1.3-0.6-2
					c0-0.1,0.1-0.1,0.1-0.1c-0.6-0.2-1.1-0.3-1.7-0.4c0,0.1,0,0.1,0,0.2c0,0.8-0.6,1.5-1.4,1.5c-0.8,0-1.5-0.6-1.6-1.4
					C106.3,4.2,106.3,4.1,106.3,4.1L106.3,4.1z M107.9,6.9c3.4-0.1,6.2,2.5,6.3,5.9s-2.5,6.2-5.9,6.3s-6.2-2.5-6.3-5.9
					S104.5,7,107.9,6.9z"/>
				<g>
					<rect x="15.6" y="7.8" class="st11" width="34.8" height="41.9"/>
					<g>
						<rect x="22.7" y="24.3" class="st9" width="3.9" height="9.2"/>
						<rect x="28.7" y="19.8" class="st5" width="3.9" height="13.7"/>
						<rect x="34.7" y="13.6" class="st7" width="3.9" height="19.9"/>
						<rect x="40.7" y="22.3" class="st12" width="3.9" height="11.2"/>
						<polyline class="st13" points="20.4,14 20.4,33.6 45.9,33.6 						"/>
					</g>
					<rect x="19.9" y="37.3" class="st5" width="26.1" height="2.5"/>
					<rect x="19.9" y="41.9" class="st5" width="26.1" height="2.5"/>
				</g>
				<g>
					<g>
						<polygon class="st14" points="69,60.8 64.2,70.7 55.4,59.8 47.6,69.9 41.7,63.6 40.9,64.4 47.6,71.7 55.4,61.7 64.4,72.9 
							69.9,61.7 						"/>
						<path class="st8" d="M65.9,71.8c0-0.9-0.7-1.6-1.6-1.6c-0.9,0-1.5,0.7-1.5,1.6s0.7,1.6,1.5,1.6C65.2,73.3,65.9,72.6,65.9,71.8
							z"/>
						<path class="st9" d="M71,60.8c0-0.9-0.7-1.5-1.5-1.5s-1.5,0.7-1.5,1.5s0.7,1.5,1.5,1.5S71,61.7,71,60.8z"/>
						<circle class="st3" cx="55.4" cy="60.8" r="1.5"/>
						<circle class="st6" cx="47.8" cy="70.6" r="1.6"/>
						<path class="st12" d="M43.2,64.3c0-0.9-0.7-1.5-1.5-1.5s-1.5,0.7-1.5,1.5s0.7,1.6,1.5,1.6S43.2,65.2,43.2,64.3z"/>
					</g>
					<polyline class="st13" points="37.1,57.1 37.1,77.7 71.9,77.7 					"/>
				</g>
				<g>
					<g>
						<circle class="st15" cx="56.1" cy="121.7" r="12"/>
						<path class="st12" d="M55.8,121.9l-9.3-3.2c-0.4,1.1-0.5,2.1-0.5,3.2c0,5.4,4.5,9.9,9.9,9.9c1.8,0,3.5-0.5,5.1-1.4L55.8,121.9
							L55.8,121.9z"/>
						<path class="st11" d="M56.3,121.7l5.1,8.4c1.4-0.9,2.6-2.1,3.5-3.6c0.8-1.5,1.3-3.1,1.3-4.8H56.3L56.3,121.7z"/>
						<path class="st5" d="M56.4,121.2l9.9-0.1c0-1.3-0.3-2.7-0.9-3.9c-0.6-1.2-1.3-2.3-2.3-3.2C63,114,56.3,121.2,56.4,121.2z"/>
					</g>
					<g>
						<rect x="42.2" y="102.1" class="st3" width="27.7" height="1.5"/>
						<rect x="42.2" y="99.1" class="st3" width="27.7" height="1.5"/>
						<rect x="42.2" y="96.1" class="st3" width="27.7" height="1.5"/>
						<rect x="42.2" y="93.1" class="st3" width="27.7" height="1.5"/>
						<rect x="42.2" y="104.9" class="st3" width="27.7" height="1.5"/>
					</g>
					<g>
						<rect x="76" y="134.5" class="st3" width="48" height="1.5"/>
						<rect x="76" y="131.5" class="st3" width="48" height="1.5"/>
						<rect x="76" y="128.4" class="st3" width="48" height="1.5"/>
					</g>
				</g>
				<g>
					<circle class="st11" cx="71.4" cy="18.6" r="11.6"/>
					<path class="st8" d="M71.1,18.8l-9-3.1c-0.3,1-0.5,2.1-0.5,3.1c0,5.2,4.3,9.6,9.6,9.6c1.7,0,3.4-0.5,4.9-1.4L71.1,18.8
						L71.1,18.8z"/>
					<path class="st9" d="M71.6,18.6l5,8.1c1.4-0.9,2.6-2,3.3-3.5c0.8-1.4,1.2-3,1.2-4.7H71.6L71.6,18.6z"/>
					<path class="st5" d="M71.7,18.1l9.5-0.1c0-1.3-0.3-2.6-0.8-3.8s-1.3-2.2-2.2-3.1L71.7,18.1z"/>
				</g>
				<g>
					<rect x="75.9" y="32.3" class="st11" width="61.3" height="92.4"/>
					<g>
						<g>
							<rect x="95.2" y="76.8" class="st6" width="4.4" height="18.3"/>
							<rect x="113.9" y="67.8" class="st8" width="4.4" height="27.3"/>
							<rect x="123.3" y="55.4" class="st9" width="4.4" height="39.7"/>
							<g>
								<path class="st13" d="M85.2,75.3c9.4-2.4,26.5-11.5,34.3-20.1"/>
								<polygon class="st3" points="120.1,54.5 119.6,55.8 119.4,55.2 118.7,55.1 								"/>
							</g>
							<rect x="104.5" y="72.8" class="st5" width="4.4" height="22.3"/>
							<rect x="85.8" y="78.9" class="st12" width="4.4" height="16.2"/>
							<polyline class="st13" points="131.5,95.2 82.2,95.2 82.2,53.5 							"/>
						</g>
						<g>
							<g>
								<rect x="82.2" y="38.8" class="st5" width="49.9" height="3"/>
								<rect x="92.8" y="43.6" class="st5" width="28.8" height="3"/>
							</g>
							<rect x="82.2" y="99" class="st5" width="49.9" height="2.8"/>
							<rect x="82.2" y="104.1" class="st5" width="49.9" height="2.8"/>
							<rect x="82.2" y="109.1" class="st5" width="49.9" height="2.8"/>
							<rect x="82.2" y="114.6" class="st5" width="22.2" height="2.8"/>
						</g>
					</g>
				</g>
			</g>
			<g>
				<g>
					<rect x="27.7" y="84.9" class="st6" width="9.7" height="13.2"/>
					<circle class="st16" cx="26.8" cy="90.9" r="2.4"/>
					<path class="st16" d="M35.6,91.7c-0.1,1.3,1,2.5,2.3,2.5c1.3,0.1,2.5-1,2.5-2.3c0.1-1.3-1-2.5-2.3-2.5S35.7,90.4,35.6,91.7z"/>
				</g>
				<g>
					<g>
						<path class="st3" d="M18.2,151.9c-0.2-0.8-0.4-1.5-0.7-2.2c-0.5-0.3-0.9-0.7-1.2-1.1c-0.2-0.2-0.3-0.4-0.6-0.6
							c-0.2-0.1-0.3-0.1-0.5-0.1c-1,0.1-1.9,0.1-2.9,0.2c0,0.8,0,1.6-0.2,2.4c-0.1,0.3-0.2,1.1-0.1,1.5L18.2,151.9z"/>
						<path class="st17" d="M24.6,97.3C24.6,97.3,24.6,97.2,24.6,97.3c-1.2-1.4-3.2-2-4.8-1.4c-4.4,1.4-4.2,8.2-4.6,12.2
							c-0.4,4.2-0.8,8.4-1.2,12.6c-0.8,8-1.2,19.6-2.1,27.6c0.7,0.4,1.3,0.4,2.1,0.5c1.3,0.1,1.8,0,2.2-0.4c1.1-7.2,3.8-18,5.1-25.2
							c0.7-3.8,1.2-5.6,1.9-9.4c0.5-2.8,0.7-5.7,1.4-8.5c0.3-1.3,1.1-2.5,1.2-3.7C26.1,99.9,25.6,98.3,24.6,97.3L24.6,97.3z"/>
						<line class="st18" x1="20.2" y1="128.8" x2="18.5" y2="128.4"/>
						<line class="st18" x1="20.2" y1="128.8" x2="18.2" y2="129.7"/>
					</g>
					<g>
						<path class="st3" d="M25.9,152C25.9,152,25.9,152,25.9,152c0.3,0,0.5,0,0.6,0c0,0,0.1,0,0.1,0c0.2,0,0.5,0,0.7,0
							c1.8,0.1,3.7,0.4,5.4,0.4c0.6,0,1.3,0,1.8-0.3c1.4-0.6-0.3-1.3-0.9-1.6c-0.6-0.3-1.1-0.6-1.8-0.9c-0.8-0.4-1.6-0.8-2.4-1.3
							c-1,0.3-2.1,0.4-3.2,0.4C25.8,148.7,25.1,151.7,25.9,152L25.9,152z"/>
						<path class="st19" d="M30.1,105.1c-0.3-1.8-1.8-7.9-3.8-8.2c-1.3-0.2-3,0.3-3.9,1.5c-0.7,0.9-1,2-1.2,3.2
							c-0.2,1.9-0.1,4,0.1,6c0.2,3.1,1,8.9,1,8.9s3.7,25.7,3.6,32c1.2,1.6,4.7,0,4.7-0.2c0.3-5,0-16.3,0-20.2
							C30.6,124,30.8,109.2,30.1,105.1z"/>
						<path class="st20" d="M22,115c-0.3-3.1-0.6-6.3-0.9-9.4"/>
					</g>
					<path class="st21" d="M18,107.6c1.4,0.4,2.9,0.7,4.3,0.8c2.8,0.3,5.5-0.2,8.1-1.1c-0.1-0.9-0.1-1.7-0.2-2.3
						c-0.3-1.8-1.8-7.9-3.8-8.2c-0.6-0.1-1.2,0-1.8,0.2c-1.2-1.3-3.1-1.8-4.7-1.3c-3.9,1.2-4.2,6.7-4.5,10.7
						C16.1,107,17.1,107.4,18,107.6z"/>
				</g>
				<path class="st16" d="M25.6,72.5c0,0.2,0,0.4,0,0.5c0,0.7,0.1,1.4,0.1,2c0,0.7,0.1,1.4,0.1,2.1c-0.1,1-0.3,1.9-1.2,2.4
					c-0.6,0.3-1.2,0.3-1.8,0c-0.4-0.2-1-0.5-1.2-1c-0.1-0.3-0.1-0.7-0.1-1c0-1.1,0-2.3,0-3.4c0-0.7,0-1.5,0.3-2.2
					c0.4-0.9,1.5-1.8,2.6-1.4C25.3,70.8,25.5,71.7,25.6,72.5L25.6,72.5z"/>
				<g>
					<path class="st16" d="M28.1,71.4L28.1,71.4c0-0.1-0.1-0.1-0.1-0.1c-0.2-0.3-0.3-0.6-0.5-0.9c0,0-0.1,0.2-0.1,0.2
						c0,0.1-0.1,0.3-0.1,0.4c0,0.3,0,0.6,0,0.8c0,0.1,0,0.2,0.1,0.3c0.1,0.2,0.6,0,0.9,0c0.1,0,0.1,0,0.2-0.1
						C28.5,71.8,28.2,71.5,28.1,71.4z"/>
					<path class="st16" d="M21.4,67.4c0.5-0.4,1.8-1,3.1-0.9c1.4,0,2.2,0.6,2.5,1.4c0.5,1.2,0.7,2.6,0.7,3.9c0,0.7,0,1.3-0.1,2
						c-0.1,0.6-0.4,1.1-1,1.2c-0.6,0.1-1.2,0.2-1.9,0.2c-0.5,0-1.2,0.1-1.8-0.1c-0.9-0.3-1.4-1.2-1.8-2c-0.1-0.2-0.3-1-0.3-1.2
						C20.6,70.3,20.8,67.8,21.4,67.4z"/>
					<g>
						<path class="st18" d="M26.5,65.6c-0.3-0.6-0.9-1.1-1.6-1.1"/>
						<path class="st18" d="M27.1,65.5c-0.2-0.1-0.4,0-0.5,0.1"/>
						<path class="st3" d="M24.6,73.8c0.1,0,0.1,0,0.1-0.1c0.1-0.1,0.1-0.5,0.1-0.7c0.1-0.4,0.1-0.9,0.2-1.3c0-0.3,0-0.5,0.2-0.7
							c0.2-0.2,0.5-0.2,0.7-0.2c0.9,0,1.1,0.1,1-0.9c-0.1-0.4-0.2-0.9-0.1-1.4c0.1-0.3,0.1-0.3,0.3-0.6c0.3-0.3,0.6-0.4,0.6-0.8
							c-0.5-1.8-2.3-2.9-4.4-2.4c-0.9,0.2-1.9,0.6-2.5,1.1c-0.3,0.3-0.6,0.6-0.8,0.9c0,0.1-0.1,0.2-0.1,0.3c0,0.1,0,0.2,0.1,0.2
							c-0.5,0.8-0.2,1.9-0.1,2.8c0.1,0.6,0.3,1.2,0.6,1.8c0.1,0.3,0.3,0.6,0.4,0.9c0.1,0.1,0.4,0.8,0.4,0.8c0.9,0,1.8,0,2.7,0
							C24.3,73.8,24.5,73.8,24.6,73.8L24.6,73.8z"/>
					</g>
					<path class="st16" d="M25.3,71.8c0.3,0.4,0.9,0.5,1.2,0c0.1-0.2,0.2-0.4,0.2-0.7c0-0.2,0-0.4-0.1-0.7c-0.1-0.3-0.4-0.4-0.7-0.5
						C25,69.7,24.8,71.2,25.3,71.8L25.3,71.8z"/>
					<path class="st22" d="M25.7,70.6c0-0.1,0.2-0.2,0.3-0.1c0.1,0.1,0.2,0.2,0.2,0.3c0.1,0.2,0.1,0.4,0.1,0.6c-0.1,0-0.2,0-0.3,0.1
						s0,0.2,0.1,0.3"/>
					<g>
						<path class="st22" d="M27.1,69.3c0.2-0.1,0.5-0.1,0.7-0.1"/>
						<path class="st3" d="M27.8,70.3c0,0.2-0.1,0.3-0.3,0.3s-0.3-0.1-0.3-0.3s0.1-0.3,0.3-0.3S27.8,70.2,27.8,70.3z"/>
						<path class="st22" d="M27.1,73c0.1,0,0.4,0,0.5-0.1"/>
					</g>
				</g>
				<path class="st23" d="M18.6,95.2h-3c-1.7,0-3.1-1.4-3.1-3.1l0,0c0-1.7,1.4-3.1,3.1-3.1h3c1.7,0,3.1,1.4,3.1,3.1l0,0
					C21.6,93.9,20.2,95.2,18.6,95.2z"/>
				<path class="st17" d="M16.9,79.3c-2.2,2.6-4.3,8.3-4.5,11.7c-0.1,0.8,0.1,1.7,0.6,2.4c0.5,0.7,1.4,1.1,2.2,1
					c0.9-0.2,1.5-1,1.9-1.7c0.7-1.3,1.8-4.4,2-5.8c0.3-1.5,1-3,1.3-4.6c0.2-1,1.1-5.6-1.2-5c-0.4,0.1-0.7,0.3-1,0.6
					C17.8,78.4,17.3,78.8,16.9,79.3z"/>
				<polygon class="st14" points="20.6,77 21.5,75.7 26,75.5 27,77.1 				"/>
				<path class="st19" d="M30.3,96.7l-0.9-17.8c-0.1,0,0-1.4-0.4-1.6c-0.6-0.4-2.3-0.6-2.8-0.7l-4.7,0c-0.6,0.1-1.4,0.3-2.1,0.5
					c-0.8,0.3-1.4,1-1.5,1.8L17.2,88l-0.9,8.5l-2.1,6.4c0.8,0.8,1.7,1.4,2.7,1.9c0.3,0.2,0.6,0.3,0.9,0.4c0,0,4.4,1.8,8.4,0.8
					c0.8-0.1,1.5-0.2,2.2-0.4c1.6-0.3,1.9-0.6,3.4-1.2L30.3,96.7L30.3,96.7z"/>
				<g>
					<path class="st19" d="M35.9,95.2h-3c-1.7,0-3-1.4-3-3.1l0,0c0-1.7,1.4-3.1,3-3.1h3c1.7,0,3,1.4,3,3.1l0,0
						C39,93.9,37.6,95.2,35.9,95.2z"/>
					<path class="st19" d="M31.2,79.6c1.1,1.7,1.8,3.8,2.5,5.7c0.7,1.9,1.9,4.3,1.8,6.3c0,0.8-0.3,1.5-0.9,2
						c-0.6,0.5-1.5,0.5-2.2,0.3c-2.3-0.5-2.9-2.5-3.6-4.4c-0.9-2.3-1.5-4.9-1.6-7.4c-0.1-1-0.5-5.8,1.8-4.9c0.4,0.2,0.7,0.4,1,0.7
						C30.4,78.5,30.8,79.1,31.2,79.6L31.2,79.6z"/>
					<path class="st24" d="M30.2,92.6c-1.7-3.6-2-4.8-2.3-6.1"/>
					<path class="st24" d="M28.3,88.1c-0.3-0.4-0.5-0.8-0.8-1.2"/>
				</g>
			</g>
		</g>
	</g>
</g>
</svg>
