<?xml version="1.0" encoding="UTF-8"?>
<svg id="_レイヤー_2" data-name="レイヤー 2" xmlns="http://www.w3.org/2000/svg" viewBox="0 0 182.18 160">
  <defs>
    <style>
      .cls-1 {
        fill: #e7e7d3;
      }

      .cls-2 {
        fill: #e8b799;
      }

      .cls-3 {
        fill: #fff;
      }

      .cls-4 {
        fill: #bae1ff;
      }

      .cls-5 {
        fill: #d6edff;
      }

      .cls-6 {
        fill: #de9c73;
      }

      .cls-7 {
        fill: #3f7eb0;
      }

      .cls-8 {
        fill: #54472d;
      }

      .cls-9 {
        fill: #99d2ff;
      }

      .cls-10 {
        fill: #4a94cf;
      }

      .cls-11 {
        stroke-width: 2.34px;
      }

      .cls-11, .cls-12, .cls-13, .cls-14 {
        fill: none;
        stroke: #fff;
        stroke-miterlimit: 10;
      }

      .cls-12 {
        stroke-width: .47px;
      }

      .cls-13 {
        stroke-linecap: round;
      }

      .cls-13, .cls-14 {
        stroke-width: 3.27px;
      }
    </style>
  </defs>
  <g id="contents">
    <g>
      <circle class="cls-1" cx="94.49" cy="80" r="80"/>
      <g>
        <g>
          <rect class="cls-7" x="86.72" y="137.1" width="21.01" height="14.3"/>
          <rect class="cls-10" x="46.4" y="16.57" width="101.64" height="152.26" rx="6.92" ry="6.92" transform="translate(189.92 -4.52) rotate(90)"/>
          <rect class="cls-5" x="24.84" y="45.62" width="144.77" height="94.16" rx="3.18" ry="3.18"/>
          <rect class="cls-3" x="97.22" y="60.38" width="65.07" height="65.07"/>
          <g>
            <path class="cls-4" d="m129.46,108.38v17.09h-17.07v-8.98c0-1.31.81-2.48,2.04-2.93l7.88-2.92,2.93-.93,4.21-1.34Z"/>
            <path class="cls-4" d="m147.13,116.49v8.98h-17.07v-17.09l4.24,1.34,2.91.92,7.88,2.92c1.23.45,2.04,1.62,2.04,2.93Z"/>
            <rect class="cls-6" x="125.24" y="101.58" width="9.06" height="9.06"/>
            <path class="cls-2" d="m120.04,89.58h2.27v5.46h-1.52c-.49,0-.92-.34-1.03-.82l-.75-3.36c-.15-.66.35-1.28,1.03-1.28Z"/>
            <path class="cls-2" d="m129.76,77.28l-10.77,5.88,3.13,15.91c.35,1.78,1.76,3.54,3.59,4.95.74.56,1.65.86,2.57.86h3.15c1,0,1.97-.35,2.74-.99,1.61-1.33,2.89-3.12,3.22-4.82l3.73-18.99-11.37-2.8Z"/>
            <path class="cls-2" d="m139.47,89.58h-2.27v5.46h1.52c.49,0,.92-.34,1.03-.82l.75-3.36c.15-.66-.35-1.28-1.03-1.28Z"/>
            <path class="cls-8" d="m118.74,81.9l2.02,10.26.88-.61c.46-.32.71-.86.65-1.42l-1.17-11.45-1.17.6c-.93.47-1.43,1.5-1.23,2.53l.02.09Z"/>
            <path class="cls-8" d="m140.76,81.9l-2.02,10.26-.88-.61c-.46-.32-.71-.86-.65-1.42l1.17-11.45,1.17.6c.93.47,1.43,1.5,1.23,2.53l-.02.09Z"/>
            <path class="cls-8" d="m123.08,75.61h20.14v1.54c0,3.32-2.7,6.02-6.02,6.02h-16.73v-4.96c0-1.43,1.16-2.6,2.6-2.6Z"/>
            <path class="cls-8" d="m122.81,83.92c0,1.59-.72,2.88-1.61,2.88s-1.61-1.29-1.61-2.88.72-2.88,1.61-2.88,1.61,1.29,1.61,2.88Z"/>
            <path class="cls-8" d="m139.95,83.92c0,1.59-.72,2.88-1.61,2.88s-1.61-1.29-1.61-2.88.72-2.88,1.61-2.88,1.61,1.29,1.61,2.88Z"/>
            <polygon class="cls-9" points="129.77 108.38 129.77 125.47 126.89 125.47 127.19 123.62 129 112.62 128.27 111.63 127.58 110.7 127.64 110.64 129.46 108.71 129.57 108.59 129.77 108.38"/>
            <polygon class="cls-9" points="132.65 125.47 129.77 125.47 129.77 108.38 129.95 108.57 130.06 108.68 131.9 110.64 131.96 110.7 131.26 111.65 130.54 112.62 132.35 123.62 132.65 125.47"/>
            <polygon class="cls-5" points="122.31 110.64 125.24 106.11 130.06 108.37 127.33 113.31 122.31 110.64"/>
            <polygon class="cls-5" points="137.2 110.64 134.28 106.11 129.46 108.37 132.18 113.31 137.2 110.64"/>
          </g>
          <path class="cls-9" d="m108.32,98.26h-2.38v18.17h17.87v-2.38h-15.49v-15.79Zm-2.38-28.87v17.56h2.38v-15.18h15.49v-2.38h-17.87Zm44.65,44.65h-15.48v2.38h17.86v-18.17h-2.38v15.79Zm-15.48-44.65v2.38h15.48v15.18h2.38v-17.56h-17.86Z"/>
          <path class="cls-10" d="m118.52,149.53h-42.6c-1.03,0-1.87.84-1.87,1.87h0c0,1.03.84,1.87,1.87,1.87h42.6c1.03,0,1.87-.84,1.87-1.87h0c0-1.03-.84-1.87-1.87-1.87Z"/>
          <rect class="cls-3" x="32.22" y="60.77" width="45.7" height="4.4"/>
          <rect class="cls-3" x="32.22" y="68.07" width="45.7" height="4.4"/>
          <rect class="cls-3" x="32.22" y="75.37" width="45.7" height="4.4"/>
          <rect class="cls-3" x="32.22" y="82.66" width="45.7" height="4.4"/>
          <rect class="cls-3" x="32.22" y="89.96" width="45.7" height="4.4"/>
          <rect class="cls-3" x="32.22" y="97.25" width="45.7" height="4.4"/>
          <rect class="cls-3" x="32.22" y="104.55" width="45.7" height="4.4"/>
          <rect class="cls-3" x="32.22" y="111.85" width="45.7" height="4.4"/>
          <rect class="cls-3" x="32.22" y="119.14" width="45.7" height="4.4"/>
          <rect class="cls-3" x="79.69" y="60.77" width="11.55" height="4.4"/>
          <rect class="cls-3" x="79.69" y="68.07" width="11.55" height="4.4"/>
          <rect class="cls-3" x="79.69" y="75.37" width="11.55" height="4.4"/>
          <rect class="cls-3" x="79.69" y="82.66" width="11.55" height="4.4"/>
          <rect class="cls-3" x="79.69" y="89.96" width="11.55" height="4.4"/>
          <rect class="cls-3" x="79.69" y="97.25" width="11.55" height="4.4"/>
          <rect class="cls-3" x="79.69" y="104.55" width="11.55" height="4.4"/>
          <rect class="cls-3" x="79.69" y="111.85" width="11.55" height="4.4"/>
          <rect class="cls-3" x="79.69" y="119.14" width="11.55" height="4.4"/>
          <rect class="cls-10" x="97.22" y="127.74" width="65.07" height="4.32"/>
          <rect class="cls-3" x="97.22" y="127.74" width="15.16" height="4.32"/>
          <rect class="cls-3" x="32.22" y="127.74" width="59.14" height="4.32"/>
          <rect class="cls-10" x="29.32" y="51.58" width="11.1" height="3.38"/>
          <rect class="cls-10" x="151.2" y="51.58" width="11.1" height="3.38"/>
          <rect class="cls-10" x="51.41" y="51.58" width="82.89" height="3.38"/>
        </g>
        <g>
          <path class="cls-9" d="m102.82,51.58c0,16.32-7.55,30.87-19.34,40.32-7.66,6.14-17.11,10.13-27.44,11.05-1.34.12-2.7.19-4.07.2-.18,0-.36,0-.54,0h-.02c-.18,0-.37,0-.56,0-1.36-.01-2.7-.08-4.03-.2-10.35-.92-19.81-4.91-27.48-11.06C7.55,82.44,0,67.89,0,51.58,0,23.09,23.02,0,51.41,0s51.41,23.09,51.41,51.58Z"/>
          <g>
            <path class="cls-4" d="m50.91,72.99v24.5c-1.21,0-2.41-.07-3.6-.18-9.24-.82-17.69-4.37-24.54-9.85v-1.09c0-2.16,1.35-4.09,3.37-4.84l12.99-4.81,4.83-1.53,6.95-2.2Z"/>
            <path class="cls-4" d="m80.04,86.37v1.09c-6.84,5.46-15.28,9.01-24.5,9.84-1.2.11-2.41.17-3.63.18v-24.5l6.98,2.21,4.79,1.52,12.99,4.81c2.03.75,3.37,2.68,3.37,4.84Z"/>
            <rect class="cls-6" x="43.96" y="61.79" width="14.93" height="14.93"/>
            <path class="cls-2" d="m35.39,42h3.74v9h-2.5c-.81,0-1.51-.56-1.69-1.35l-1.24-5.53c-.24-1.08.58-2.11,1.69-2.11Z"/>
            <path class="cls-2" d="m51.41,21.73l-17.75,9.69,5.16,26.22c.58,2.94,2.9,5.84,5.92,8.16,1.21.93,2.71,1.41,4.24,1.41h5.19c1.65,0,3.25-.58,4.52-1.63,2.66-2.2,4.76-5.14,5.31-7.94l6.15-31.3-18.75-4.62Z"/>
            <path class="cls-2" d="m67.43,42h-3.74v9h2.5c.81,0,1.51-.56,1.69-1.35l1.24-5.53c.24-1.08-.58-2.11-1.69-2.11Z"/>
            <path class="cls-8" d="m33.25,29.34l3.33,16.91,1.45-1c.76-.52,1.17-1.42,1.08-2.34l-1.93-18.88-1.94.99c-1.53.78-2.35,2.48-2.02,4.16l.03.15Z"/>
            <path class="cls-8" d="m69.55,29.34l-3.33,16.91-1.45-1c-.76-.52-1.17-1.42-1.08-2.34l1.93-18.88,1.94.99c1.53.78,2.35,2.48,2.02,4.16l-.03.15Z"/>
            <path class="cls-8" d="m40.4,18.97h33.21v2.54c0,5.47-4.44,9.92-9.92,9.92h-27.57v-8.17c0-2.37,1.92-4.29,4.29-4.29Z"/>
            <ellipse class="cls-8" cx="37.29" cy="32.68" rx="2.66" ry="4.75"/>
            <path class="cls-8" d="m68.21,32.68c0,2.62-1.19,4.75-2.66,4.75s-2.66-2.13-2.66-4.75,1.19-4.75,2.66-4.75,2.66,2.13,2.66,4.75Z"/>
            <path class="cls-9" d="m51.43,72.99v24.5h-.02c-.16,0-.33,0-.5,0-1.21,0-2.41-.07-3.6-.18l2.85-17.33-1.21-1.63-1.13-1.52.1-.11,2.99-3.18.19-.2.33-.35Z"/>
            <path class="cls-9" d="m55.54,97.3c-1.2.11-2.41.17-3.63.18-.16,0-.32,0-.48,0v-24.5l.3.32.18.19,3.03,3.22.1.11-1.15,1.55-1.19,1.6,2.85,17.32Z"/>
            <polygon class="cls-5" points="39.13 76.72 43.96 69.25 51.91 72.99 47.41 81.13 39.13 76.72"/>
            <polygon class="cls-5" points="63.68 76.72 58.85 69.25 50.91 72.99 55.4 81.13 63.68 76.72"/>
          </g>
          <path class="cls-3" d="m26.47,59.59h-2.86v21.86h21.5v-2.86h-18.64v-19Zm-2.86-34.73v21.13h2.86v-18.27h18.64v-2.86h-21.5Zm53.73,53.73h-18.62v2.86h21.49v-21.86h-2.86v19Zm-18.62-53.73v2.86h18.62v18.27h2.86v-21.13h-21.49Z"/>
          <path class="cls-3" d="m43.48,37.79c0,.56-.46,1.02-1.02,1.02s-1.02-.46-1.02-1.02.46-1.02,1.02-1.02,1.02.46,1.02,1.02Z"/>
          <path class="cls-3" d="m52.68,40.98c0,.56-.46,1.02-1.02,1.02s-1.02-.46-1.02-1.02.46-1.02,1.02-1.02,1.02.46,1.02,1.02Z"/>
          <circle class="cls-3" cx="40.42" cy="49.03" r="1.02"/>
          <path class="cls-3" d="m50.04,50.05c0,.56-.46,1.02-1.02,1.02s-1.02-.46-1.02-1.02.46-1.02,1.02-1.02,1.02.46,1.02,1.02Z"/>
          <circle class="cls-3" cx="46.72" cy="62.74" r="1.02"/>
          <path class="cls-3" d="m58.09,62.74c0,.56-.46,1.02-1.02,1.02s-1.02-.46-1.02-1.02.46-1.02,1.02-1.02,1.02.46,1.02,1.02Z"/>
          <path class="cls-3" d="m52.93,57.65c0,.56-.46,1.02-1.02,1.02s-1.02-.46-1.02-1.02.46-1.02,1.02-1.02,1.02.46,1.02,1.02Z"/>
          <polyline class="cls-12" points="42.46 37.79 51.66 40.98 49.02 50.05 51.91 57.65 46.72 62.74 40.42 49.03 42.46 37.79 49.02 50.05"/>
          <path class="cls-3" d="m60.22,37.79c0,.56.46,1.02,1.02,1.02s1.02-.46,1.02-1.02-.46-1.02-1.02-1.02-1.02.46-1.02,1.02Z"/>
          <path class="cls-3" d="m62.26,49.03c0,.56.46,1.02,1.02,1.02s1.02-.46,1.02-1.02-.46-1.02-1.02-1.02-1.02.46-1.02,1.02Z"/>
          <circle class="cls-3" cx="54.68" cy="50.05" r="1.02"/>
          <polyline class="cls-12" points="61.24 37.79 63.28 49.03 56.98 62.74 51.79 57.65 54.68 50.05 52.04 40.98 61.24 37.79 54.68 50.05"/>
        </g>
        <g>
          <path class="cls-9" d="m182.18,139.78c0,6.19-2.86,11.7-7.33,15.28-2.9,2.33-6.49,3.84-10.4,4.19-.51.05-1.02.07-1.54.08-.07,0-.14,0-.2,0h0c-.07,0-.14,0-.21,0-.51,0-1.02-.03-1.53-.08-3.92-.35-7.51-1.86-10.42-4.19-4.47-3.58-7.33-9.1-7.33-15.28,0-10.8,8.72-19.55,19.49-19.55s19.49,8.75,19.49,19.55Z"/>
          <polyline class="cls-14" points="153.75 138.7 162.69 145.74 171.47 132.96"/>
        </g>
        <g>
          <path class="cls-9" d="m39.7,119.46c0,4.72-2.18,8.92-5.59,11.66-2.21,1.78-4.95,2.93-7.93,3.2-.39.04-.78.05-1.18.06-.05,0-.1,0-.16,0h0c-.05,0-.11,0-.16,0-.39,0-.78-.02-1.17-.06-2.99-.27-5.73-1.42-7.95-3.2-3.41-2.73-5.59-6.94-5.59-11.66,0-8.24,6.65-14.91,14.86-14.91s14.86,6.68,14.86,14.91Z"/>
          <path class="cls-3" d="m24.84,112.71l-6.39,2.09v5.95c0,4.13,3.45,6.57,6.39,7.48,2.94-.91,6.39-3.35,6.39-7.48v-5.95l-6.39-2.09Z"/>
          <path class="cls-9" d="m26.15,119.21v-.79c0-.72-.59-1.31-1.31-1.31s-1.31.59-1.31,1.31v.79h-.58v3.75h3.75v-3.75h-.56Zm-1.88-.79c0-.32.26-.58.58-.58s.58.26.58.58v.79h-1.15v-.79Z"/>
        </g>
        <g>
          <path class="cls-9" d="m181.78,48.95c0,6.19-2.86,11.7-7.33,15.28-2.9,2.33-6.49,3.84-10.4,4.19-.51.05-1.02.07-1.54.08-.07,0-.14,0-.2,0h0c-.07,0-.14,0-.21,0-.51,0-1.02-.03-1.53-.08-3.92-.35-7.51-1.86-10.42-4.19-4.47-3.58-7.33-9.1-7.33-15.28,0-10.8,8.72-19.55,19.49-19.55s19.49,8.75,19.49,19.55Z"/>
          <circle class="cls-14" cx="164.62" cy="45.62" r="8.04" transform="translate(27.8 147.9) rotate(-52.27)"/>
          <line class="cls-13" x1="152.37" y1="58.63" x2="159.16" y2="51.85"/>
        </g>
        <g>
          <path class="cls-9" d="m81.75,140.45c0,6.19-2.86,11.7-7.33,15.28-2.9,2.33-6.49,3.84-10.4,4.19-.51.05-1.02.07-1.54.08-.07,0-.14,0-.2,0h0c-.07,0-.14,0-.21,0-.51,0-1.02-.03-1.53-.08-3.92-.35-7.51-1.86-10.42-4.19-4.47-3.58-7.33-9.1-7.33-15.28,0-10.8,8.72-19.55,19.49-19.55s19.49,8.75,19.49,19.55Z"/>
          <g>
            <rect class="cls-3" x="56.27" y="137.22" width="11.99" height="11.99"/>
            <rect class="cls-11" x="59.29" y="131.69" width="6.02" height="10.66" rx="3.01" ry="3.01"/>
          </g>
          <path class="cls-9" d="m63.44,142.35c0,.63-.51,1.15-1.15,1.15s-1.15-.51-1.15-1.15.51-1.15,1.15-1.15,1.15.51,1.15,1.15Z"/>
          <path class="cls-9" d="m62.26,145.14h0c-.24,0-.44-.2-.44-.44v-1.94c0-.24.2-.44.44-.44h0c.24,0,.44.2.44.44v1.94c0,.24-.2.44-.44.44Z"/>
        </g>
      </g>
    </g>
  </g>
</svg>