<svg xmlns="http://www.w3.org/2000/svg" xmlns:xlink="http://www.w3.org/1999/xlink" width="85" height="480" viewBox="0 0 85 480">
  <defs>
    <linearGradient id="linear-gradient" y1="0.5" x2="1" y2="0.5" gradientUnits="objectBoundingBox">
      <stop offset="0" stop-color="#ff6df7"/>
      <stop offset="0.646" stop-color="#b47efb"/>
      <stop offset="1" stop-color="#6b8eff"/>
    </linearGradient>
    <clipPath id="clip-path">
      <rect id="長方形_267" data-name="長方形 267" width="26.477" height="361.533" fill="none"/>
    </clipPath>
  </defs>
  <g id="グループ_834" data-name="グループ 834" transform="translate(-1281 -124.5)">
    <path id="長方形_3" data-name="長方形 3" d="M20,0H460a20,20,0,0,1,20,20V85a0,0,0,0,1,0,0H0a0,0,0,0,1,0,0V20A20,20,0,0,1,20,0Z" transform="translate(1281 604.5) rotate(-90)" fill="url(#linear-gradient)"/>
    <g id="グループ_833" data-name="グループ 833" transform="translate(1310.261 183.733)">
      <g id="グループ_832" data-name="グループ 832" clip-path="url(#clip-path)">
        <path id="パス_1257" data-name="パス 1257" d="M5.391,18.571,1.7,18.624a.431.431,0,0,1-.273-.054.5.5,0,0,1-.04-.245v-1.97c0-.147.016-.233.054-.261a.547.547,0,0,1,.259-.037l2.941.051V12.32H3.82l-3.447.07Q.1,12.39.1,12.075V10.037c0-.208.091-.313.273-.313l3.447.051H4.64v-2.8A18.488,18.488,0,0,1,3.232,8.315a1.531,1.531,0,0,1-.644.369c-.117,0-.322-.187-.614-.563A6.245,6.245,0,0,0,.716,6.891a15.764,15.764,0,0,0,4.869-5.21A9.4,9.4,0,0,0,6.281,0,14.793,14.793,0,0,1,8.689.7c.264.1.4.219.4.355a.472.472,0,0,1-.261.4,3.308,3.308,0,0,0-.642.822q-.508.805-.917,1.393H19.984l3.83-.051c.163,0,.259.016.287.051a.4.4,0,0,1,.056.261V5.936c0,.135-.023.217-.07.243a.523.523,0,0,1-.273.044c-.028,0-.142-.007-.341-.016-.668-.019-1.4-.033-2.2-.04V9.776h.453l3.431-.051c.191,0,.287.105.287.313v2.038q0,.315-.287.315l-3.431-.07H21.27v3.788l2.8-.051c.147,0,.233.016.261.051a.506.506,0,0,1,.04.247v1.97a.422.422,0,0,1-.047.252c-.033.035-.117.047-.254.047l-3.706-.054Zm-1.6.957c.054-.154.124-.231.205-.231a1.314,1.314,0,0,1,.355.107l1.627.684c.21.091.315.184.315.275a.8.8,0,0,1-.068.217,18.057,18.057,0,0,1-3.31,4.913.33.33,0,0,1-.247.161.94.94,0,0,1-.341-.161L.742,24.4q-.273-.165-.273-.315a.47.47,0,0,1,.152-.243,14.235,14.235,0,0,0,3.172-4.311M7.212,9.776H9.373V6.168H7.212Zm0,6.332H9.373V12.32H7.212Zm3.158,3.858h.205q.221,0,.273.287a27.289,27.289,0,0,1,.644,4.652.411.411,0,0,1,.014.107c0,.163-.128.259-.383.287l-2.012.163c-.119.009-.2.016-.245.016-.156,0-.233-.1-.233-.3a23.7,23.7,0,0,0-.478-4.621,1.414,1.414,0,0,1-.014-.166c0-.145.147-.226.439-.243Zm1.438-10.19h2.215V6.168H11.808Zm0,6.332h2.215V12.32H11.808Zm4.554,3.954A24.393,24.393,0,0,1,17.8,24.508a1.066,1.066,0,0,1,.028.189c0,.119-.124.208-.371.259l-1.982.4a2.015,2.015,0,0,1-.315.044c-.11,0-.182-.093-.219-.275a24.26,24.26,0,0,0-1.176-4.5.86.86,0,0,1-.04-.208c0-.089.124-.163.369-.219l1.737-.369a1.607,1.607,0,0,1,.247-.028c.117,0,.212.086.287.261m.1-10.286H18.7V6.168H16.457Zm0,6.332H18.7V12.32H16.457Zm5.319,3.338A23.06,23.06,0,0,1,24.8,23.864a.483.483,0,0,1,.082.205c0,.082-.114.182-.341.3l-1.765.985a.808.808,0,0,1-.3.1c-.082,0-.163-.072-.247-.217A27.885,27.885,0,0,0,19.4,20.555a.384.384,0,0,1-.1-.191c0-.065.105-.147.315-.247l1.545-.763a.75.75,0,0,1,.315-.112c.082,0,.182.068.3.205" transform="translate(0.133 0.001)" fill="#fff"/>
        <path id="パス_1258" data-name="パス 1258" d="M4.922,12.149q1.519.039,2.845.191c.3.026.45.121.45.287a1.654,1.654,0,0,1-.177.588,10.517,10.517,0,0,0-.191,2.817V21.3h.219l3.023-.056q.231,0,.273.056a.5.5,0,0,1,.04.259v1.984c0,.191-.1.287-.313.287l-2.845-.056a26.558,26.558,0,0,0,3.774,4.841A8.412,8.412,0,0,0,10.9,30.46c-.166.338-.3.506-.4.506s-.247-.14-.439-.422A23.511,23.511,0,0,1,7.8,26.536l.191,10.982q0,.217-.07.273a.491.491,0,0,1-.259.042H5.347c-.147,0-.233-.019-.261-.056a.531.531,0,0,1-.04-.259c0-.072.014-.635.04-1.683q.112-4.856.152-8.589A26.679,26.679,0,0,1,1.846,33.62c-.238.3-.406.45-.506.45-.119,0-.229-.159-.329-.478A6.14,6.14,0,0,0,0,31.554a24.152,24.152,0,0,0,4.512-7.782h-.5l-3.051.056q-.315,0-.315-.287V21.558c0-.154.019-.247.056-.273a.491.491,0,0,1,.259-.042l3.051.056H5.156V16.1a29.4,29.4,0,0,0-.233-3.952M2.967,14.364a23.194,23.194,0,0,1,1.505,4.705.537.537,0,0,1,.026.149c0,.138-.126.254-.383.355l-1.2.453a1.34,1.34,0,0,1-.343.1c-.082,0-.135-.091-.163-.273A21.593,21.593,0,0,0,.985,15.172a.625.625,0,0,1-.056-.219c0-.1.119-.2.355-.287l1.176-.478a.8.8,0,0,1,.275-.082q.109,0,.231.259m5.4,4.979a24.692,24.692,0,0,0,1.284-4.227,9.523,9.523,0,0,0,.18-1.2q1.667.56,2.119.78c.21.107.315.222.315.341a.281.281,0,0,1-.166.273,1.111,1.111,0,0,0-.341.63,35.8,35.8,0,0,1-1.286,3.555c-.163.392-.306.588-.425.588a1.53,1.53,0,0,1-.56-.259,7.628,7.628,0,0,0-1.12-.478m7.18,9.3,4.281-.833V16.593A30.638,30.638,0,0,0,19.6,12.34q1.642.039,2.983.191c.282.035.422.14.422.315a2.328,2.328,0,0,1-.177.56,14.626,14.626,0,0,0-.163,3.1V27.246c.693-.145,1.307-.287,1.846-.422.091-.019.245-.061.464-.124.1-.019.168-.033.205-.042a.882.882,0,0,1,.149-.026c.075,0,.128.1.166.3l.327,2.187c.009.072.014.119.014.138,0,.1-.1.163-.287.191-.054.019-.35.077-.889.177-.647.119-1.312.245-2,.383v2.612l.054,4.841a.452.452,0,0,1-.054.275.543.543,0,0,1-.261.04H20.075c-.145,0-.231-.023-.259-.068a.423.423,0,0,1-.042-.247l.056-4.813v-2.08l-3.844.766q-1.572.3-2.721.549c-.163.026-.378.068-.642.121-.119.028-.2.047-.247.056a.9.9,0,0,1-.177.028c-.11,0-.173-.084-.191-.247l-.355-2.215a1.113,1.113,0,0,1-.028-.191c0-.082.091-.142.273-.177.047-.009.224-.037.534-.082q1.355-.193,3.118-.534m-1.354-8a18.768,18.768,0,0,1,3.87,3.583.544.544,0,0,1,.138.261c0,.063-.075.173-.219.327L16.6,26.179c-.154.147-.264.219-.329.219s-.131-.054-.231-.163a23.085,23.085,0,0,0-3.692-3.8,1.046,1.046,0,0,1-.191-.233q0-.081.217-.3l1.286-1.23c.128-.138.215-.205.261-.205s.135.061.273.177m.752-6.482A19.053,19.053,0,0,1,18.9,17.727a.34.34,0,0,1,.124.233c0,.072-.068.173-.205.3l-1.34,1.312c-.173.166-.287.247-.343.247s-.117-.056-.191-.166a19.245,19.245,0,0,0-3.814-3.678c-.1-.063-.152-.131-.152-.205a.474.474,0,0,1,.205-.313l1.23-1.176c.166-.147.271-.219.315-.219a.431.431,0,0,1,.219.1" transform="translate(0 16.207)" fill="#fff"/>
        <path id="パス_1259" data-name="パス 1259" d="M9.583,30.642q.179-2.01.205-3.774a11.337,11.337,0,0,0-.205-2.215,21.048,21.048,0,0,1,3.639.588.587.587,0,0,1,.478.586,1.253,1.253,0,0,1-.138.534,3.156,3.156,0,0,0-.369,1.314q-.014.273-.11,1.379c-.037.539-.082,1.057-.138,1.559H17.2l3.9-.054c.392,0,.588.128.588.383q0,.014-.11,2.981a41.607,41.607,0,0,1-1.041,9.205,6.007,6.007,0,0,1-1.3,2.651,4.018,4.018,0,0,1-2.012,1.137,11.377,11.377,0,0,1-2.817.3.67.67,0,0,1-.67-.562,6.346,6.346,0,0,0-1.627-2.544c.483.019.9.028,1.244.028a9.1,9.1,0,0,0,2.558-.273,1.744,1.744,0,0,0,.929-.67,4.183,4.183,0,0,0,.534-1.3,41.9,41.9,0,0,0,.833-8.4H12.55a21.122,21.122,0,0,1-2.488,7.754,17.488,17.488,0,0,1-5.935,5.772,1.257,1.257,0,0,1-.642.217.72.72,0,0,1-.534-.273A6.781,6.781,0,0,0,.6,45.344a16.4,16.4,0,0,0,6.58-5.716A16.677,16.677,0,0,0,9.2,33.583H6.67q-1.845,0-4.022.149H2.581c-.21,0-.329-.159-.355-.478a26.316,26.316,0,0,1-.233-2.721q1.765.109,4.649.11Z" transform="translate(0.796 32.888)" fill="#fff"/>
        <path id="パス_1260" data-name="パス 1260" d="M12.372,41.278h3.746a4.618,4.618,0,0,0,2.108-.313.6.6,0,0,1,.383-.135.878.878,0,0,1,.628.285,11.644,11.644,0,0,1,1.874,1.725.614.614,0,0,1,.191.425.966.966,0,0,1-.287.614,3.761,3.761,0,0,0-.6,1.379,32.608,32.608,0,0,1-3.541,8.232,20.352,20.352,0,0,1-3.405,3.98A22.866,22.866,0,0,1,9.65,60.356a.828.828,0,0,1-.45.163,1.152,1.152,0,0,1-.588-.287A10.356,10.356,0,0,0,5.82,58.974a26.923,26.923,0,0,0,5.035-3.457A18.347,18.347,0,0,0,13.821,52a23.656,23.656,0,0,0,3.256-7.81H4.891v2.353c0,.464.014,1.069.04,1.807.028.92.042,1.447.042,1.587a.691.691,0,0,1-.1.448.551.551,0,0,1-.355.084c-.411.028-.84.04-1.286.04s-.875-.012-1.286-.04c-.3,0-.45-.14-.45-.425q.053-2.86.054-3.471V44.3q0-1.9-.054-2.71v-.056c0-.21.131-.31.4-.31q2,.077,4.253.079H9.009V40.213a17.209,17.209,0,0,0-.275-3.72,30.759,30.759,0,0,1,3.461.408c.4.082.6.254.6.523a.8.8,0,0,1-.1.352,6.551,6.551,0,0,0-.329,2.161Z" transform="translate(2.001 48.683)" fill="#fff"/>
        <path id="パス_1261" data-name="パス 1261" d="M1.1,52.1q.7-.847,1.956-2.189a.516.516,0,0,1,.4-.219.884.884,0,0,1,.369.138,25.292,25.292,0,0,1,5.347,3.98.667.667,0,0,1,.247.4.616.616,0,0,1-.163.355A27.27,27.27,0,0,1,7.515,56.67c-.154.145-.268.217-.341.217a.6.6,0,0,1-.355-.217A28.879,28.879,0,0,0,1.1,52.1m.616,13.976a20.49,20.49,0,0,0,3.788-1.4q2.706-1.407,4.5-2.584,1.572-1.026,3.555-2.626a58.458,58.458,0,0,0,4.472-3.94,42.366,42.366,0,0,0,3.214-3.678,13.205,13.205,0,0,0,.78,3.27,1.473,1.473,0,0,1,.138.532,1.53,1.53,0,0,1-.453.847,43.124,43.124,0,0,1-6.44,5.935,64.625,64.625,0,0,1-8.452,5.485,10.828,10.828,0,0,0-1.874,1.3.8.8,0,0,1-.506.273.7.7,0,0,1-.478-.3,18.516,18.516,0,0,1-2.243-3.118" transform="translate(1.469 66.294)" fill="#fff"/>
        <path id="パス_1262" data-name="パス 1262" d="M7.814,68.662V65.969a26.508,26.508,0,0,0-.369-4.939,19.6,19.6,0,0,1,3.625.563q.532.123.532.5a.828.828,0,0,1-.163.453,5.821,5.821,0,0,0-.369,2.488v2.887l7.3-1.711a5.162,5.162,0,0,0,2-.808.636.636,0,0,1,.383-.163.655.655,0,0,1,.4.163,9.622,9.622,0,0,1,2.08,1.821.753.753,0,0,1,.245.506.741.741,0,0,1-.369.56,4.516,4.516,0,0,0-.861,1.095,30.152,30.152,0,0,1-4.46,6.043,1.116,1.116,0,0,1-.724.425.936.936,0,0,1-.534-.191A9.579,9.579,0,0,0,14.2,74.6a24.012,24.012,0,0,0,4.568-5.606l-7.7,1.956v6.358a1.613,1.613,0,0,0,.738,1.6,7.022,7.022,0,0,0,2.789.369,39.1,39.1,0,0,0,6.783-.616.605.605,0,0,1,.11-.014q.287,0,.371.574a13.47,13.47,0,0,1,.245,2.353c0,.257-.2.392-.588.411a57.319,57.319,0,0,1-6.687.343q-4.268,0-5.73-1.2-1.285-1.068-1.286-3.734V71.739l-1.793.478a30.829,30.829,0,0,0-3.952,1.2,1.548,1.548,0,0,1-.329.11c-.163,0-.313-.152-.45-.45A21.091,21.091,0,0,1,.17,70.221a44.815,44.815,0,0,0,5.263-.971Z" transform="translate(0.227 81.416)" fill="#fff"/>
        <path id="パス_1263" data-name="パス 1263" d="M2.537,73.211a23.047,23.047,0,0,1,3.487.588c.32.084.478.233.478.453a1.191,1.191,0,0,1-.124.422,7.47,7.47,0,0,0-.3,2.654v5.662q0,.518.065,3.529c0,.373-.2.56-.6.56H3.289c-.345,0-.518-.138-.518-.411V86.6l.079-3.816V77.3a20.918,20.918,0,0,0-.313-4.089M3.961,94.164q4.719-1.449,6.822-4.089,1.887-2.325,1.886-7.481V77.3a24.925,24.925,0,0,0-.31-4.568,18.227,18.227,0,0,1,3.65.616.479.479,0,0,1,.38.478.871.871,0,0,1-.11.45,10.95,10.95,0,0,0-.245,3.051v5.212a21.889,21.889,0,0,1-.6,5.592,10.243,10.243,0,0,1-1.683,3.543,12.1,12.1,0,0,1-2.927,2.707A14.866,14.866,0,0,1,7.6,96.078a1.847,1.847,0,0,1-.591.138.931.931,0,0,1-.668-.343,9.472,9.472,0,0,0-2.381-1.709" transform="translate(3.384 97.029)" fill="#fff"/>
        <path id="パス_1264" data-name="パス 1264" d="M1.1,88.1q.7-.847,1.956-2.189a.516.516,0,0,1,.4-.219.884.884,0,0,1,.369.138,25.292,25.292,0,0,1,5.347,3.98.667.667,0,0,1,.247.4.616.616,0,0,1-.163.355A27.268,27.268,0,0,1,7.515,92.67c-.154.145-.268.217-.341.217a.6.6,0,0,1-.355-.217A28.879,28.879,0,0,0,1.1,88.1m.616,13.976a20.491,20.491,0,0,0,3.788-1.4q2.706-1.407,4.5-2.584,1.572-1.026,3.555-2.626a58.457,58.457,0,0,0,4.472-3.94,42.366,42.366,0,0,0,3.214-3.678,13.205,13.205,0,0,0,.78,3.27,1.473,1.473,0,0,1,.138.532,1.53,1.53,0,0,1-.453.847,43.124,43.124,0,0,1-6.44,5.935,64.625,64.625,0,0,1-8.452,5.485,10.831,10.831,0,0,0-1.874,1.3.8.8,0,0,1-.506.273.7.7,0,0,1-.478-.3,18.516,18.516,0,0,1-2.243-3.118" transform="translate(1.469 114.319)" fill="#fff"/>
        <path id="パス_1265" data-name="パス 1265" d="M11.457,101.946l5.032-.11a2.915,2.915,0,0,0,1.407-.343.551.551,0,0,1,.35-.11.859.859,0,0,1,.457.166,12.559,12.559,0,0,1,1.9,1.517.876.876,0,0,1,.369.642.792.792,0,0,1-.343.588,3.55,3.55,0,0,0-.915,1.2,39.144,39.144,0,0,1-5.553,8.657,36.007,36.007,0,0,1-4.418,4.171,29.474,29.474,0,0,1-4.089,2.8.84.84,0,0,1-.45.138.981.981,0,0,1-.642-.315A7.683,7.683,0,0,0,1.9,119.668a40.415,40.415,0,0,0,5.567-3.583,33.5,33.5,0,0,0,3.76-3.555,29.941,29.941,0,0,0,2.955-3.8,38.264,38.264,0,0,0,2.229-4.157l-6.783.205a43.561,43.561,0,0,1-5.294,5.73.849.849,0,0,1-.588.313.655.655,0,0,1-.411-.163,6.947,6.947,0,0,0-2.693-1.2,34.929,34.929,0,0,0,7.534-8.314A13.954,13.954,0,0,0,9.828,97.35a13.651,13.651,0,0,1,3.27,1.491.52.52,0,0,1-.028.943,4.33,4.33,0,0,0-.7.752c-.2.322-.506.789-.915,1.41m7.028-2.859,1.477-1.039a.258.258,0,0,1,.166-.07.453.453,0,0,1,.259.126,11.8,11.8,0,0,1,2.654,2.992.41.41,0,0,1,.082.205.3.3,0,0,1-.166.247l-1.174.875a.407.407,0,0,1-.219.082.338.338,0,0,1-.261-.177,14.368,14.368,0,0,0-2.817-3.242m2.572-1.846,1.4-1.013a.369.369,0,0,1,.177-.068.443.443,0,0,1,.245.124,10.914,10.914,0,0,1,2.668,2.885.435.435,0,0,1,.082.233.346.346,0,0,1-.163.275l-1.123.859a.374.374,0,0,1-.231.1.3.3,0,0,1-.247-.177,13.3,13.3,0,0,0-2.8-3.214" transform="translate(0.852 128.281)" fill="#fff"/>
        <path id="パス_1266" data-name="パス 1266" d="M2.419,108.869a18.714,18.714,0,0,1,3.186,1c.282.156.425.343.425.562a1.5,1.5,0,0,1-.191.614,6.374,6.374,0,0,0-.506,1.545,50.752,50.752,0,0,0-1.4,10.2q0,2.409.082,3.585.207-.466.917-2.038c.336-.74.612-1.361.819-1.86a8.345,8.345,0,0,0,.985,1.765.639.639,0,0,1,.166.394.886.886,0,0,1-.166.453A17.216,17.216,0,0,0,5.3,129.341a6.349,6.349,0,0,0-.068.861c0,.163.014.373.04.63v.054c0,.128-.112.229-.341.3a11.4,11.4,0,0,1-2.094.478.786.786,0,0,1-.217.042c-.138,0-.252-.124-.343-.369a24.151,24.151,0,0,1-1.2-8.55,72.7,72.7,0,0,1,1.148-10.625,19.253,19.253,0,0,0,.231-2.516,7.21,7.21,0,0,0-.04-.78M15.356,123.76q-.056-2.311-.11-6.414-1.971.07-3.079.07-1.5,0-2.693-.082c-.31,0-.474-.124-.492-.371a15.04,15.04,0,0,1-.205-2.556q1.863.175,3.734.177,1.313,0,2.654-.1l-.028-2.941a12.461,12.461,0,0,0-.369-2.735,18.336,18.336,0,0,1,3.391.52c.336.1.506.259.506.478a1.878,1.878,0,0,1-.166.478,3.268,3.268,0,0,0-.231.985q-.056.942-.056,2.967,1.873-.165,3.98-.5a.772.772,0,0,1,.18-.028c.135,0,.226.119.273.355a9.849,9.849,0,0,1,.163,2,.369.369,0,0,1-.315.422,27.545,27.545,0,0,1-4.306.588q0,4.131.2,7.509a19.017,19.017,0,0,1,4.652,2.679q.217.151.217.287a.8.8,0,0,1-.082.275,15.738,15.738,0,0,1-1.286,2.159.368.368,0,0,1-.259.166.379.379,0,0,1-.245-.138,17.314,17.314,0,0,0-3.023-2.243q-.357,3.638-5.128,3.639a5.644,5.644,0,0,1-3.886-1.19,3.708,3.708,0,0,1,.439-5.7,5.567,5.567,0,0,1,3.338-.971,11.3,11.3,0,0,1,2.229.217m.068,2.668a8.028,8.028,0,0,0-2.434-.369q-2.108,0-2.105,1.34,0,1.407,2.269,1.41a2.485,2.485,0,0,0,1.751-.6,1.6,1.6,0,0,0,.548-1.218,4.564,4.564,0,0,0-.028-.56" transform="translate(1.439 145.161)" fill="#fff"/>
        <path id="パス_1267" data-name="パス 1267" d="M3.106,132.083q1.082.546,2.161,1.123c.147.082.219.173.219.273a.484.484,0,0,1-.082.231,3.935,3.935,0,0,0-.74,2.133q0,1.439,1.739,2.052a15.49,15.49,0,0,0,4.911.574,35.652,35.652,0,0,0,7.588-.805,1.4,1.4,0,0,1,.245-.028.329.329,0,0,1,.343.287,15.781,15.781,0,0,1,.45,2.736v.054c0,.191-.159.315-.478.371a47.026,47.026,0,0,1-8.356.67q-4.979,0-7.4-1.655a4.594,4.594,0,0,1-2.091-4.008,7.79,7.79,0,0,1,1.489-4.008M3.725,121.5a35.079,35.079,0,0,0,7.861.726q1.929,0,5.935-.247H17.6a.317.317,0,0,1,.343.315,18.858,18.858,0,0,1,.135,2.378c0,.366-.159.563-.478.588a17.6,17.6,0,0,0-6.85,2.778,1.2,1.2,0,0,1-.71.245,1.222,1.222,0,0,1-.591-.163,6.579,6.579,0,0,0-1.956-.9q2.286-1.491,3.667-2.325a20.564,20.564,0,0,1-2.3.082,27.825,27.825,0,0,1-4.9-.478.459.459,0,0,1-.369-.511c0-.289.042-1.116.126-2.483" transform="translate(2.157 162.083)" fill="#fff"/>
        <path id="パス_1268" data-name="パス 1268" d="M6.746,137.74q.123-.781.341-2.572c.047-.509.07-.952.07-1.326a7.763,7.763,0,0,0-.124-1.4,19.28,19.28,0,0,1,3.363.588c.376.119.563.287.563.506a.825.825,0,0,1-.191.453,2.218,2.218,0,0,0-.478,1.025q-.287,1.558-.4,2.3a44.29,44.29,0,0,0,5.266-1.039,1.238,1.238,0,0,1,.3-.054c.156,0,.252.112.287.341a12.267,12.267,0,0,1,.194,2.066.4.4,0,0,1-.343.45q-3.624.809-6.265,1.148-.56,3.351-1.284,6.169a11.817,11.817,0,0,1,8.027-2.967,6.445,6.445,0,0,1,4.731,1.762,4.751,4.751,0,0,1,1.519,3.529,6.376,6.376,0,0,1-3.2,5.662,18.976,18.976,0,0,1-7.14,2.243,13.844,13.844,0,0,1-2.066.191c-.282,0-.513-.224-.7-.67a5.791,5.791,0,0,0-1.519-2,36.127,36.127,0,0,0,4.95-.56,18.486,18.486,0,0,0,3.09-.971q3.189-1.327,3.188-3.952a2.429,2.429,0,0,0-.9-1.984A3.572,3.572,0,0,0,15.744,146a9.617,9.617,0,0,0-4.484,1.081,8.5,8.5,0,0,0-2.887,2.392l-.78,1.067c-.173.282-.327.425-.464.425H7.061a6.687,6.687,0,0,1-2.108-.616c-.408-.182-.614-.369-.614-.56a1.781,1.781,0,0,1,.11-.56c.091-.32.212-.761.369-1.326q.739-2.941,1.491-7.331-3.421.245-4.705.245a.478.478,0,0,1-.534-.4,22.067,22.067,0,0,1-.4-2.434q2.846,0,6.073-.245" transform="translate(0.898 176.688)" fill="#fff"/>
        <path id="パス_1269" data-name="パス 1269" d="M2.849,150.606a16.534,16.534,0,0,1,2.913,1.013c.3.135.453.313.453.532a.86.86,0,0,1-.138.425,5.32,5.32,0,0,0-.56,1.477,42.578,42.578,0,0,0-.684,5.1A15.957,15.957,0,0,1,9.522,155.8a11.12,11.12,0,0,1,4.677-1.081,6.565,6.565,0,0,1,5.007,1.86,5.72,5.72,0,0,1,1.517,4.129q0,4.159-4.225,6.279a22.524,22.524,0,0,1-7.18,1.928,3.636,3.636,0,0,1-.439.04.762.762,0,0,1-.684-.4,7.643,7.643,0,0,0-1.9-2.378A22.529,22.529,0,0,0,14,164.61q3.308-1.421,3.307-4.225a2.677,2.677,0,0,0-.887-2.122,3.686,3.686,0,0,0-2.476-.766A8.735,8.735,0,0,0,9.7,158.784a17.3,17.3,0,0,0-3.83,2.967,8.592,8.592,0,0,0-1.2,1.547.416.416,0,0,1-.341.245,1.409,1.409,0,0,1-.3-.054,16.21,16.21,0,0,1-1.9-.754.555.555,0,0,1-.4-.56q.217-4.226.861-9.04a23.609,23.609,0,0,0,.259-2.53m1.956-3.884a15.714,15.714,0,0,1,1.655-2.187.516.516,0,0,1,.355-.18.621.621,0,0,1,.177.028,18.993,18.993,0,0,1,5.5,3.338.443.443,0,0,1,.191.313.812.812,0,0,1-.138.329,15.291,15.291,0,0,1-1.435,1.97c-.119.145-.219.219-.3.219a.529.529,0,0,1-.341-.191,22.148,22.148,0,0,0-5.662-3.639" transform="translate(2.307 192.575)" fill="#fff"/>
      </g>
    </g>
  </g>
</svg>
