<svg xmlns="http://www.w3.org/2000/svg" width="172.381" height="92.121" viewBox="0 0 172.381 92.121">
  <g id="グループ_838" data-name="グループ 838" transform="translate(-484 -7174.36)">
    <path id="パス_1383" data-name="パス 1383" d="M426.132,694.737H254.249a.325.325,0,0,1,0-.632H426.132a.325.325,0,0,1,0,.632Z" transform="translate(230 6570.533)" fill="#ccc"/>
    <path id="パス_1384" data-name="パス 1384" d="M594.556,521.7h-128.3a2.054,2.054,0,0,0,0,4.108h3.634V574.95a2.054,2.054,0,1,0,4.108,0l.031-49.139H586.5V574.95a2.054,2.054,0,1,0,4.108,0V526.894l.6-1.083h3.353a2.054,2.054,0,0,0,0-4.108Z" transform="translate(39.927 6688.455)" fill="#ccc"/>
    <path id="パス_1385" data-name="パス 1385" d="M605.531,466.505H566.669a2.842,2.842,0,0,1-2.838-2.838v-21.4a2.841,2.841,0,0,1,2.838-2.838h38.863a2.841,2.841,0,0,1,2.838,2.838v21.4A2.842,2.842,0,0,1,605.531,466.505Z" transform="translate(-28.217 6744.728)" fill="#3f3d56"/>
    <path id="パス_1386" data-name="パス 1386" d="M610.26,446.345H571.4a.656.656,0,0,0-.654.654v21.4a.656.656,0,0,0,.654.654H610.26a.655.655,0,0,0,.654-.654V447A.655.655,0,0,0,610.26,446.345Z" transform="translate(-32.945 6740)" fill="#fff"/>
    <path id="パス_1387" data-name="パス 1387" d="M627.775,493.651s-4.652-1.072-7.211.893,3.257,6.432,3.257,6.432Z" transform="translate(-66.578 6707.841)" fill="#2f2e41"/>
    <circle id="楕円形_64" data-name="楕円形 64" cx="4.388" cy="4.388" r="4.388" transform="translate(553.722 7190.69)" fill="#a0616a"/>
    <path id="パス_1388" data-name="パス 1388" d="M618.971,451.158a3.128,3.128,0,0,1,2.884-1.534,6.128,6.128,0,0,1,1.743.488l2.869,1.119a2.325,2.325,0,0,1,1.728,3.535l-1.073,3.348a10.2,10.2,0,0,0-.608-2.211,3.424,3.424,0,0,0-1.487-1.7,4.848,4.848,0,0,0-2.46-.334,4.916,4.916,0,0,0-3.315,1.043,3.442,3.442,0,0,0-.873,1.706,10.259,10.259,0,0,0-.183,1.931,16,16,0,0,1-1.223-2.621,6.488,6.488,0,0,1-.454-2.122,2.985,2.985,0,0,1,.684-2.018,1.958,1.958,0,0,1,1.969-.62Z" transform="translate(-64.253 6737.76)" fill="#2f2e41"/>
    <path id="パス_1389" data-name="パス 1389" d="M623.895,496.883a.781.781,0,0,0-.654-.566l-.032-.019-6.551-3.671a.833.833,0,0,0-1.115.287l-1.792,2.9-2.7-2.7-.043-.043a.833.833,0,0,0-1.067-.093l-5.384,3.77c-.009,0-.019,0-.028,0a1.148,1.148,0,0,0-.958,1.071l-.139,2.809h21.5Z" transform="translate(-55.305 6708.416)" fill="#a981fc"/>
    <path id="パス_1390" data-name="パス 1390" d="M605.026,515.869h-4.149a.437.437,0,0,0-.437-.437h-1.31a.437.437,0,0,0-.437.437h-1.31a.437.437,0,0,0-.437-.437h-1.31a.437.437,0,0,0-.437.437h-1.31a.437.437,0,0,0-.437-.437h-1.31a.437.437,0,0,0-.437.437H590.4a.437.437,0,0,0-.437-.437h-1.31a.437.437,0,0,0-.437.437H586.9a.437.437,0,0,0-.437-.437h-1.31a.437.437,0,0,0-.437.437h-1.31a.437.437,0,0,0-.437-.437h-1.31a.437.437,0,0,0-.437.437h-1.31a.437.437,0,0,0-.437-.437h-1.31a.437.437,0,0,0-.437.437h-1.31a.437.437,0,0,0-.437-.437h-1.31a.437.437,0,0,0-.437.437h-1.31a.437.437,0,0,0-.437-.437h-1.31a.437.437,0,0,0-.437.437h-1.31a.437.437,0,0,0-.437-.437h-1.31a.437.437,0,0,0-.437.437h-1.31a.437.437,0,0,0-.437-.437H564.2a.437.437,0,0,0-.437.437h-4.148a1.31,1.31,0,1,0,0,2.62h45.413a1.31,1.31,0,1,0,0-2.62Z" transform="translate(-24.437 6692.744)" fill="#3f3d56"/>
    <path id="パス_1391" data-name="パス 1391" d="M484.162,492.734v8.7H462.37a4.352,4.352,0,1,1,0-8.7Z" transform="translate(44.262 6708.271)" fill="#f2f2f2"/>
    <path id="パス_1392" data-name="パス 1392" d="M483.684,500.937a.335.335,0,0,1-.335.335H460.968a4.583,4.583,0,1,1,0-9.167h22.381a.335.335,0,1,1,0,.669H460.968a3.914,3.914,0,1,0,0,7.828h22.381A.335.335,0,0,1,483.684,500.937Z" transform="translate(45.275 6708.7)" fill="#a981fc"/>
    <path id="パス_1393" data-name="パス 1393" d="M490.245,498.8H466.826a.067.067,0,0,1,0-.134h23.418a.067.067,0,0,1,0,.134Z" transform="translate(38.179 6704.21)" fill="#ccc"/>
    <path id="パス_1394" data-name="パス 1394" d="M490.245,503.884H466.826a.067.067,0,0,1,0-.134h23.418a.067.067,0,0,1,0,.134Z" transform="translate(38.179 6700.734)" fill="#ccc"/>
    <path id="パス_1395" data-name="パス 1395" d="M490.245,508.965H466.826a.067.067,0,0,1,0-.134h23.418a.067.067,0,0,1,0,.134Z" transform="translate(38.179 6697.259)" fill="#ccc"/>
    <path id="パス_1396" data-name="パス 1396" d="M490.245,514.047H466.826a.067.067,0,0,1,0-.134h23.418a.067.067,0,0,1,0,.134Z" transform="translate(38.179 6693.783)" fill="#ccc"/>
    <path id="パス_1397" data-name="パス 1397" d="M471.162,463.734v8.7H449.37a4.352,4.352,0,1,1,0-8.7Z" transform="translate(53.154 6728.107)" fill="#f2f2f2"/>
    <path id="パス_1398" data-name="パス 1398" d="M470.684,471.937a.335.335,0,0,1-.335.335H447.968a4.583,4.583,0,0,1,0-9.167h22.381a.335.335,0,0,1,0,.669H447.968a3.914,3.914,0,0,0,0,7.828h22.381A.335.335,0,0,1,470.684,471.937Z" transform="translate(54.167 6728.536)" fill="#3f3d56"/>
    <path id="パス_1399" data-name="パス 1399" d="M477.245,469.8H453.826a.067.067,0,0,1,0-.134h23.418a.067.067,0,1,1,0,.134Z" transform="translate(47.071 6724.046)" fill="#ccc"/>
    <path id="パス_1400" data-name="パス 1400" d="M477.245,474.884H453.826a.067.067,0,0,1,0-.134h23.418a.067.067,0,1,1,0,.134Z" transform="translate(47.071 6720.569)" fill="#ccc"/>
    <path id="パス_1401" data-name="パス 1401" d="M477.245,479.965H453.826a.067.067,0,0,1,0-.134h23.418a.067.067,0,1,1,0,.134Z" transform="translate(47.071 6717.095)" fill="#ccc"/>
    <path id="パス_1402" data-name="パス 1402" d="M477.245,485.047H453.826a.067.067,0,1,1,0-.134h23.418a.067.067,0,1,1,0,.134Z" transform="translate(47.071 6713.619)" fill="#ccc"/>
    <path id="パス_1403" data-name="パス 1403" d="M540.588,598.953v-7.584a1.264,1.264,0,0,0-1.264-1.264H510.567a1.264,1.264,0,0,0-1.264,1.264v7.584Z" transform="translate(9.079 6641.668)" fill="#ccc"/>
    <rect id="長方形_297" data-name="長方形 297" width="31.285" height="9.796" transform="translate(518.382 7243.465)" fill="#ccc"/>
    <path id="パス_1404" data-name="パス 1404" d="M509.3,667.1v7.584a1.264,1.264,0,0,0,1.264,1.264h28.756a1.264,1.264,0,0,0,1.264-1.264V667.1Z" transform="translate(9.079 6589)" fill="#ccc"/>
    <circle id="楕円形_65" data-name="楕円形 65" cx="0.948" cy="0.948" r="0.948" transform="translate(532.919 7235.564)" fill="#fff"/>
    <circle id="楕円形_66" data-name="楕円形 66" cx="0.948" cy="0.948" r="0.948" transform="translate(532.919 7248.206)" fill="#fff"/>
    <circle id="楕円形_67" data-name="楕円形 67" cx="0.948" cy="0.948" r="0.948" transform="translate(532.969 7260.578)" fill="#fff"/>
    <path id="パス_1405" data-name="パス 1405" d="M540.162,562.734v8.7H518.37a4.352,4.352,0,1,1,0-8.7Z" transform="translate(5.958 6660.392)" fill="#f2f2f2"/>
    <path id="パス_1406" data-name="パス 1406" d="M539.684,570.937a.335.335,0,0,1-.334.335H516.968a4.583,4.583,0,0,1,0-9.167h22.381a.335.335,0,0,1,0,.669H516.968a3.914,3.914,0,1,0,0,7.828h22.381A.335.335,0,0,1,539.684,570.937Z" transform="translate(6.971 6660.82)" fill="#3f3d56"/>
    <path id="パス_1407" data-name="パス 1407" d="M546.245,568.8H522.826a.067.067,0,0,1,0-.134h23.418a.067.067,0,1,1,0,.134Z" transform="translate(-0.125 6656.33)" fill="#ccc"/>
    <path id="パス_1408" data-name="パス 1408" d="M546.245,573.884H522.826a.067.067,0,0,1,0-.134h23.418a.067.067,0,0,1,0,.134Z" transform="translate(-0.125 6652.855)" fill="#ccc"/>
    <path id="パス_1409" data-name="パス 1409" d="M546.245,578.965H522.826a.067.067,0,0,1,0-.134h23.418a.067.067,0,1,1,0,.134Z" transform="translate(-0.125 6649.379)" fill="#ccc"/>
    <path id="パス_1410" data-name="パス 1410" d="M546.245,584.047H522.826a.067.067,0,0,1,0-.134h23.418a.067.067,0,1,1,0,.134Z" transform="translate(-0.125 6645.903)" fill="#ccc"/>
    <path id="パス_1415" data-name="パス 1415" d="M731.458,513.1h-9.929a.614.614,0,0,0-.272.063l-2.506,1.255a.457.457,0,0,0,0,.841l2.506,1.255a.614.614,0,0,0,.272.063h9.929a.521.521,0,0,0,.55-.484v-2.509A.521.521,0,0,0,731.458,513.1Z" transform="translate(-133.992 6694.337)" fill="#3f3d56"/>
    <path id="パス_1416" data-name="パス 1416" d="M755.831,513.586V516.1a.521.521,0,0,1-.55.484H753.3V513.1h1.978A.521.521,0,0,1,755.831,513.586Z" transform="translate(-157.815 6694.337)" fill="#a981fc"/>
    <path id="パス_1417" data-name="パス 1417" d="M754.783,453.089a3.477,3.477,0,0,1,4.705,2.185,3.34,3.34,0,0,1,.1.453l13.885,6.885,3.213-2.129,4,4.6-4.906,3.985a3.523,3.523,0,0,1-4.2.162l-14.087-9.742a3.314,3.314,0,0,1-.321.117,3.477,3.477,0,0,1-4.427-2.705,3.379,3.379,0,0,1-.051-.423,3.487,3.487,0,0,1,2.094-3.39Z" transform="translate(-157.392 6735.581)" fill="#ffb8b8"/>
    <path id="パス_1418" data-name="パス 1418" d="M780.731,587.853H765.56c0,.436-15.636.79-15.636.79a4.066,4.066,0,0,0-.667.632,3.922,3.922,0,0,0-.917,2.528v.632a3.951,3.951,0,0,0,3.95,3.95h28.44a3.953,3.953,0,0,0,3.95-3.95V591.8A3.956,3.956,0,0,0,780.731,587.853Z" transform="translate(-154.421 6643.208)" fill="#3f3d56"/>
    <rect id="長方形_298" data-name="長方形 298" width="4.108" height="26.544" transform="translate(613.915 7265.981) rotate(180)" fill="#3f3d56"/>
    <path id="パス_1419" data-name="パス 1419" d="M761.617,689.32c0,.444,6.225.172,13.9.172s13.9.272,13.9-.172-6.225-3.964-13.9-3.964S761.617,688.877,761.617,689.32Z" transform="translate(-163.502 6576.517)" fill="#3f3d56"/>
    <path id="パス_1420" data-name="パス 1420" d="M506.978,466.243H503.1L501.261,456.2h5.718Z" transform="translate(94.845 6796.482)" fill="#ffb8b8"/>
    <path id="パス_1421" data-name="パス 1421" d="M749.441,689.071H736.949v-.158a4.862,4.862,0,0,1,4.862-4.862h7.63Z" transform="translate(-146.63 6577.41)" fill="#2f2e41"/>
    <path id="パス_1422" data-name="パス 1422" d="M737.126,590.973l-7.723-17.32a6.347,6.347,0,0,1,2.787-8.148l16.752-8.983,7.644-.65,7.052-.641.051.086a7.137,7.137,0,0,1,.556,5.6c-.777,2.178-2.8,3.879-6.01,5.057-7.494,2.748-16.151,5.1-19.525,5.978a1.091,1.091,0,0,0-.7.556,1.105,1.105,0,0,0-.062.884l7.175,16.121a1.422,1.422,0,0,1-1.2,1.905l-5.362.39q-.068.006-.136.006A1.421,1.421,0,0,1,737.126,590.973Z" transform="translate(-141.096 6665.521)" fill="#2f2e41"/>
    <path id="パス_1423" data-name="パス 1423" d="M512.978,466.243H509.1L507.261,456.2h5.718Z" transform="translate(90.741 6796.482)" fill="#ffb8b8"/>
    <path id="パス_1424" data-name="パス 1424" d="M755.441,689.071H742.949v-.158a4.862,4.862,0,0,1,4.862-4.862h7.63Z" transform="translate(-150.734 6577.41)" fill="#2f2e41"/>
    <path id="パス_1425" data-name="パス 1425" d="M744.126,593.973l-7.724-17.32a6.347,6.347,0,0,1,2.787-8.148l16.752-8.983,7.645-.65,7.052-.641.051.086a7.137,7.137,0,0,1,.556,5.6c-.777,2.178-2.8,3.879-6.01,5.057-7.494,2.748-16.151,5.1-19.525,5.978a1.09,1.09,0,0,0-.7.556,1.106,1.106,0,0,0-.062.884l7.175,16.121a1.422,1.422,0,0,1-1.2,1.905l-5.362.39q-.068.006-.136.006A1.421,1.421,0,0,1,744.126,593.973Z" transform="translate(-145.884 6663.47)" fill="#2f2e41"/>
    <path id="パス_1426" data-name="パス 1426" d="M733.209,456.4a52.93,52.93,0,0,1-7.608-14.2,1.36,1.36,0,0,1,.642-1.637l11.106-5.951a1.342,1.342,0,0,1,1.177-.048,1.364,1.364,0,0,1,.778.911,32.338,32.338,0,0,0,7.093,13.238,1.365,1.365,0,0,1,.328,1.152,1.342,1.342,0,0,1-.692.954l-11.106,5.951A1.36,1.36,0,0,1,733.209,456.4Z" transform="translate(-138.817 6748.133)" fill="#ccc"/>
    <path id="パス_1427" data-name="パス 1427" d="M736.018,457.883a.41.41,0,0,0,.512.106l11.106-5.951a.394.394,0,0,0,.206-.283.416.416,0,0,0-.1-.356,33.289,33.289,0,0,1-7.3-13.628.417.417,0,0,0-.24-.283.394.394,0,0,0-.351.015l-11.106,5.951a.41.41,0,0,0-.2.486,51.983,51.983,0,0,0,7.472,13.944Z" transform="translate(-140.869 6746.081)" fill="#fff"/>
    <path id="パス_1428" data-name="パス 1428" d="M842.717,483.042l-8.7,3.305-2.124-5.9a3.529,3.529,0,0,1,1.581-4.266h0a3.529,3.529,0,0,1,4.507.88Z" transform="translate(-211.429 6719.904)" fill="#a981fc"/>
    <path id="パス_1429" data-name="パス 1429" d="M794.094,506.094a1.58,1.58,0,0,1-.658-1.121c-1.114-10.4-.338-18.538,2.372-24.881a7.9,7.9,0,0,1,5.235-4.481l7.031-.355.036.018a8.218,8.218,0,0,1,4.493,8.718c-2.261,5.961-4.155,12.167-2.711,17.174a1.618,1.618,0,0,1-.153,1.259,1.543,1.543,0,0,1-.985.73l-13.392,3.186a1.569,1.569,0,0,1-1.269-.246Z" transform="translate(-184.93 6720.224)" fill="#a981fc"/>
    <circle id="楕円形_68" data-name="楕円形 68" cx="7.761" cy="7.761" r="7.761" transform="translate(613.036 7177.331)" fill="#ffb8b8"/>
    <path id="パス_1430" data-name="パス 1430" d="M748.946,457.175l-6.049,2.67a.949.949,0,0,1-1.25-.484l-.15-.339a.949.949,0,0,1,.484-1.25l6.049-2.67a.949.949,0,0,1,1.25.484l.15.339A.949.949,0,0,1,748.946,457.175Z" transform="translate(-149.685 6734.064)" fill="#ccc"/>
    <path id="パス_1431" data-name="パス 1431" d="M755.946,470.175l-6.049,2.67a.949.949,0,0,1-1.25-.484l-.15-.339a.949.949,0,0,1,.484-1.25l6.049-2.67a.949.949,0,0,1,1.25.484l.15.339A.949.949,0,0,1,755.946,470.175Z" transform="translate(-154.473 6725.173)" fill="#ccc"/>
    <path id="パス_1432" data-name="パス 1432" d="M747.861,487.948l-13.485-10.639a3.307,3.307,0,0,1-.327.1,3.485,3.485,0,0,1-2.786-.535,3.476,3.476,0,1,1,5.375-3.645,3.37,3.37,0,0,1,.072.459l13.424,7.745,3.341-1.923,3.7,4.845-5.187,3.7a3.458,3.458,0,0,1-4.127-.1Z" transform="translate(-141.723 6723.446)" fill="#ffb8b8"/>
    <path id="パス_1433" data-name="パス 1433" d="M805.032,493.365l-7.694-5.232,3.616-5.122a3.529,3.529,0,0,1,4.4-1.15h0a3.529,3.529,0,0,1,1.863,4.2Z" transform="translate(-187.935 6715.942)" fill="#a981fc"/>
    <path id="パス_1434" data-name="パス 1434" d="M806.862,418c-1.995,1.365-4.614,2.769-6.652,1.315a3.708,3.708,0,0,1-1.217-4.274c.976-2.79,3.656-4.018,6.219-4.96,3.332-1.224,6.96-2.2,10.4-1.321s6.48,4.207,5.859,7.7c-.5,2.811-3.15,5.149-2.774,7.979.379,2.848,3.582,4.347,6.409,4.856s5.992.673,8.024,2.7c2.592,2.591,1.945,7.222-.494,9.957s-6.12,3.975-9.687,4.818c-4.726,1.117-9.837,1.7-14.325-.15s-7.981-6.843-6.681-11.521a16.072,16.072,0,0,1,3.093-5.272,14.693,14.693,0,0,0,2.993-5.321,5.532,5.532,0,0,0-1-4.84,1.4,1.4,0,0,1-.188-1.639Z" transform="translate(-188.91 6765.938)" fill="#2f2e41"/>
  </g>
</svg>
