<svg xmlns="http://www.w3.org/2000/svg" width="303.664" height="277.74" viewBox="0 0 303.664 277.74">
  <g id="グループ_818" data-name="グループ 818" transform="translate(-958.078 -2382.013)">
    <g id="グループ_816" data-name="グループ 816" transform="translate(133.521 -32)">
      <circle id="楕円形_19" data-name="楕円形 19" cx="73.712" cy="73.712" r="73.712" transform="translate(933.622 2414.013)" fill="#f2f2f2"/>
      <path id="パス_1056" data-name="パス 1056" d="M698.872,452.837c6.4-3.515,14.356-2.81,21.247-.406s13.136,6.341,19.828,9.253a72.579,72.579,0,0,0,64.376-3.748c1.823,4.241-.133,9.092-2.281,13.178s-4.6,8.515-3.713,13.046c1.132,5.8,7.211,9.274,9.674,14.644,2.338,5.1,1.083,11.083-.711,16.4s-4.121,10.666-3.817,16.266,4.373,11.521,9.981,11.525c-8.311,1.291-16.785,2.583-25.09,1.26s-16.568-5.716-20.424-13.19c-1.927-3.736-2.671-8.031-4.884-11.6-3.771-6.087-11.007-8.949-17.834-11.107s-14.134-4.236-18.941-9.542c-4.58-5.056-6.031-12.1-8.458-18.476a59.014,59.014,0,0,0-20.433-26.647" transform="translate(314.766 2064.209)" fill="#a981fc"/>
      <path id="パス_1057" data-name="パス 1057" d="M693.037,371.817a9.193,9.193,0,0,0-7.286-.416c-2.285.971-3.842,3.458-3.1,5.66.335,1,1.1,1.98.8,2.988a3.076,3.076,0,0,1-1.81,1.653,6.745,6.745,0,0,0-2.208,1.285,1.444,1.444,0,0,0,.023,2.149c.233.157.525.231.751.4a1.193,1.193,0,0,1,.368,1.336,2.814,2.814,0,0,1-.9,1.187c-.8.693-1.866,1.486-1.616,2.47a1.733,1.733,0,0,0,1.17,1.094,5.811,5.811,0,0,0,1.717.227l23.716.747a8.993,8.993,0,0,0,2.342-.131,2.772,2.772,0,0,0,1.839-1.235,2.575,2.575,0,0,0-.4-2.661,25.235,25.235,0,0,0-2.011-2.125,3.373,3.373,0,0,1-1.077-2.552,6.523,6.523,0,0,1,.937-2.068,2.059,2.059,0,0,0,.1-2.148c-.644-.878-2.191-.8-2.924-1.617a3.629,3.629,0,0,1-.5-2.3,5.588,5.588,0,0,0-3.347-4.566,6.59,6.59,0,0,0-6,.408Z" transform="translate(328.011 2118.738)" fill="#2f2e41"/>
      <path id="パス_1058" data-name="パス 1058" d="M534.358,587.579l-3.714-1.116,2.537-14.859,5.482,1.647Z" transform="translate(471.703 2023.243)" fill="#a0616a"/>
      <path id="パス_1059" data-name="パス 1059" d="M651.815,751.175l-11.977-3.6.046-.151a4.868,4.868,0,0,1,6.062-3.261h0l7.315,2.2Z" transform="translate(354.111 1863.531)" fill="#2f2e41"/>
      <path id="パス_1060" data-name="パス 1060" d="M640.814,590.167h-3.879l-1.845-14.96h5.724Z" transform="translate(400.3 2020.78)" fill="#a0616a"/>
      <path id="パス_1061" data-name="パス 1061" d="M765.021,755.913H752.514v-.158a4.868,4.868,0,0,1,4.868-4.868h7.638Z" transform="translate(277.082 1858.794)" fill="#2f2e41"/>
      <path id="パス_1062" data-name="パス 1062" d="M702.041,582.7a1.424,1.424,0,0,1-1.405-1.2l-5.759-35.924a1.107,1.107,0,0,0-2.116-.25l-14.92,35.919a1.429,1.429,0,0,1-1.765.8l-5.389-1.8a1.419,1.419,0,0,1-.938-1.664l12.227-54.1a1.432,1.432,0,0,1,1.067-1.073l16.4-3.807a1.443,1.443,0,0,1,1.173.243c10.8,7.845,9.885,33.478,7.873,61.31a1.424,1.424,0,0,1-1.359,1.32l-5.024.219Z" transform="translate(333.688 2016.928)" fill="#2f2e41"/>
      <circle id="楕円形_20" data-name="楕円形 20" cx="7.77" cy="7.77" r="7.77" transform="translate(1014.156 2495.606)" fill="#a0616a"/>
      <path id="パス_1063" data-name="パス 1063" d="M702.155,476.547a12.623,12.623,0,0,1-5.386-1.245l-.058-.027-.023-.06-6.969-18.057-.133-3.137a7.521,7.521,0,0,1,7.938-7.827l7.4.417a7.525,7.525,0,0,1,7.1,7.469,5.08,5.08,0,0,1-1.118,5.968c-.1.618-1.035,7.038,2.5,10.569l.1.1-.087.11C713.356,470.9,708.821,476.546,702.155,476.547Z" transform="translate(320.106 2067.101)" fill="#3f3d56"/>
      <path id="パス_1064" data-name="パス 1064" d="M752.861,516.436a3.181,3.181,0,0,0,1.669-4.584l7.39-8.555-5.826-.758-6.124,8.241a3.2,3.2,0,0,0,2.891,5.657Z" transform="translate(279.79 2028.574)" fill="#a0616a"/>
      <path id="パス_1065" data-name="パス 1065" d="M747.848,474.066a1.42,1.42,0,0,1-.781-.234l-3.655-2.4a1.421,1.421,0,0,1-.443-1.919l2.646-4.445a1.984,1.984,0,0,0-.893-2.826l-7.6-3.408a4.532,4.532,0,0,1-2.566-5.035h0a4.505,4.505,0,0,1,6.464-3.086l11.532,5.909a6.067,6.067,0,0,1,2.153,8.95l-5.7,7.9a1.42,1.42,0,0,1-1.154.591Z" transform="translate(289.423 2064.341)" fill="#3f3d56"/>
      <path id="パス_1066" data-name="パス 1066" d="M698.954,390.333a4.817,4.817,0,0,0,4.236-5.1,4.116,4.116,0,0,0,3.525,4.19c1.126.124,2.36-.217,3.339.351,1.085.629,1.432,2.156,2.563,2.7a2.427,2.427,0,0,0,3.019-1.276,4.836,4.836,0,0,0,.049-3.546,10.014,10.014,0,0,0-16.669-4.1,6.412,6.412,0,0,0-1.984,3.818,3.761,3.761,0,0,0,1.852,3.694Z" transform="translate(315.022 2111.939)" fill="#2f2e41"/>
      <path id="パス_1067" data-name="パス 1067" d="M635.77,342.488a3.181,3.181,0,0,1,.982,4.778l6.061,9.543-5.874-.1-4.855-9.047a3.2,3.2,0,0,1,3.686-5.174Z" transform="translate(360.129 2138.259)" fill="#a0616a"/>
      <path id="パス_1068" data-name="パス 1068" d="M644.483,362.938l7.806,18.444,8.184,13.877a4.489,4.489,0,0,1-2.569,6.577h0a4.513,4.513,0,0,1-5.363-2.395l-15.773-33.7a1.424,1.424,0,0,1,.854-1.959l5.114-1.643a1.459,1.459,0,0,1,.3-.062A1.415,1.415,0,0,1,644.483,362.938Z" transform="translate(356.302 2124.605)" fill="#3f3d56"/>
      <path id="パス_1070" data-name="パス 1070" d="M732.228,239.922v25.942a.316.316,0,0,1-.633,0V239.922a.316.316,0,1,1,.633,0Z" transform="translate(291.383 2208.324)" fill="#ccc"/>
      <path id="パス_1071" data-name="パス 1071" d="M799.918,309l-8.948,8.948a.316.316,0,0,1-.447-.447l8.948-8.948a.316.316,0,0,1,.447.447Z" transform="translate(251.161 2161.251)" fill="#ccc"/>
      <path id="パス_1072" data-name="パス 1072" d="M644.57,309l8.948,8.948a.316.316,0,0,0,.447-.447l-8.948-8.948a.316.316,0,0,0-.447.447Z" transform="translate(350.94 2161.25)" fill="#ccc"/>
    </g>
    <g id="グループ_817" data-name="グループ 817" transform="translate(23.047 -169.109)">
      <path id="パス_1074" data-name="パス 1074" d="M598.5,244.495c3.261-10.392,10.677-19.924,20.932-23.437s25.273,1.839,32.983,9.523c14.1,14.056,14.537,31.262,4.848,46.521-1.927-.1-8.578-.177-10.529-.25l-2.76-9.2v9.106c-15.225-.471-32.172,12.053-46.936.129C595.621,266.086,595.242,254.887,598.5,244.495Z" transform="translate(385.623 2413.474)" fill="#2f2e41"/>
      <path id="パス_1075" data-name="パス 1075" d="M299.75,334.647l3.147,8.181-.629,8.181-60.415-7.552,1.888-6.923,6.923-8.181Z" transform="translate(726.075 2429.552)" fill="#ffb6b6"/>
      <circle id="楕円形_21" data-name="楕円形 21" cx="21.995" cy="21.995" r="21.995" transform="translate(984.359 2646.586)" fill="#ffb7b7"/>
      <path id="パス_1076" data-name="パス 1076" d="M567.413,381.556,580,374l25.173-2.517,22.249,5.035-.223,40.906-14.115,35.9-59.157-7.552-2.248-12.662s-16.362-21.977,1.259-34.563Z" transform="translate(415.618 2324.745)" fill="#a981fc"/>
      <path id="パス_1077" data-name="パス 1077" d="M604.236,593.422q-5.433.242-10.85.68-2.549.205-5.1.452-9.729.951-19.409,2.512-1.822.292-3.635.613c-1.131.195-2.259.4-3.39.609q-9.219,1.71-18.356,3.987c-.008,0-.021,0-.029.008l-30.628,7.651c1.77-15.956,5.939-40.578,15.111-46.414l5.993-10.66,0-.008.369-.651,11.1,1.156,9.333.974,6.44.671,4.024.414.062.008,28.995,3.021.373.041h.013v13.975s.191.244.514.7c.133.182.282.4.448.642a61.338,61.338,0,0,1,3.531,5.827c.174.323.348.655.518,1a54.517,54.517,0,0,1,2.955,6.847A40.86,40.86,0,0,1,604.236,593.422Z" transform="translate(434.312 2218.928)" fill="#2f2e41"/>
      <path id="パス_1078" data-name="パス 1078" d="M600.505,230.089a27.626,27.626,0,0,1,42,24.11c-12.294.565-25.047,12.112-38.306.738l-3.095-7.575-1.825,7.58q-5.986,0-11.994-.016A28.208,28.208,0,0,1,600.505,230.089Z" transform="translate(390.735 2409.851)" fill="#2f2e41"/>
      <path id="パス_1079" data-name="パス 1079" d="M732.544,462.335l21.4,12.586c5.035-2.517,4.061-18.842.987-19.8l-2.318-54.469c-1.259-25.173-21.174-18.25-21.174-18.25l-9.033,1.888,6.293,26.431,6.836,45.606A7.532,7.532,0,0,0,732.544,462.335Z" transform="translate(311.603 2318.864)" fill="#a981fc"/>
      <path id="パス_1080" data-name="パス 1080" d="M645.253,587.173l-1.795,3.842-.477,1.028-5.036,10.788-1.247,2.677q-2.549.205-5.1.452-9.729.951-19.409,2.512l1.873-7.734-5.508,8.347c-1.131.195-2.259.4-3.39.609q-9.219,1.709-18.356,3.987l16.69-38.672v0l1.434-3.324,33.55,12.894.887.34Z" transform="translate(390.998 2207.521)" fill="#3f3d56"/>
      <path id="パス_1081" data-name="パス 1081" d="M619.867,474.284c10.809,13.888,25.962,18.567,43.918,17.307l25.567-78.852-12.057-2.129-5.149-6.709-13.46-1.766-6.668,3.249-11.149-.248-8.483,27.927-15.631,27.749Z" transform="translate(373.465 2306.8)" fill="#e6e7e8"/>
      <path id="パス_1082" data-name="パス 1082" d="M796.71,392.706l-5.378,4.672-11.1-12.772-3.349-1.384a4.616,4.616,0,0,1-1.759-7.25h0a4.616,4.616,0,0,1,7.006-.044l3.48,4.005Z" transform="translate(281.371 2323.075)" fill="#ffb8b8"/>
      <path id="パス_1083" data-name="パス 1083" d="M758.9,437.67l20.521-17.189,8.339-7.559a5.835,5.835,0,0,0,.087-8.566h0l-.143-2.574a4.8,4.8,0,0,0-5.686-4.447h0l-7.138,7.021,3.965,2.265-4.56,2.746-11.694.662Z" transform="translate(290.229 2309.659)" fill="#e6e7e8"/>
      <circle id="楕円形_22" data-name="楕円形 22" cx="16.474" cy="16.474" r="16.474" transform="translate(1027.146 2676.167)" fill="#ffb8b8"/>
      <path id="パス_1084" data-name="パス 1084" d="M737.148,313.7c10.139,3.776,16.242,9.176,12.466,19.316s-14.09,20.255-24.229,16.479-3.557-7.4-14.722-27.992C705.506,311.993,727.008,309.927,737.148,313.7Z" transform="translate(318.938 2359.623)" fill="#2f2e41"/>
      <path id="パス_1085" data-name="パス 1085" d="M698.935,566.071c-.083.054-.17.108-.257.157q-.255.155-.522.286l-26.4,13.022-7.991,3.941-6.345,3.129q-9.729.951-19.409,2.512-1.822.292-3.635.613c-1.131.195-2.259.4-3.39.609a9.384,9.384,0,0,1-.033-2.238,9.874,9.874,0,0,1,11.916-8.662,9.7,9.7,0,0,1,1.488.46l12.877-8.865,7.518-5.172.439-.3,11.339-7.808,0,0,3.564-2.45.24-.166,2.416-1.662-.879-11.289,16.864-3.552,3.5,19.835A7.518,7.518,0,0,1,698.935,566.071Z" transform="translate(365.184 2226.874)" fill="#ffb6b6"/>
      <path id="パス_1086" data-name="パス 1086" d="M767.985,536.376,766.92,520.3l-17.883,11.15-.448,6.135a7.531,7.531,0,0,0-2.988,6.007L767,556.174C772.032,553.657,771.059,537.332,767.985,536.376Z" transform="translate(298.02 2237.61)" fill="#a981fc"/>
      <path id="パス_1087" data-name="パス 1087" d="M543.945,369.449a5.672,5.672,0,0,0,7.453,4.482L597,398.2l3.87-11.711-46.041-20.176a5.7,5.7,0,0,0-10.883,3.134Z" transform="translate(416.143 2329.817)" fill="#ffb6b6"/>
      <path id="パス_1088" data-name="パス 1088" d="M655.263,423.192s-8.541,5.578-14.256,2.815c-4.575-2.212-18.343-14.066-23.656-18.709a4.456,4.456,0,0,1-5.459-.2l8.356-12.052c3.294-.433,3.764,1.735,3.737,3.04l8.5,3.477,7.2-.122L655.838,421.1Z" transform="translate(376.313 2310.986)" fill="#e6e7e8"/>
      <path id="パス_1089" data-name="パス 1089" d="M584.187,556.743a9.608,9.608,0,0,1-14.68,1.244l-59.771,1.933-7.642.247h0a9.191,9.191,0,0,1-7.448-14.96l5.309-6.575,18.988,2.978,6.866.3,44.176,1.936a9.66,9.66,0,0,1,14.2,12.9Z" transform="translate(446.173 2226.873)" fill="#ffb6b6"/>
      <path id="パス_1090" data-name="パス 1090" d="M526.2,401.984s-11.394-2.891-16.794,6.409c-4.323,7.445-19.03,35.6-22.083,47.159-14.9,35.9,19.738,21.6,18.769,24.99l11.587-19.019c5.034-2.517-4.657.732-5.933-1.073l8.882-9.653,10.069-5.035,3.695-39.417Z" transform="translate(451.439 2307.136)" fill="#a981fc"/>
    </g>
  </g>
</svg>
