<svg xmlns="http://www.w3.org/2000/svg" width="110.853" height="91.824" viewBox="0 0 110.853 91.824">
  <g id="グループ_819" data-name="グループ 819" transform="translate(-418.367 -3951.231)">
    <path id="パス_1094" data-name="パス 1094" d="M328.114,649.216a57.122,57.122,0,0,0,5.558,5.722l75.023.2a57.118,57.118,0,0,0,5.558-5.722Z" transform="translate(90.253 3369.708)" fill="#3f3d56"/>
    <path id="パス_1095" data-name="パス 1095" d="M519.8,549.63V569.9H534V549.63a.681.681,0,0,0-.48-.652.627.627,0,0,0-.2-.032H520.49a.685.685,0,0,0-.686.684Zm5.542,6.965a1.516,1.516,0,1,1,3.032,0v2.352a1.516,1.516,0,1,1-3.032,0Z" transform="translate(-63.55 3450.16)" fill="#2f2e41"/>
    <path id="パス_1096" data-name="パス 1096" d="M519.584,651.686v1.955a.385.385,0,0,0,.381.383H533.49a.383.383,0,0,0,.381-.383v-1.955Z" transform="translate(-63.373 3367.726)" fill="#3f3d56"/>
    <path id="パス_1097" data-name="パス 1097" d="M406.774,390.673v37.011a1.78,1.78,0,0,0,1.779,1.779H463.4a1.78,1.78,0,0,0,1.779-1.779V390.673A1.781,1.781,0,0,0,463.4,388.9H408.553A1.781,1.781,0,0,0,406.774,390.673Z" transform="translate(27.14 3578.577)" fill="#3f3d56"/>
    <path id="パス_1098" data-name="パス 1098" d="M413.284,396.349v36.094a.952.952,0,0,0,.951.951h53.932a.952.952,0,0,0,.951-.951V396.349a.953.953,0,0,0-.951-.953H414.235A.953.953,0,0,0,413.284,396.349Z" transform="translate(21.917 3573.362)" fill="#a981fc"/>
    <path id="パス_1099" data-name="パス 1099" d="M468.385,652.342a.583.583,0,0,0,.459.219H500.93a.59.59,0,0,0,.577-.711l-.5-2.366a.591.591,0,0,0-.368-.429.572.572,0,0,0-.209-.04H469.34a.572.572,0,0,0-.21.04.591.591,0,0,0-.368.429l-.5,2.366A.59.59,0,0,0,468.385,652.342Z" transform="translate(-22.187 3369.869)" fill="#2f2e41"/>
    <path id="パス_1100" data-name="パス 1100" d="M471.345,651.516a.078.078,0,0,0-.029.005.1.1,0,0,0-.065.07l-.5,2.367a.094.094,0,0,0,.02.078l0,0a.089.089,0,0,0,.073.035h32.086a.093.093,0,0,0,.073-.035.091.091,0,0,0,.021-.079l-.5-2.369a.1.1,0,0,0-.06-.069.086.086,0,0,0-.034-.007Z" transform="translate(-24.193 3367.863)" fill="#fff"/>
    <path id="パス_1101" data-name="パス 1101" d="M426.052,418.922h50.464a.2.2,0,1,0,0-.4H426.052a.2.2,0,1,0,0,.4Z" transform="translate(11.833 3554.807)" fill="#3f3d56"/>
    <ellipse id="楕円形_24" data-name="楕円形 24" cx="1.176" cy="1.202" rx="1.176" ry="1.202" transform="translate(483.738 3969.899)" fill="#3f3d56"/>
    <ellipse id="楕円形_25" data-name="楕円形 25" cx="1.176" cy="1.202" rx="1.176" ry="1.202" transform="translate(479.675 3969.899)" fill="#3f3d56"/>
    <ellipse id="楕円形_26" data-name="楕円形 26" cx="1.176" cy="1.202" rx="1.176" ry="1.202" transform="translate(475.612 3969.899)" fill="#3f3d56"/>
    <path id="パス_1102" data-name="パス 1102" d="M438.156,402.9a.216.216,0,0,0,.215.217h2.886a.218.218,0,0,0,0-.437h-2.886A.218.218,0,0,0,438.156,402.9Z" transform="translate(1.961 3567.52)" fill="#3f3d56"/>
    <path id="パス_1103" data-name="パス 1103" d="M438.156,407.045a.216.216,0,0,0,.215.217h2.886a.218.218,0,1,0,0-.437h-2.886A.218.218,0,0,0,438.156,407.045Z" transform="translate(1.961 3564.191)" fill="#3f3d56"/>
    <path id="パス_1104" data-name="パス 1104" d="M438.156,411.193a.218.218,0,0,0,.215.219h2.886a.218.218,0,0,0,0-.437h-2.886a.216.216,0,0,0-.215.217Z" transform="translate(1.961 3560.861)" fill="#3f3d56"/>
    <path id="パス_1105" data-name="パス 1105" d="M493.21,451.546H457.784a1.757,1.757,0,0,0-1.755,1.755v17.242a1.757,1.757,0,0,0,1.755,1.755H493.21a1.757,1.757,0,0,0,1.755-1.755V453.3A1.757,1.757,0,0,0,493.21,451.546Zm1.36,1.755v5.03H482.118v-6.39H493.21a1.362,1.362,0,0,1,1.36,1.36Zm-25.3,11.816v-6.391h12.452v6.391Zm12.452.4V471.9H469.271v-6.391Zm-12.847-.4H456.424v-6.391h12.452Zm.4-6.786v-6.391h12.452v6.391Zm12.847.4H494.57v6.391H482.118Zm-24.334-6.786h11.092v6.391H456.424V453.3a1.362,1.362,0,0,1,1.36-1.36Zm-1.36,18.6v-5.03h12.452V471.9H457.784A1.362,1.362,0,0,1,456.424,470.543Zm36.786,1.36H482.118v-6.391H494.57v5.03a1.362,1.362,0,0,1-1.36,1.36Z" transform="translate(-12.379 3528.31)" fill="#3f3d56"/>
    <path id="パス_1106" data-name="パス 1106" d="M511.7,468.428a1.886,1.886,0,0,0-3.229-.665,57.074,57.074,0,0,0-5.078,3.742l0,.02,3.79-.261a6.527,6.527,0,0,0,2.663-.566,2.348,2.348,0,0,1,.951-.4,1.529,1.529,0,0,1,1.1.6c1.746,1.86,2.252,4.7,4.211,6.338A62.188,62.188,0,0,0,511.7,468.428Z" transform="translate(-50.379 3515.805)" fill="#fff"/>
    <path id="パス_1107" data-name="パス 1107" d="M505.407,479.276c-.193-.244-.272-.3-.463-.547q-2.327-3.009-4.374-6.222-1.391-2.182-2.643-4.448-.6-1.077-1.16-2.171-.437-.848-.855-1.707c-.08-.163-.157-.328-.234-.492-.182-.387-.36-.776-.551-1.158a3.185,3.185,0,0,0-.883-1.184,1.205,1.205,0,0,0-.628-.242,1.751,1.751,0,0,0-.909.26,29.261,29.261,0,0,0-5.754,3.968,29.955,29.955,0,0,0-4.675,5.189c-.041.059-.139,0-.1-.057q.246-.348.5-.689a30.119,30.119,0,0,1,7.69-7.173q.748-.485,1.524-.924c.261-.148.523-.293.789-.43a1.923,1.923,0,0,1,.837-.259c1.015-.016,1.541,1.134,1.9,1.908q.17.365.345.728.659,1.378,1.369,2.731.438.835.9,1.661,1.423,2.571,3.024,5.038c1.414,2.178,2.818,4.1,4.429,6.14C505.531,479.252,505.451,479.333,505.407,479.276Z" transform="translate(-33.354 3520.732)" fill="#fff"/>
    <path id="パス_1108" data-name="パス 1108" d="M468.838,472.538l-.177-.2a5.216,5.216,0,0,0-1.614-1.327,2.341,2.341,0,0,0-.981-.227,2.8,2.8,0,0,0-1.018.222c-.153.061-.3.131-.451.2-.169.085-.334.176-.5.267q-.464.257-.917.537-.9.556-1.744,1.2-.437.333-.857.687-.39.329-.764.676c-.053.049-.133-.03-.08-.08l.2-.182q.282-.255.573-.5.53-.448,1.088-.861.868-.643,1.795-1.2.463-.277.939-.531c.1-.051.193-.1.291-.148a4.641,4.641,0,0,1,.691-.281,2.46,2.46,0,0,1,1.044-.1,2.72,2.72,0,0,1,.964.333,6.511,6.511,0,0,1,1.6,1.431C468.966,472.512,468.886,472.592,468.838,472.538Z" transform="translate(-15.34 3512.96)" fill="#fff"/>
    <path id="パス_1109" data-name="パス 1109" d="M571.027,502.2l1.513-.553.751-.275a7.684,7.684,0,0,1,.742-.255,1.17,1.17,0,0,1,.671.009,1.548,1.548,0,0,1,.523.325,4.251,4.251,0,0,1,.429.459c.164.2.325.4.486.593q1,1.225,1.991,2.461t1.964,2.482q.978,1.249,1.942,2.509l.236.309c.043.057.141,0,.1-.057q-.972-1.273-1.957-2.535t-1.989-2.52q-1-1.254-2.016-2.5l-.506-.619c-.143-.174-.284-.35-.44-.511a1.586,1.586,0,0,0-1.075-.567,2.075,2.075,0,0,0-.731.161l-.758.277-1.523.557-.381.139c-.068.025-.038.134.03.109Z" transform="translate(-104.594 3488.668)" fill="#fff"/>
    <path id="パス_1110" data-name="パス 1110" d="M485.807,474.659a2.442,2.442,0,0,0-2.46.176,35.072,35.072,0,0,1,3.991.932C486.794,475.447,486.368,474.947,485.807,474.659Z" transform="translate(-34.299 3509.966)" fill="#fff"/>
    <path id="パス_1111" data-name="パス 1111" d="M482.708,476.563l-.148.12c.05-.042.1-.082.156-.119Z" transform="translate(-33.667 3508.237)" fill="#fff"/>
    <path id="パス_1112" data-name="パス 1112" d="M589.259,505.465a1.259,1.259,0,0,0-.533-.445l-.208.008a23.588,23.588,0,0,0,6.283,7.182Z" transform="translate(-118.683 3485.404)" fill="#fff"/>
    <circle id="楕円形_27" data-name="楕円形 27" cx="1.198" cy="1.198" r="1.198" transform="translate(468.406 3985.411)" fill="#fff"/>
    <path id="パス_1113" data-name="パス 1113" d="M671.657,471.206a.891.891,0,0,0,.889-.889V451.935a.889.889,0,1,0-1.779,0v18.381A.891.891,0,0,0,671.657,471.206Z" transform="translate(-184.676 3528.711)" fill="#3f3d56"/>
    <path id="パス_1114" data-name="パス 1114" d="M671.657,531.784a.891.891,0,0,0,.889-.889V527a1.1,1.1,0,0,0-1.779,0v3.9A.891.891,0,0,0,671.657,531.784Z" transform="translate(-184.676 3468.133)" fill="#2f2e41"/>
    <path id="パス_1115" data-name="パス 1115" d="M671.385,511.179a.958.958,0,0,0,.956-.957v-4.192a1.186,1.186,0,0,0-1.913,0v4.192A.958.958,0,0,0,671.385,511.179Z" transform="translate(-184.404 3484.982)" fill="#a981fc"/>
    <path id="パス_1116" data-name="パス 1116" d="M672.436,513.511a.7.7,0,0,0,.7-.7v-3.057a.865.865,0,0,0-1.4,0v3.057A.7.7,0,0,0,672.436,513.511Z" transform="translate(-185.455 3481.888)" fill="#3f3d56"/>
    <path id="パス_1117" data-name="パス 1117" d="M535.376,616.625a.791.791,0,0,1-.063-1.116l7.771-8.695a.791.791,0,0,1,1.179,1.054l-7.771,8.695A.791.791,0,0,1,535.376,616.625Z" transform="translate(-75.832 3403.941)" fill="#a981fc"/>
    <path id="パス_1118" data-name="パス 1118" d="M789.333,570.174c0,1.441-.34,2.544-.3,3.425a56.777,56.777,0,0,1-7.175,2.573c-.277.079-.553.154-.832.229-1.508-4.617-3.018-8.845-3.613-9.293-1.362-1.022-2.044,3.206-2.044,2.184s.682-1.022-1.02-2.384-.682-7.491-.682-7.491l-2.384-6.129,2.666-9.776,3.463-12.7h3.406s.1.073.269.21c.852.7,3.421,3.02,3.137,5.58a42.909,42.909,0,0,0,.435,5.933c1,8.916,3.311,18.608,3.311,21.166C787.971,567.109,789.333,568.131,789.333,570.174Z" transform="translate(-265.327 3464.708)" fill="#e6e6e6"/>
    <path id="パス_1119" data-name="パス 1119" d="M683.16,497.951c0-.01-.006-.018-.01-.026a5.268,5.268,0,0,0-.267-.6c-.575-1.081.034-2.741-.615-4.576a13.259,13.259,0,0,0-4.2-6.3c-.055-.047-.111-.093-.168-.14l0,0a48.994,48.994,0,0,0-4.625-3.178c-.389-.249-.8-.508-1.22-.781-.545-.35-.516-1.516-.484-2.749.036-1.37.073-2.789-.6-3.674l-.043-.057-.069-.018a29.734,29.734,0,0,0-7-.54h0a13.769,13.769,0,0,0-2.951.433c-.071.02-.142.04-.211.063-.053.014-.107.032-.16.049l-.043.016-.034.032a4.751,4.751,0,0,0-.872,3.032v0q-.021.332-.036.664a5.258,5.258,0,0,1-.542,2.783,11.421,11.421,0,0,1-3.453,2.656,8.7,8.7,0,0,1-3.68.976l-.188-.006-.018.186c-1.356,2.583-1.3,9.248-1.346,16.385q0,.6-.008,1.2c-.024,3.324-.087,6.706-.336,9.787-.109,1.324-.249,2.591-.437,3.775-.913,5.765-5.05.978-7.028,4.815a4.845,4.845,0,0,0,.326,1.1c.227.134.461.265.692.4q1.539.857,3.135,1.6c.059.028.119.055.178.081a46.785,46.785,0,0,0,6.02,2.3c.4.123.8.239,1.208.35a46.17,46.17,0,0,0,10.991,1.646.332.332,0,0,1,.045,0,57.039,57.039,0,0,0,13.013-1.876l.178-.047c.279-.075.555-.15.832-.229a56.765,56.765,0,0,0,7.175-2.573,1.832,1.832,0,0,0,.026.259.6.6,0,0,0,.012.083c0-.032.008-.063.01-.095.012-.093.022-.188.032-.283A61.478,61.478,0,0,0,683.16,497.951Z" transform="translate(-162.01 3509.26)" fill="#3f3d56"/>
    <path id="パス_1120" data-name="パス 1120" d="M705.211,377.216a11.065,11.065,0,1,0-.562-9.426c-.051.127-.1.253-.142.385A11.05,11.05,0,0,0,705.211,377.216Z" transform="translate(-211.224 3601.087)" fill="#ffb6b6"/>
    <path id="パス_1121" data-name="パス 1121" d="M688.417,360.072c.476-1.332.268-.638.75-1.965a3.312,3.312,0,0,0,.137,1.965h13.175v-7.659c-3.86-1.53-7.633-2.831-9.913,0a7.659,7.659,0,0,0-7.659,7.658Z" transform="translate(-196.021 3609.189)" fill="#2f2e41"/>
    <path id="パス_1122" data-name="パス 1122" d="M716.549,378.108c.01-.142.025-.289.046-.431a14.92,14.92,0,0,1,.856-3.039c.38-1.069.765-2.143,1.15-3.211a9.2,9.2,0,0,0,.431,5.835c2.224-1.732.821-5.693,3.728-5.693,6.99,0,14.183-5.668,14.183-12.663s-3-12.217-9.989-12.217-12.668,3.2-12.8,10.191C722.76,358.905,714.923,377.4,716.549,378.108Z" transform="translate(-219.483 3612.443)" fill="#2f2e41"/>
    <circle id="楕円形_28" data-name="楕円形 28" cx="8.104" cy="8.104" r="8.104" transform="translate(508.482 3954.068)" fill="#2f2e41"/>
    <path id="パス_1123" data-name="パス 1123" d="M682.6,591.244q-.042.625-.073,1.332c-.419,8.872-.057,20.816-2.882,27.3q-.949.519-1.917.992-.039.018-.071.036c-.174.085-.348.168-.522.247a.058.058,0,0,1-.022.012,47.2,47.2,0,0,1-5.892,2.314c-.247.079-.5.154-.745.229l-.16.047a46.234,46.234,0,0,1-11.669,1.876c-.206.006-.407.01-.6.014-.069,0-.136,0-.2,0-.221,0-.441,0-.662,0q-.67,0-1.334-.02a46.17,46.17,0,0,1-10.991-1.646c-.405-.111-.806-.227-1.208-.35a46.788,46.788,0,0,1-6.02-2.3c-.059-.026-.119-.053-.178-.081q-1.6-.741-3.135-1.6c-.231-.13-.464-.261-.692-.4a4.846,4.846,0,0,1-.326-1.1c-.449-2.156-.808-.7-1.065-5.188-.235-4.113-.385-8.238-.441-10.6-.018-.629-.024-1.132-.026-1.476.21-1.5,3.577-3.2,8.489-4.813.464-.152.945-.3,1.437-.455,1.328-.409,2.747-.81,4.23-1.2,3.775-.988,7.967-1.9,12.128-2.645,2.054-.368,4.1-.7,6.086-.978,3.485-.494,6.781-.836,9.6-.976.271-.014.536-.026.8-.034.281-.012.555-.02.824-.026C679.423,589.691,682.2,590.114,682.6,591.244Z" transform="translate(-153.385 3417.406)" fill="#2f2e41"/>
    <path id="パス_1124" data-name="パス 1124" d="M682.6,591.244q-.042.626-.073,1.332c-3.079-3.316-36.252,11.5-50.3,20.4-.235-4.113-.385-8.238-.441-10.6-.018-.629-.024-1.133-.026-1.476.21-1.5,3.577-3.2,8.489-4.813.464-.152.945-.3,1.437-.455,1.328-.409,2.747-.81,4.23-1.2,3.775-.988,7.967-1.9,12.128-2.645,2.054-.368,4.1-.7,6.086-.978,3.485-.494,6.781-.836,9.6-.976.271-.014.536-.026.8-.034.281-.012.555-.02.824-.026C679.423,589.69,682.2,590.113,682.6,591.244Z" transform="translate(-153.385 3417.406)" opacity="0.2"/>
    <path id="パス_1125" data-name="パス 1125" d="M544.564,626.518a3.424,3.424,0,0,0,5.249.14l11.256,4.623-1.215-6.205-10.5-3.438a3.443,3.443,0,0,0-4.787,4.882Z" transform="translate(-82.807 3392.413)" fill="#ffb6b6"/>
    <path id="パス_1126" data-name="パス 1126" d="M613.45,518.483l-.062-.007-6.564.477a5.891,5.891,0,0,0-4.261,2.307,5.772,5.772,0,0,0-.608.988h0a5.891,5.891,0,0,0-.485,3.733l3.09,15.555-7.435-.676-2.714.464-3.2-1.292-6.572.112-.152.5-1.379,4.57-.108.359L593.03,551.9l2.909-.885,1.371,1.053.066,0,2.718.054,11.592.227,3.168-5.613.5-.88c3.68-8.244,4.588-14,4.3-17.963a13.184,13.184,0,0,0-1.222-4.887A8.29,8.29,0,0,0,613.45,518.483Z" transform="translate(-114.251 3474.608)" fill="#3f3d56"/>
    <path id="パス_1127" data-name="パス 1127" d="M780.478,324.856a9.358,9.358,0,0,1-6.754-5.966,18.01,18.01,0,0,0-1.453-4.121,22.033,22.033,0,0,0,2.9-5.443c.273-.752.913-2.116-.172-2.529-.864-.329-1.845.466-2.357,1.093a4.162,4.162,0,0,0-.817,1.627l-.53-2.339a.3.3,0,0,0-.365-.207,3.457,3.457,0,0,0-2.679,3,3.055,3.055,0,0,0,.466,2.08,8.162,8.162,0,0,0,1.793,1.741,5.442,5.442,0,0,1,1.643,1.977,19.18,19.18,0,0,1,.814,2.679,9.923,9.923,0,0,0,7.356,6.983C780.692,325.51,780.851,324.938,780.478,324.856Zm-8.172-14.174a3.441,3.441,0,0,1,.561-2.108,3.337,3.337,0,0,1,.762-.825,1.5,1.5,0,0,1,1.075-.423c.486.1.29.645.187.972q-.2.647-.449,1.28a21.035,21.035,0,0,1-1.1,2.393c-.217.4-.449.8-.691,1.185l-.5-2.211a.248.248,0,0,0,.161-.263Zm-3.463.118a2.928,2.928,0,0,1,1.94-3.184l1.412,6.234c-.1.143-.2.284-.3.425-.026-.03-.05-.062-.078-.091-.987-1.074-2.708-1.807-2.977-3.384Z" transform="translate(-262.867 3644.511)" fill="#a981fc"/>
  </g>
</svg>
