<svg xmlns="http://www.w3.org/2000/svg" width="746.674" height="242.147" viewBox="0 0 746.674 242.147">
  <g id="グループ_828" data-name="グループ 828" transform="translate(-309.663 -3984.697)">
    <g id="グループ_827" data-name="グループ 827" transform="translate(7.255 -26.195)">
      <g id="グループ_826" data-name="グループ 826" transform="translate(-120.873 -175)">
        <path id="パス_1165" data-name="パス 1165" d="M357.048,378.318H169.542a3.16,3.16,0,1,0,0,6.321H357.048a3.16,3.16,0,0,0,0-6.321Z" transform="translate(600.684 3936.366)" fill="#e6e6e6"/>
        <path id="パス_1166" data-name="パス 1166" d="M392.786,425H288.5a3.16,3.16,0,0,0,0,6.321H392.786a3.16,3.16,0,1,0,0-6.321Z" transform="translate(523.335 3906.015)" fill="#e6e6e6"/>
        <path id="パス_1167" data-name="パス 1167" d="M235.069,72.03l11.817-4.973,5.069,10.391-12.418,5.069Z" transform="translate(595.03 4142.399)" fill="#ffb6b6"/>
        <path id="パス_1168" data-name="パス 1168" d="M235.069,72.03l11.817-4.973,5.069,10.391-12.418,5.069Z" transform="translate(595.03 4142.399)" opacity="0.1"/>
        <path id="パス_1169" data-name="パス 1169" d="M153.662,68.071,165.32,81.5s-8.11,25.6-16.22,27.878-23.062,13.432-23.062,13.432l-18.754-12.165,9.124-13.432s22.049-30.158,27.878-30.158a37.459,37.459,0,0,1,9.377,1.014Z" transform="translate(678.116 4142.399)" fill="#a981fc"/>
        <path id="パス_1170" data-name="パス 1170" d="M115.919,231.949H88.781l-1.716-2.294-7-9.364-1.612-2.154s-6.082-11.151-4.815-21.288S88.079,184.43,88.079,184.43h.542l16.133,14.177-.963,13.194,5.109,8.49,7.018,11.658Z" transform="translate(700.109 4066.082)" fill="#2f2e41"/>
        <path id="パス_1171" data-name="パス 1171" d="M119.63,300.257h-7.274V289.486Z" transform="translate(674.818 3997.774)" fill="#2f2e41"/>
        <path id="パス_1172" data-name="パス 1172" d="M491.939,241.818l-.9,4.694-2.245,11.658H443.68c.352-2.613.834-6.374,1.348-10.434.051-.405.1-.814.155-1.224,1.29-10.206,2.7-21.755,2.7-21.755l5.93.72,11.506,1.394,4.689.568,12.555,1.523a10.879,10.879,0,0,1,9.374,12.857Z" transform="translate(459.389 4039.861)" fill="#f2f2f2"/>
        <path id="パス_1174" data-name="パス 1174" d="M449.031,95.766l10.64,15.047-18.56.554-1.992-14.141Z" transform="translate(462.355 4123.732)" fill="#a0616a"/>
        <path id="パス_1175" data-name="パス 1175" d="M449.031,95.766l10.64,15.047-18.56.554-1.992-14.141Z" transform="translate(462.355 4123.732)" opacity="0.1"/>
        <path id="uuid-ae755ff6-bb09-410e-86b1-7d1b81a37005-1365" d="M299.4,174.244c-1.365-3.938-4.5-6.426-7.01-5.557s-3.431,4.766-2.064,8.706a10.431,10.431,0,0,0,2.611,4.178l6,16.614,7.736-2.98-6.732-16.062a10.433,10.433,0,0,0-.536-4.9Z" transform="translate(559.509 4076.431)" fill="#a0616a"/>
        <path id="パス_1176" data-name="パス 1176" d="M429.837,136.714l-.015,15.335-1.427,5.664-2.935,11.65-2.136,10.715-1.592,7.983-.568,2.851q-.642.43-1.28.824h-37.07a28.508,28.508,0,0,1-3.284-2.248,12.5,12.5,0,0,0,1.249-1.427c1.125-1.485,2.486-3.918,1.652-6.242a4.212,4.212,0,0,1-.167-1.741c.34-4.364,4.917-11.744,4.917-11.744l-.948-10.953-.416-4.8,2.93-23.4,9.552-5.553,1.649-.16,16.278-.879,6.728.388.307.084,6.574,13.657Z" transform="translate(501.099 4106.294)" fill="#ccc"/>
        <g id="グループ_822" data-name="グループ 822" transform="translate(920.622 4229.211)">
          <path id="パス_1177" data-name="パス 1177" d="M509.661,312.26h-8.11l-.357-3.675-.008-.073,2.3-.157,5.973-.408.1,2.2.081,1.688Z" transform="translate(-498.624 -243.44)" fill="#ffb6b6"/>
          <path id="パス_1178" data-name="パス 1178" d="M506.894,141.038l3.407,19.988-2.78,19.669-.433,3.061-.765,5.406-.236,1.663.008.18.058,1.348h-9.63l-.355-3.675-.03-.329-.725-7.527-.013-.127-1.538-15.961,3.016-11.536.223-.849v0l1.312-19.753-1.016-8.977-.01-.084.058.038c.053.033.106.066.157.1a20.043,20.043,0,0,1,9.293,17.365Z" transform="translate(-493.861 -123.533)" fill="#ccc"/>
        </g>
        <path id="パス_1179" data-name="パス 1179" d="M340.584,145.259l-3.7-3.83s-7.928,3.574-8.323,5.557-14.393,31.105-14.393,31.105l-6.09-16.265-7.927,5.292s6.361,25.252,12.309,26.438,25.885-29.888,25.885-29.888l2.242-18.409Z" transform="translate(552.715 4094.042)" fill="#ccc"/>
        <path id="パス_1180" data-name="パス 1180" d="M225.262,286.447H5.637C2.528,286.447,0,289.77,0,293.852s2.528,7.4,5.637,7.4H225.262c3.109,0,5.639-3.319,5.639-7.4S228.37,286.447,225.262,286.447Z" transform="translate(747.873 3999.75)" fill="#e6e6e6"/>
        <path id="パス_1181" data-name="パス 1181" d="M408.036,213.1l-.561,26.165a4.658,4.658,0,0,1-4.657,4.558H354.687a4.658,4.658,0,0,1-4.651-4.4l-1.43-26.165a4.658,4.658,0,0,1,4.651-4.912H403.38a4.658,4.658,0,0,1,4.657,4.757Z" transform="translate(521.212 4050.536)" fill="#3f3d56"/>
        <circle id="楕円形_34" data-name="楕円形 34" cx="11.516" cy="11.516" r="11.516" transform="translate(840.031 4197.714)" fill="#ffb6b6"/>
        <path id="パス_1182" data-name="パス 1182" d="M219.248,148.782l1.267,13.685,8.617,34.72-7.444,2.609-12.577-37.836-1.737-15.206Z" transform="translate(613.037 4090.579)" fill="#ffb6b6"/>
        <path id="パス_1183" data-name="パス 1183" d="M121.037,213.1l-.561,26.165a4.658,4.658,0,0,1-4.657,4.558H67.687a4.658,4.658,0,0,1-4.651-4.4l-1.43-26.165a4.658,4.658,0,0,1,4.651-4.912H116.38a4.658,4.658,0,0,1,4.657,4.757Z" transform="translate(707.821 4050.536)" fill="#3f3d56"/>
        <ellipse id="楕円形_35" data-name="楕円形 35" cx="9.095" cy="4.023" rx="9.095" ry="4.023" transform="translate(834.447 4286.487)" fill="#ffb6b6"/>
        <path id="パス_1184" data-name="パス 1184" d="M190.242,106.275l5.2-27.689s14.446-2.027,14.953,2.788-.362,28.348-.362,28.348l-19.786-3.447Z" transform="translate(624.176 4135.178)" fill="#a981fc"/>
        <path id="パス_1185" data-name="パス 1185" d="M229.362,27.031s7.124-2.542,10.129-3.91,8.975,8.173,9.107,3.134-1.93-7.152-1.93-7.152-.515-11.024-11.621-9.645c0,0,2.443-5.515-5.576-6.368S208.976,21.6,210.094,24.494s2.457,5.286-.713,8.381-9.105,20.557-4.589,25.256,4.812,6.738,1.718,9.662-10.408,9.28-2.5,10.384-.723.279,5.172-4.906,14.5-4.974,11.286-13.294,2.368-20.242,1.67-22.051S223.7,24.631,223.7,24.631s5.266-.774,5.66,2.4Z" transform="translate(617.536 4184.009)" fill="#2f2e41"/>
        <g id="グループ_823" data-name="グループ 823" transform="translate(892.115 4186)">
          <circle id="楕円形_36" data-name="楕円形 36" cx="12.536" cy="12.536" r="12.536" transform="translate(1.045 13.873)" fill="#a0616a"/>
          <path id="パス_1186" data-name="パス 1186" d="M426.946,9.555c-.363.212-.849-.109-.965-.512a2.1,2.1,0,0,1,.154-1.23l.676-2a10.287,10.287,0,0,1,2.028-3.973,7.362,7.362,0,0,1,6.3-1.747A9.259,9.259,0,0,1,442.2,4.616c1.34,2.58.769,6.179-1.651,7.788,3.45,3.954,4.652,8.36,4.462,13.6s-5.9,10.07-9.631,13.764c-.832-.5-1.589-2.869-1.131-3.727s-.2-1.854.369-2.645,1.041.469.468-.318c-.362-.5,1.05-1.638.512-1.935-2.6-1.437-3.464-4.677-5.1-7.158a12.2,12.2,0,0,0-8.907-5.356,8.422,8.422,0,0,0-5.651,1.291,5.3,5.3,0,0,0-2.28,5.117,4.545,4.545,0,0,1,.945-7.113,7.424,7.424,0,0,1,1.576-7c1.68-1.852,8.493-1.536,10.945-1.049l-.19-.325Z" transform="translate(-412.364 0)" fill="#2f2e41"/>
          <path id="パス_1187" data-name="パス 1187" d="M455.14,53.475c3.248.351,5.593,3.164,7.573,5.762,1.141,1.5,2.337,3.151,2.308,5.034-.029,1.9-1.3,3.536-1.91,5.34a8.048,8.048,0,0,0,2.341,8.476,4.675,4.675,0,0,1-5.27-3.655c-.47-2.73,1.6-5.366,1.355-8.126-.216-2.431-2.132-4.3-3.761-6.121s-3.159-4.23-2.409-6.553l-.227-.157Z" transform="translate(-440.177 -34.77)" fill="#2f2e41"/>
        </g>
      </g>
      <g id="undraw_remotely_-2-j6y" transform="translate(302.408 4010.892)">
        <path id="パス_1190" data-name="パス 1190" d="M491.808,66.736l1.078-1.667a24.984,24.984,0,0,0-1.106-2.59l-.7.563.552-.853c-.526-1.036-.94-1.689-.94-1.689a23.947,23.947,0,0,0-2.885,7.017l1.384,2.139-1.532-1.237a10.109,10.109,0,0,0-.084,1.268c0,4.274,1.4,7.739,3.118,7.739s3.118-3.465,3.118-7.739a13.311,13.311,0,0,0-.713-3.993Z" transform="translate(-385.387 -60.501)" fill="#e6e6e6"/>
        <path id="パス_1191" data-name="パス 1191" d="M506.293,80.96l1.941-.416a24.98,24.98,0,0,0,1.049-2.614l-.891-.095.994-.213c.36-1.1.529-1.859.529-1.859a23.948,23.948,0,0,0-7,2.922l-.534,2.491-.208-1.958a10.126,10.126,0,0,0-.956.837c-3.022,3.022-4.485,6.459-3.267,7.677s4.655-.245,7.677-3.267a13.306,13.306,0,0,0,2.319-3.328Z" transform="translate(-392.238 -71.019)" fill="#e6e6e6"/>
        <path id="パス_1192" data-name="パス 1192" d="M495.606,119.2c-4.5.288-9.406-.017-14.624,0V107.253a52.71,52.71,0,0,0,14.624,0Z" transform="translate(-380.842 -92.72)" fill="#e6e6e6"/>
        <path id="パス_1193" data-name="パス 1193" d="M625.51,166.636l.7-1.087a16.3,16.3,0,0,0-.722-1.689l-.455.367.36-.557c-.343-.676-.613-1.1-.613-1.1a15.615,15.615,0,0,0-1.882,4.576l.9,1.395-1-.807a6.592,6.592,0,0,0-.055.827c0,2.787.91,5.047,2.033,5.047s2.033-2.259,2.033-5.047a8.677,8.677,0,0,0-.465-2.6Z" transform="translate(-478.543 -130.842)" fill="#e6e6e6"/>
        <path id="パス_1194" data-name="パス 1194" d="M634.957,175.913l1.266-.271a16.272,16.272,0,0,0,.684-1.7l-.581-.062.648-.139c.235-.72.345-1.212.345-1.212a15.615,15.615,0,0,0-4.566,1.905l-.348,1.624-.136-1.277a6.6,6.6,0,0,0-.623.546c-1.971,1.971-2.925,4.212-2.131,5.006s3.035-.16,5.006-2.131a8.678,8.678,0,0,0,1.513-2.17Z" transform="translate(-483.011 -137.702)" fill="#e6e6e6"/>
        <path id="パス_1195" data-name="パス 1195" d="M627.987,200.85c-2.936.188-6.134-.011-9.537,0v-7.791a34.375,34.375,0,0,0,9.537,0Z" transform="translate(-475.579 -151.854)" fill="#e6e6e6"/>
        <path id="パス_1196" data-name="パス 1196" d="M624.63,277.147c-2.592.166-5.417-.01-8.421,0v-6.879a30.356,30.356,0,0,0,8.421,0Z" transform="translate(-474.035 -205.063)" fill="#e6e6e6"/>
        <rect id="長方形_202" data-name="長方形 202" width="113.317" height="3.165" transform="translate(52.069 25.639)" fill="#e6e6e6"/>
        <rect id="長方形_203" data-name="長方形 203" width="113.317" height="3.165" transform="translate(52.069 48.112)" fill="#e6e6e6"/>
        <rect id="長方形_204" data-name="長方形 204" width="113.317" height="3.165" transform="translate(52.069 70.586)" fill="#e6e6e6"/>
        <circle id="楕円形_37" data-name="楕円形 37" cx="6.331" cy="6.331" r="6.331" transform="translate(140.064 55.076)" fill="#e6e6e6"/>
        <circle id="楕円形_38" data-name="楕円形 38" cx="5.064" cy="5.064" r="5.064" transform="translate(141.33 56.342)" fill="#fff"/>
        <circle id="楕円形_39" data-name="楕円形 39" cx="1.266" cy="1.266" r="1.266" transform="translate(145.128 60.14)" fill="#e6e6e6"/>
        <rect id="長方形_205" data-name="長方形 205" width="0.633" height="5.064" transform="translate(150.826 61.09) rotate(90)" fill="#e6e6e6"/>
        <rect id="長方形_206" data-name="長方形 206" width="0.633" height="5.064" transform="translate(146.711 62.039) rotate(180)" fill="#e6e6e6"/>
        <rect id="長方形_207" data-name="長方形 207" width="4.189" height="16.58" transform="translate(105.601 32.671)" fill="#e6e6e6"/>
        <rect id="長方形_208" data-name="長方形 208" width="4.189" height="1.92" transform="translate(105.601 35.289)" fill="#ccc"/>
        <rect id="長方形_209" data-name="長方形 209" width="4.189" height="1.92" transform="translate(105.601 43.666)" fill="#ccc"/>
        <rect id="長方形_210" data-name="長方形 210" width="4.189" height="16.58" transform="translate(99.144 32.671)" fill="#e6e6e6"/>
        <rect id="長方形_211" data-name="長方形 211" width="4.189" height="1.92" transform="translate(99.144 35.289)" fill="#ccc"/>
        <rect id="長方形_212" data-name="長方形 212" width="4.189" height="1.92" transform="translate(99.144 43.666)" fill="#ccc"/>
        <rect id="長方形_213" data-name="長方形 213" width="4.189" height="16.58" transform="matrix(0.896, -0.444, 0.444, 0.896, 109.645, 34.461)" fill="#e6e6e6"/>
        <rect id="長方形_214" data-name="長方形 214" width="4.189" height="1.92" transform="matrix(0.896, -0.444, 0.444, 0.896, 110.807, 36.807)" fill="#ccc"/>
        <rect id="長方形_215" data-name="長方形 215" width="4.189" height="1.92" transform="matrix(0.896, -0.444, 0.444, 0.896, 114.524, 44.315)" fill="#ccc"/>
        <rect id="長方形_216" data-name="長方形 216" width="4.189" height="16.58" transform="translate(68.251 55.145)" fill="#e6e6e6"/>
        <rect id="長方形_217" data-name="長方形 217" width="4.189" height="1.92" transform="translate(68.251 57.763)" fill="#ccc"/>
        <rect id="長方形_218" data-name="長方形 218" width="4.189" height="1.92" transform="translate(68.251 66.14)" fill="#ccc"/>
        <rect id="長方形_219" data-name="長方形 219" width="4.189" height="16.58" transform="translate(61.794 55.145)" fill="#e6e6e6"/>
        <rect id="長方形_220" data-name="長方形 220" width="4.189" height="1.92" transform="translate(61.794 57.763)" fill="#ccc"/>
        <rect id="長方形_221" data-name="長方形 221" width="4.189" height="1.92" transform="translate(61.794 66.14)" fill="#ccc"/>
        <rect id="長方形_222" data-name="長方形 222" width="4.189" height="16.58" transform="matrix(0.896, -0.444, 0.444, 0.896, 72.295, 56.934)" fill="#e6e6e6"/>
        <rect id="長方形_223" data-name="長方形 223" width="4.189" height="1.92" transform="matrix(0.896, -0.444, 0.444, 0.896, 73.457, 59.281)" fill="#ccc"/>
        <rect id="長方形_224" data-name="長方形 224" width="4.189" height="1.92" transform="matrix(0.896, -0.444, 0.444, 0.896, 77.174, 66.788)" fill="#ccc"/>
        <rect id="長方形_225" data-name="長方形 225" width="4.189" height="16.58" transform="translate(107.501 55.145)" fill="#e6e6e6"/>
        <rect id="長方形_226" data-name="長方形 226" width="4.189" height="1.92" transform="translate(107.501 57.763)" fill="#ccc"/>
        <rect id="長方形_227" data-name="長方形 227" width="4.189" height="1.92" transform="translate(107.501 66.14)" fill="#ccc"/>
        <rect id="長方形_228" data-name="長方形 228" width="4.189" height="16.58" transform="translate(101.043 55.145)" fill="#e6e6e6"/>
        <rect id="長方形_229" data-name="長方形 229" width="4.189" height="1.92" transform="translate(101.043 57.763)" fill="#ccc"/>
        <rect id="長方形_230" data-name="長方形 230" width="4.189" height="1.92" transform="translate(101.043 66.14)" fill="#ccc"/>
        <rect id="長方形_231" data-name="長方形 231" width="4.189" height="16.58" transform="matrix(0.896, -0.444, 0.444, 0.896, 111.545, 56.934)" fill="#e6e6e6"/>
        <rect id="長方形_232" data-name="長方形 232" width="4.189" height="1.92" transform="matrix(0.896, -0.444, 0.444, 0.896, 112.706, 59.281)" fill="#ccc"/>
        <rect id="長方形_233" data-name="長方形 233" width="4.189" height="1.92" transform="matrix(0.896, -0.444, 0.444, 0.896, 116.423, 66.788)" fill="#ccc"/>
        <rect id="長方形_234" data-name="長方形 234" width="16.648" height="16.648" transform="translate(139.876 10.148)" fill="#e6e6e6"/>
        <rect id="長方形_235" data-name="長方形 235" width="9.989" height="9.989" transform="translate(143.205 13.477)" fill="#ccc"/>
        <path id="パス_1197" data-name="パス 1197" d="M460.609,54.143l2.118,3.668,2.118,3.668h-8.472l2.118-3.668Z" transform="translate(-314.512 -37.313)" fill="#e6e6e6"/>
        <path id="パス_1198" data-name="パス 1198" d="M472.448,56.4l2.118,3.668,2.118,3.668h-8.472l2.118-3.668Z" transform="translate(-322.671 -38.867)" fill="#e6e6e6"/>
        <circle id="楕円形_40" data-name="楕円形 40" cx="1.227" cy="1.227" r="1.227" transform="translate(150.04 14.003)" fill="#e6e6e6"/>
        <rect id="長方形_236" data-name="長方形 236" width="16.648" height="16.648" transform="translate(55.679 10.148)" fill="#e6e6e6"/>
        <rect id="長方形_237" data-name="長方形 237" width="9.989" height="9.989" transform="translate(59.009 13.477)" fill="#ccc"/>
        <path id="パス_1199" data-name="パス 1199" d="M189.745,54.143l2.118,3.668,2.118,3.668h-8.472l2.118-3.668Z" transform="translate(-127.845 -37.313)" fill="#e6e6e6"/>
        <path id="パス_1200" data-name="パス 1200" d="M201.584,56.4l2.118,3.668,2.118,3.668h-8.471l2.118-3.668Z" transform="translate(-136.004 -38.867)" fill="#e6e6e6"/>
        <circle id="楕円形_41" data-name="楕円形 41" cx="1.227" cy="1.227" r="1.227" transform="translate(65.843 14.003)" fill="#e6e6e6"/>
        <path id="パス_1201" data-name="パス 1201" d="M220.943,444.521l1.078-1.667a25,25,0,0,0-1.106-2.59l-.7.563.552-.853c-.526-1.036-.94-1.689-.94-1.689a23.947,23.947,0,0,0-2.886,7.017l1.384,2.139L216.8,446.2a10.1,10.1,0,0,0-.084,1.268c0,4.274,1.4,7.739,3.118,7.739s3.118-3.465,3.118-7.739a13.309,13.309,0,0,0-.713-3.993Z" transform="translate(-198.719 -320.853)" fill="#a981fc"/>
        <path id="パス_1202" data-name="パス 1202" d="M235.428,458.745l1.941-.416a25,25,0,0,0,1.049-2.614l-.891-.095.994-.213c.36-1.1.529-1.859.529-1.859a23.947,23.947,0,0,0-7,2.922l-.534,2.491L231.3,457a10.111,10.111,0,0,0-.956.837c-3.022,3.022-4.485,6.459-3.268,7.677s4.655-.245,7.677-3.268a13.309,13.309,0,0,0,2.319-3.328Z" transform="translate(-205.569 -331.372)" fill="#a981fc"/>
        <path id="パス_1203" data-name="パス 1203" d="M224.741,496.984c-4.5.288-9.406-.017-14.624,0V485.038a52.707,52.707,0,0,0,14.624,0Z" transform="translate(-194.174 -353.073)" fill="#3f3d56"/>
        <rect id="長方形_238" data-name="長方形 238" width="60.773" height="78.816" transform="translate(155.732 147.66)" fill="#e6e6e6"/>
        <rect id="長方形_239" data-name="長方形 239" width="3.165" height="74.701" transform="translate(28.804 151.775)" fill="#e6e6e6"/>
        <rect id="長方形_240" data-name="長方形 240" width="216.505" height="6.331" transform="translate(0 142.279)" fill="#e6e6e6"/>
        <rect id="長方形_241" data-name="長方形 241" width="6.331" height="6.331" transform="translate(27.221 148.61)" fill="#e6e6e6"/>
        <path id="パス_1204" data-name="パス 1204" d="M542.488,489.8l-.356,1.425h-8.863l-.534-1.425H510.162v14.561h55.076V489.8Z" transform="translate(-351.581 -337.546)" fill="#3f3d56"/>
        <path id="パス_1205" data-name="パス 1205" d="M542.488,548.857l-.356,1.424h-8.863l-.534-1.424H510.162v14.56h55.076v-14.56Z" transform="translate(-351.581 -378.248)" fill="#3f3d56"/>
        <path id="パス_1206" data-name="パス 1206" d="M542.488,607.918l-.356,1.424h-8.863l-.534-1.424H510.162v14.56h55.076v-14.56Z" transform="translate(-351.581 -418.951)" fill="#3f3d56"/>
        <path id="パス_1207" data-name="パス 1207" d="M542.488,666.979l-.356,1.424h-8.863l-.534-1.424H510.162v14.56h55.076v-14.56Z" transform="translate(-351.581 -459.653)" fill="#3f3d56"/>
        <path id="パス_1208" data-name="パス 1208" d="M336.381,436.42H317.706l.633-8.23h17.409Z" transform="translate(-218.949 -295.09)" fill="#e6e6e6"/>
        <rect id="長方形_242" data-name="長方形 242" width="20.891" height="1.899" transform="translate(97.807 140.38)" fill="#e6e6e6"/>
        <path id="パス_1209" data-name="パス 1209" d="M459.182,318.128H387.8a1.9,1.9,0,0,0-1.9,1.9V363.55h75.175V320.027a1.9,1.9,0,0,0-1.9-1.9Z" transform="translate(-315.319 -238.046)" fill="#3f3d56"/>
        <path id="パス_1210" data-name="パス 1210" d="M385.9,464.252v7.122a1.9,1.9,0,0,0,1.9,1.9h71.377a1.9,1.9,0,0,0,1.9-1.9v-7.122Z" transform="translate(-315.319 -338.748)" fill="#e6e6e6"/>
        <rect id="長方形_243" data-name="長方形 243" width="67.737" height="37.984" transform="translate(74.384 84.038)" fill="#fff"/>
        <circle id="楕円形_42" data-name="楕円形 42" cx="1.899" cy="1.899" r="1.899" transform="translate(106.353 128.036)" fill="#3f3d56"/>
        <path id="パス_1211" data-name="パス 1211" d="M974.035,746.856c-6.917.443-14.455-.026-22.474,0V728.5a81.013,81.013,0,0,0,22.474,0Z" transform="translate(-705.145 -520.855)" fill="#3f3d56"/>
        <path id="パス_1212" data-name="パス 1212" d="M827.221,591.049h-1.9l.633-37.1h.633Z" transform="translate(-568.776 -381.757)" fill="#3f3d56"/>
        <path id="パス_1213" data-name="パス 1213" d="M854.715,591.855h-1.9l.633-37.1h.633Z" transform="translate(-587.724 -382.313)" fill="#3f3d56"/>
        <path id="パス_1214" data-name="パス 1214" d="M802.782,591.855h-1.9l.633-37.1h.633Z" transform="translate(-551.934 -382.313)" fill="#3f3d56"/>
        <path id="パス_1215" data-name="パス 1215" d="M968.683,498.779l3.066-4.738a71.043,71.043,0,0,0-3.145-7.363l-1.982,1.6,1.57-2.426c-1.5-2.945-2.673-4.8-2.673-4.8s-6.149,9.689-8.2,19.948l3.934,6.08-4.355-3.518a28.755,28.755,0,0,0-.239,3.6c0,12.15,3.968,22,8.863,22s8.863-9.849,8.863-22a37.835,37.835,0,0,0-2.027-11.352Z" transform="translate(-708.655 -350.328)" fill="#e6e6e6"/>
        <path id="パス_1216" data-name="パス 1216" d="M996.173,500.815l3.066-4.738a71.032,71.032,0,0,0-3.145-7.363l-1.982,1.6,1.57-2.426c-1.5-2.945-2.673-4.8-2.673-4.8s-6.149,9.689-8.2,19.948l3.934,6.08-4.355-3.518a28.779,28.779,0,0,0-.239,3.6c0,12.15,3.968,22,8.863,22s8.863-9.849,8.863-22a37.835,37.835,0,0,0-2.027-11.352Z" transform="translate(-727.6 -351.731)" fill="#a981fc"/>
        <path id="パス_1217" data-name="パス 1217" d="M944.244,500.815l3.066-4.738a71.032,71.032,0,0,0-3.145-7.363l-1.982,1.6,1.57-2.426c-1.5-2.945-2.673-4.8-2.673-4.8s-6.149,9.689-8.2,19.948l3.934,6.08-4.355-3.518a28.756,28.756,0,0,0-.239,3.6c0,12.15,3.968,22,8.863,22s8.863-9.849,8.863-22a37.843,37.843,0,0,0-2.027-11.352Z" transform="translate(-691.813 -351.731)" fill="#a981fc"/>
        <rect id="長方形_244" data-name="長方形 244" width="18.264" height="1.048" transform="translate(96.35 94.76)" fill="#3f3d56"/>
        <rect id="長方形_245" data-name="長方形 245" width="28.204" height="1.048" transform="translate(96.35 98.584)" fill="#a981fc"/>
        <rect id="長方形_246" data-name="長方形 246" width="22.985" height="1.048" transform="translate(96.35 102.187)" fill="#a981fc"/>
        <rect id="長方形_247" data-name="長方形 247" width="13.418" height="1.048" transform="translate(96.35 105.777)" fill="#3f3d56"/>
        <rect id="長方形_248" data-name="長方形 248" width="20.252" height="1.048" transform="translate(96.35 109.366)" fill="#3f3d56"/>
        <rect id="長方形_249" data-name="長方形 249" width="2.236" height="2.236" transform="translate(88.026 94.387)" fill="#3f3d56"/>
        <rect id="長方形_250" data-name="長方形 250" width="2.236" height="2.236" transform="translate(88.026 97.99)" fill="#a981fc"/>
        <rect id="長方形_251" data-name="長方形 251" width="2.236" height="2.236" transform="translate(88.026 101.593)" fill="#a981fc"/>
        <rect id="長方形_252" data-name="長方形 252" width="2.236" height="2.236" transform="translate(88.026 105.197)" fill="#3f3d56"/>
        <rect id="長方形_253" data-name="長方形 253" width="2.236" height="2.236" transform="translate(88.026 108.8)" fill="#3f3d56"/>
        <path id="パス_1218" data-name="パス 1218" d="M583.606,333.628h-9.584a33.518,33.518,0,0,1,0-11.427h9.584A20.562,20.562,0,0,0,583.606,333.628Z" transform="translate(-444.623 -240.853)" fill="#a981fc"/>
        <path id="パス_1219" data-name="パス 1219" d="M350.315,374.1l-3.943-.961a10.151,10.151,0,0,1-9.963-12.161h0a13.268,13.268,0,0,1,13.252-13.285h0a13.268,13.268,0,0,1,13.285,13.252h0A10.544,10.544,0,0,1,350.315,374.1Z" transform="translate(-281.07 -258.419)" fill="#2f2e41"/>
        <circle id="楕円形_43" data-name="楕円形 43" cx="9.749" cy="9.749" r="9.749" transform="translate(63.803 97.567)" fill="#ffb8b8"/>
        <path id="パス_1220" data-name="パス 1220" d="M364.363,422.108s-2.967,10.173-4.663,11.021,13.564,2.119,13.564,2.119-.424-9.749.424-10.6S364.363,422.108,364.363,422.108Z" transform="translate(-297.169 -309.705)" fill="#ffb8b8"/>
        <path id="パス_1221" data-name="パス 1221" d="M374.263,623.471s19.075-1.7,21.618,4.663-1.7,44.083-1.7,44.083h-8.054V641.274s-34.34-9.761-34.34-13.152S374.263,623.471,374.263,623.471Z" transform="translate(-291.81 -448.334)" fill="#2f2e41"/>
        <path id="パス_1222" data-name="パス 1222" d="M468,775.29l4.239,1.7s5.087-.424,2.967,3.391a8.393,8.393,0,0,1-5.934,4.239s-8.054,2.967-8.478,0,2.119-8.9,2.119-8.9Z" transform="translate(-366.898 -553.102)" fill="#2f2e41"/>
        <path id="パス_1223" data-name="パス 1223" d="M361.222,617.045s19.075-1.7,21.618,4.663-1.7,44.083-1.7,44.083h-8.054V634.848s-24.376-5.646-24.376-9.037c0-1.593-1.661-9.689,1.266-11.4C353.285,612.49,361.222,617.045,361.222,617.045Z" transform="translate(-289.366 -441.907)" fill="#2f2e41"/>
        <path id="パス_1224" data-name="パス 1224" d="M433.91,775.29l4.239,1.7s5.087-.424,2.967,3.391a8.394,8.394,0,0,1-5.934,4.239s-8.054,2.967-8.478,0,2.119-8.9,2.119-8.9Z" transform="translate(-343.404 -553.102)" fill="#2f2e41"/>
        <path id="パス_1225" data-name="パス 1225" d="M347.231,453.471l12.738,1.385a9.382,9.382,0,0,1,8.166,7.388l4.953,23.443s1.7,23.313-1.7,24.585-8.054-5.087-14.412-4.239-14.624,2.755-14.624,2.755-1.313-41.73-1.484-45.143C340.531,456.821,347.231,453.471,347.231,453.471Z" transform="translate(-284.276 -331.319)" fill="#575a89"/>
        <path id="パス_1226" data-name="パス 1226" d="M452.845,627.823l5.229,3.08s9.382-1.346,9.089,1.952-10.534,2.66-10.534,2.66l-6.3-3.883Z" transform="translate(-359.716 -451.474)" fill="#ffb8b8"/>
        <circle id="楕円形_44" data-name="楕円形 44" cx="6.298" cy="6.298" r="6.298" transform="translate(48.331 86.792)" fill="#2f2e41"/>
        <path id="パス_1227" data-name="パス 1227" d="M336.553,334.077a6.295,6.295,0,0,0-7.537-6.166,6.295,6.295,0,1,1,3.926,11.863A6.292,6.292,0,0,0,336.553,334.077Z" transform="translate(-276.114 -244.372)" fill="#2f2e41"/>
        <path id="パス_1228" data-name="パス 1228" d="M350.761,357.109l8.49-1.563,6.529,4.092a9.9,9.9,0,0,1,4.562,9.666l-6.539-1.657-1.464-3.672-1.744,2.859-9.118,11.734-5.12-3.26-4.564-7.152Z" transform="translate(-284.919 -263.833)" fill="#2f2e41"/>
        <path id="パス_1229" data-name="パス 1229" d="M393.136,460.372l4.239-2.119s8.9,1.272,10.6,7.206,9.325,47.051,9.325,47.051l-7.206,3.391-10.173-25.009Z" transform="translate(-320.302 -334.614)" fill="#575a89"/>
        <path id="パス_1230" data-name="パス 1230" d="M245.917,458.23l4.242,16.467,7.523,18.494-.261.64-8.973-18.825Z" transform="translate(-169.475 -315.792)" opacity="0.2"/>
        <path id="パス_1231" data-name="パス 1231" d="M140.767,653.8l-1.5-.515,14.493-43.049,2.1.722Z" transform="translate(-95.979 -420.544)" fill="#3f3d56"/>
        <path id="パス_1232" data-name="パス 1232" d="M288.832,653.8l1.5-.515-14.493-43.049-2.095.722Z" transform="translate(-188.65 -420.544)" fill="#3f3d56"/>
        <path id="パス_1233" data-name="パス 1233" d="M223.456,667.407l1.583.006.492-50.323-2.216-.008Z" transform="translate(-153.899 -425.266)" fill="#3f3d56"/>
        <path id="パス_1234" data-name="パス 1234" d="M290.667,570.229l4.341,17.546a13.933,13.933,0,0,0,10.147,10.171h0a74.059,74.059,0,0,0,36.85-.237L348.486,596a9.148,9.148,0,0,0,6.866-8.113,7.984,7.984,0,0,0-.722-4l-.076-.16a10.589,10.589,0,0,0-9.2-5.949l-6.866-.221-25.006-11.078s-8.6-4.368-15.67-4.857A6.934,6.934,0,0,0,290.667,570.229Z" transform="translate(-249.543 -405.838)" fill="#a981fc"/>
        <rect id="長方形_254" data-name="長方形 254" width="24.689" height="33.552" transform="translate(168.868 109.202)" fill="#e6e6e6"/>
        <rect id="長方形_255" data-name="長方形 255" width="18.992" height="25.809" transform="translate(171.717 113.074)" fill="#fff"/>
        <rect id="長方形_256" data-name="長方形 256" width="9.202" height="1.048" transform="translate(179.191 119.828)" fill="#3f3d56"/>
        <rect id="長方形_257" data-name="長方形 257" width="2.236" height="2.236" transform="translate(174.032 119.247)" fill="#3f3d56"/>
        <rect id="長方形_258" data-name="長方形 258" width="9.202" height="1.048" transform="translate(179.191 124.259)" fill="#3f3d56"/>
        <rect id="長方形_259" data-name="長方形 259" width="2.236" height="2.236" transform="translate(174.032 123.679)" fill="#3f3d56"/>
        <rect id="長方形_260" data-name="長方形 260" width="9.202" height="1.048" transform="translate(179.191 128.691)" fill="#3f3d56"/>
        <rect id="長方形_261" data-name="長方形 261" width="2.236" height="2.236" transform="translate(174.032 128.11)" fill="#3f3d56"/>
        <rect id="長方形_262" data-name="長方形 262" width="1.899" height="1.899" rx="0.95" transform="translate(180.263 110.152)" fill="#3f3d56"/>
      </g>
      <g id="グループ_825" data-name="グループ 825" transform="translate(202.647 -394.697)">
        <path id="パス_1236" data-name="パス 1236" d="M855.3,529.422a58.563,58.563,0,0,0,35.487-24.709c4.628-7.066,7.657-15.066,9.985-23.186,2.284-7.966,3.919-16.5,1.673-24.478a26.266,26.266,0,0,0-43.476-11.829,18.825,18.825,0,0,0-5.75,9.987c-1.453,8.062,3.945,15.643,5.516,23.683,1.623,8.309-.9,16.783-2.812,25.03s-3.121,17.334.811,24.831" transform="translate(-83.598 4061.038)" fill="#f2f2f2"/>
        <path id="パス_1239" data-name="パス 1239" d="M773.93,502.357a70.43,70.43,0,1,1,70.43-70.43A70.509,70.509,0,0,1,773.93,502.357Zm0-140.006a69.576,69.576,0,1,0,69.576,69.576A69.655,69.655,0,0,0,773.93,362.352Z" transform="translate(2.075 4104.827)" fill="#3f3d56"/>
        <path id="パス_1243" data-name="パス 1243" d="M837.584,552.118a4.633,4.633,0,0,1,4.328,4.8,4.433,4.433,0,0,1-.1.728l13.677,8.616-7.561,3.344-11.828-8.7a4.62,4.62,0,0,1-3.267-4.6,4.422,4.422,0,0,1,4.631-4.2Z" transform="translate(-72.05 3995.58)" fill="#ffb6b6"/>
        <path id="パス_1244" data-name="パス 1244" d="M870.317,547.449l-3.39,6.994,13.4,8.624a6.667,6.667,0,0,0,6.481.434h0a6.388,6.388,0,0,0,3.543-6.814L886,531.86a6.888,6.888,0,0,0-7.562-5.7h0a6.532,6.532,0,0,0-5.783,7.2q.011.1.025.2a6.711,6.711,0,0,0,.137.709l4.747,17.657Z" transform="translate(-91.594 4010.477)" fill="#a981fc"/>
        <path id="パス_1245" data-name="パス 1245" d="M839.391,560.482l-5.047-13.023a1.8,1.8,0,0,1,1.029-2.332l2.838-1.1a1.8,1.8,0,0,1,2.332,1.029l5.047,13.023a1.8,1.8,0,0,1-1.029,2.332l-2.838,1.1A1.8,1.8,0,0,1,839.391,560.482Z" transform="translate(-72.849 4000.28)" fill="#3f3d56"/>
        <path id="パス_1246" data-name="パス 1246" d="M837.467,546.457a.972.972,0,0,0-.555,1.257l5.047,13.023a.972.972,0,0,0,1.257.555l2.838-1.1a.972.972,0,0,0,.555-1.257l-5.047-13.023a.972.972,0,0,0-1.257-.555Z" transform="translate(-74.353 3999.485)" fill="#a981fc"/>
        <rect id="長方形_263" data-name="長方形 263" width="19.167" height="19.167" transform="translate(796.937 4587.935) rotate(180)" fill="#ffb8b8"/>
        <path id="パス_1247" data-name="パス 1247" d="M584.346,616.936l-7.32-2.463L572.95,634.4l4.96,1.669Z" transform="translate(147.97 4008.28)" fill="#ffb6b6"/>
        <path id="パス_1248" data-name="パス 1248" d="M619.97,611.362l-7.516,1.777,7.068,19.07,5.093-1.2Z" transform="translate(125.328 4010.063)" fill="#ffb6b6"/>
        <path id="パス_1249" data-name="パス 1249" d="M818.247,640.937c3.842,25.611-47.316,10.469-47.316,10.469l-16.04,22.128-9.391-1.707s4.226-13.284,11.772-31.091c3.351-7.908,41.4-5.976,41.4-5.976l.79-6.2,21.769-.427Z" transform="translate(-21.997 3952.005)" fill="#2f2e41"/>
        <path id="パス_1250" data-name="パス 1250" d="M782.587,669.786l-13.933.321c2.233,19.211,4.2,26.874,4.2,26.874l8.11-2.561Z" transform="translate(-35.268 3928.131)" fill="#2f2e41"/>
        <path id="パス_1251" data-name="パス 1251" d="M873.732,521.55l3.858-4.959,5.5-.239.549,4.664,2.727,1.257a73.131,73.131,0,0,1,1.232,31.683h0a2.821,2.821,0,0,0-.8,2.74l.177.7-.016.026a4.129,4.129,0,0,0-.548,3.082h0l1.3,2.314a6.571,6.571,0,0,1-3.5,9.4c-8,2.9-15.508,3.982-21.059-4.16l-1.745-28.373Z" transform="translate(-88.432 4016.072)" fill="#a981fc"/>
        <circle id="楕円形_45" data-name="楕円形 45" cx="10.175" cy="10.175" r="10.175" transform="translate(779.167 4513.63)" fill="#ffb8b8"/>
        <path id="パス_1252" data-name="パス 1252" d="M888.1,464.492c4.308.083,7.725,4.079,7.632,8.926,3.188,3.327,2.134,7.4-.53,11.75a29.307,29.307,0,0,0-10.284,2.544l-.563-2.631-1.276,3.426q-1.629.751-3.234,1.649c-.769-3.526-.578-6.953,1.488-9.939,1.836-2.652-2.631-5.8-5.826-5.356h0l.047-2.436-.8,2.421c-1.245.915-2.623.584-4.035-.078h0C868.422,462.866,886.156,459.61,888.1,464.492Z" transform="translate(-93.646 4047.047)" fill="#2f2e41"/>
        <path id="パス_1253" data-name="パス 1253" d="M735.282,769.675l-3.261-.426-.18-3.155-1.893,2.884-8.65-1.13a1.961,1.961,0,0,1-.642-3.689l7.531-3.868.407-3.113,7.209,1.383Z" transform="translate(-7.148 3878.041)" fill="#2f2e41"/>
        <path id="パス_1254" data-name="パス 1254" d="M790.077,767.64l-3.262.42-.979-3-1.095,3.272-8.652,1.113a1.961,1.961,0,0,1-1.561-3.4l6.3-5.661-.4-3.114,7.323-.5Z" transform="translate(-38.262 3878.281)" fill="#2f2e41"/>
        <path id="パス_1255" data-name="パス 1255" d="M840.459,557.7a4.633,4.633,0,0,1,4.328,4.8,4.441,4.441,0,0,1-.1.728l13.677,8.616-7.561,3.344-11.828-8.695a4.62,4.62,0,0,1-3.267-4.6,4.422,4.422,0,0,1,4.631-4.2Z" transform="translate(-73.698 3992.383)" fill="#ffb6b6"/>
        <path id="パス_1256" data-name="パス 1256" d="M873.192,553.026l-3.39,6.994,13.4,8.624a6.667,6.667,0,0,0,6.481.434h0a6.388,6.388,0,0,0,3.543-6.813l-4.349-24.827a6.888,6.888,0,0,0-7.562-5.7h0a6.532,6.532,0,0,0-5.783,7.2q.011.1.025.2a6.7,6.7,0,0,0,.137.709l4.747,17.657Z" transform="translate(-93.241 4007.28)" fill="#a981fc"/>
      </g>
    </g>
    <circle id="楕円形_46" data-name="楕円形 46" cx="37" cy="37" r="37" transform="translate(489 4005)" fill="#a981fc"/>
    <circle id="楕円形_47" data-name="楕円形 47" cx="37" cy="37" r="37" transform="translate(720 4113)" fill="#a981fc"/>
    <circle id="楕円形_48" data-name="楕円形 48" cx="37" cy="37" r="37" transform="translate(894 4005)" fill="#a981fc"/>
    <text id="自宅で" transform="translate(526 4047)" fill="#fff" font-size="14" font-family="YuGothic-Medium, Yu Gothic" font-weight="500" letter-spacing="0.04em"><tspan x="-21.56" y="0">自宅で</tspan></text>
    <text id="校舎で" transform="translate(757 4155)" fill="#fff" font-size="14" font-family="YuGothic-Medium, Yu Gothic" font-weight="500" letter-spacing="0.04em"><tspan x="-21.56" y="0">校舎で</tspan></text>
    <text id="出先で" transform="translate(931 4047)" fill="#fff" font-size="14" font-family="YuGothic-Medium, Yu Gothic" font-weight="500" letter-spacing="0.04em"><tspan x="-21.56" y="0">出先で</tspan></text>
  </g>
</svg>
