<svg xmlns="http://www.w3.org/2000/svg" width="197.522" height="192.159" viewBox="0 0 197.522 192.159">
  <g id="undraw_schedule_re_2vro" transform="translate(0)">
    <path id="パス_1270" data-name="パス 1270" d="M494.465,656.351l-5.144,4.735,4.088-6.859a52.97,52.97,0,0,0-8.488-10.888s-10.928,10.47-10.928,18.7,4.893,11.1,10.928,11.1,10.928-2.874,10.928-11.1A14.428,14.428,0,0,0,494.465,656.351Z" transform="translate(-418.201 -481.33)" fill="#f2f2f2"/>
    <path id="パス_1271" data-name="パス 1271" d="M509,660.461v.406c-.024,4.715-.819,8.394-2.38,10.985-.022.038-.046.074-.068.112l-.175-.106-.167-.1c1.731-2.8,2.344-6.752,2.366-10.865,0-.133,0-.267,0-.4-.006-1.741-.112-3.5-.283-5.213-.012-.133-.026-.267-.04-.4-.237-2.257-.578-4.414-.928-6.288-.024-.132-.05-.265-.076-.4-.6-3.169-1.221-5.464-1.362-5.972-.016-.062-.026-.1-.028-.1l.191-.054,0,0,.193-.054c0,.008.036.122.092.335.215.8.773,2.954,1.321,5.8.024.129.05.261.074.394.285,1.52.564,3.219.785,5q.084.672.151,1.325c.016.135.03.269.042.4Q508.987,658.036,509,660.461Z" transform="translate(-439.2 -480.448)" fill="#fff"/>
    <path id="パス_1272" data-name="パス 1272" d="M498.658,658.174c-.135.018-.271.036-.41.05a11.039,11.039,0,0,1-1.133.058,10.776,10.776,0,0,1-4.659-1.052l-.255.321a11.175,11.175,0,0,0,4.914,1.133,11.461,11.461,0,0,0,1.209-.064c.137-.014.273-.032.408-.052a11.081,11.081,0,0,0,3.2-.97l-.253-.325a10.74,10.74,0,0,1-3.024.9Z" transform="translate(-430.2 -490.484)" fill="#fff"/>
    <path id="パス_1273" data-name="パス 1273" d="M495.4,670.76q-.208.012-.416.012c-.042,0-.086,0-.129,0a10.834,10.834,0,0,1-8.893-4.645c-.08.119-.161.237-.239.358a11.236,11.236,0,0,0,9.131,4.689c.056,0,.112,0,.169,0,.141,0,.279-.006.418-.012a11.177,11.177,0,0,0,5.954-2.089c-.064-.118-.128-.237-.195-.355A10.76,10.76,0,0,1,495.4,670.76Z" transform="translate(-425.931 -496.348)" fill="#fff"/>
    <path id="パス_1274" data-name="パス 1274" d="M492.732,681.1c-.141.012-.281.02-.422.026s-.3.01-.452.01a10.863,10.863,0,0,1-10.415-7.816c-.09.163-.181.323-.267.486a11.261,11.261,0,0,0,10.682,7.732c.151,0,.3,0,.45-.01s.283-.012.424-.022a11.228,11.228,0,0,0,7.41-3.617c-.042-.149-.09-.3-.139-.444A10.828,10.828,0,0,1,492.732,681.1Z" transform="translate(-422.935 -501.087)" fill="#fff"/>
    <path id="パス_1275" data-name="パス 1275" d="M507.62,197.319H310.67a.286.286,0,0,1,0-.572H507.62a.286.286,0,0,1,0,.572Z" transform="translate(-310.384 -187.029)" fill="#cacaca"/>
    <circle id="楕円形_49" data-name="楕円形 49" cx="3.144" cy="3.144" r="3.144" transform="translate(3.575 0)" fill="#3f3d56"/>
    <circle id="楕円形_50" data-name="楕円形 50" cx="3.144" cy="3.144" r="3.144" transform="translate(14.438 0)" fill="#3f3d56"/>
    <circle id="楕円形_51" data-name="楕円形 51" cx="3.144" cy="3.144" r="3.144" transform="translate(25.3 0)" fill="#3f3d56"/>
    <path id="パス_1276" data-name="パス 1276" d="M853.673,171.677h-7.718a.572.572,0,1,1,0-1.143h7.718a.572.572,0,1,1,0,1.143Z" transform="translate(-662.945 -169.754)" fill="#3f3d56"/>
    <path id="パス_1277" data-name="パス 1277" d="M853.673,177.964h-7.718a.572.572,0,1,1,0-1.143h7.718a.572.572,0,1,1,0,1.143Z" transform="translate(-662.945 -173.897)" fill="#3f3d56"/>
    <path id="パス_1278" data-name="パス 1278" d="M853.673,184.251h-7.718a.572.572,0,1,1,0-1.143h7.718a.572.572,0,1,1,0,1.143Z" transform="translate(-662.945 -178.04)" fill="#3f3d56"/>
    <rect id="長方形_268" data-name="長方形 268" width="180.488" height="95.625" transform="translate(5.933 23.218)" fill="#f0f0f0"/>
    <path id="パス_1279" data-name="パス 1279" d="M508.271,254.232v-.938H473.137V236.333H472.2v16.962H437.065V236.333h-.938v16.962H400.994V236.333h-.938v16.962H364.922V236.333h-.938v16.962h-36.2v.938h36.2v18.738h-36.2v.938h36.2v18.738h-36.2v.938h36.2v18.735h-36.2v.938h36.2v18.7h.938v-18.7h35.134v18.7h.938v-18.7h35.134v18.7h.938v-18.7H472.2v18.7h.938v-18.7h35.134v-.938H473.137V293.585h35.134v-.938H473.137V273.908h35.134v-.938H473.137V254.232ZM400.056,312.319H364.922V293.585h35.134Zm0-19.673H364.922V273.908h35.134Zm0-19.676H364.922V254.232h35.134Zm36.072,39.349H400.994V293.585h35.134Zm0-19.673H400.994V273.908h35.134Zm0-19.676H400.994V254.232h35.134ZM472.2,312.319H437.065V293.585H472.2Zm0-19.673H437.065V273.908H472.2Zm0-19.676H437.065V254.232H472.2Z" transform="translate(-321.85 -213.115)" fill="#fff"/>
    <rect id="長方形_269" data-name="長方形 269" width="12.075" height="11.69" transform="translate(50.061 45.674)" fill="#cacaca"/>
    <rect id="長方形_270" data-name="長方形 270" width="12.075" height="11.69" transform="translate(161.229 83.526)" fill="#cacaca"/>
    <rect id="長方形_271" data-name="長方形 271" width="12.075" height="11.69" transform="translate(53.812 102.963)" fill="#cacaca"/>
    <rect id="長方形_272" data-name="長方形 272" width="12.075" height="11.69" transform="translate(57.381 43.505)" fill="#a981fc"/>
    <path id="パス_1280" data-name="パス 1280" d="M370.13,245.405l14.329-12.766,4.227,2.094L371.5,252.758Z" transform="translate(-243.913 -153.308)" fill="#ffb6b6"/>
    <circle id="楕円形_52" data-name="楕円形 52" cx="3.41" cy="3.41" r="3.41" transform="translate(139.021 76.899)" fill="#ffb6b6"/>
    <path id="パス_1281" data-name="パス 1281" d="M321.13,526.584h-3.391l-1.613-13.078h5Z" transform="translate(-208.325 -338.397)" fill="#ffb6b6"/>
    <path id="パス_1282" data-name="パス 1282" d="M622.592,721.25H611.659v-.138a4.255,4.255,0,0,1,4.255-4.255h6.678Z" transform="translate(-508.923 -529.777)" fill="#2f2e41"/>
    <path id="パス_1283" data-name="パス 1283" d="M285.13,526.584h-3.391l-1.613-13.078h5Z" transform="translate(-184.601 -338.397)" fill="#ffb6b6"/>
    <path id="パス_1284" data-name="パス 1284" d="M586.591,721.25H575.659v-.138a4.255,4.255,0,0,1,4.255-4.255h6.678Z" transform="translate(-485.199 -529.777)" fill="#2f2e41"/>
    <path id="パス_1285" data-name="パス 1285" d="M597.69,500.877s8.525-.682,5.8,14.322-8.379,56.048-8.379,56.048l-5.123.7L586.958,517.2l-2.29,54.752-6.516-.7-6.379-58.776s-2.048-4.726,0-7.989S597.69,500.877,597.69,500.877Z" transform="translate(-482.038 -387.445)" fill="#2f2e41"/>
    <path id="パス_1286" data-name="パス 1286" d="M633.533,389.42l2.367-1.268s5.832-.5,8.211,6.353l6.312,9.533,10.23-8.866,4.433,3.069-12.893,15.388-5.361.685-11.594-15Z" transform="translate(-523.337 -313.158)" fill="#3f3d56"/>
    <path id="パス_1287" data-name="パス 1287" d="M584.293,310.753c-9.725,0-12.447,10.683-12.447,16.709s5.573,5.115,12.447,5.115a67.774,67.774,0,0,0,7.793-.118l1.026-2.505.826,2.076c1.751-.643,2.8-1.951,2.8-4.567C596.739,321.436,594.352,310.753,584.293,310.753Z" transform="translate(-482.686 -262.158)" fill="#2f2e41"/>
    <circle id="楕円形_53" data-name="楕円形 53" cx="8.375" cy="8.375" r="8.375" transform="translate(93.19 53.659)" fill="#ffb6b6"/>
    <path id="パス_1288" data-name="パス 1288" d="M579.846,330.619h3.313l1.461-4.092.292,4.092H586.5l.853-2.387.171,2.387h11.765a8.866,8.866,0,0,0-8.866-8.866h-1.705a8.866,8.866,0,0,0-8.866,8.866Z" transform="translate(-487.958 -269.406)" fill="#2f2e41"/>
    <rect id="長方形_273" data-name="長方形 273" width="12.075" height="11.69" transform="translate(135.813 67.376)" fill="#a981fc"/>
    <path id="パス_1289" data-name="パス 1289" d="M596.8,418.634c-1.286.016-5.159-22.967-5.159-22.967l-.58-12.385-4.232-.142v-.278a2.108,2.108,0,0,0-2.108-2.108h-8.061a2.106,2.106,0,0,0-2.1,1.974l-3.319-.112-5.748,18.262s5.3,16.969,2.74,24.447c0,0,24.906,2.139,29.674-2.609C597.909,422.715,598.088,418.617,596.8,418.634Z" transform="translate(-478.5 -308.287)" fill="#3f3d56"/>
    <path id="パス_1290" data-name="パス 1290" d="M556.568,388.084l-1.426-2.275s-4.641-1.147-6.552,1.928-7.527,19.739-7.527,19.739l5.8,2.046,6.578-9.223Z" transform="translate(-462.4 -311.481)" fill="#3f3d56"/>
    <rect id="長方形_274" data-name="長方形 274" width="12.075" height="11.69" transform="translate(96.597 88.518)" fill="#a981fc"/>
    <path id="パス_1291" data-name="パス 1291" d="M557.616,439.357l-4.2-.444h0a4.121,4.121,0,0,0,2.925,5.79l16.622,3.317-1.734-5.34Z" transform="translate(-470.283 -346.614)" fill="#ffb6b6"/>
    <circle id="楕円形_54" data-name="楕円形 54" cx="3.41" cy="3.41" r="3.41" transform="translate(99.318 94.648)" fill="#ffb6b6"/>
    <path id="パス_1292" data-name="パス 1292" d="M566.026,445.454l-12.663-2.894a5.471,5.471,0,0,1-3.967-3.628l-.512-1.578,3.286-2.586,15.056,4.208Z" transform="translate(-467.554 -343.883)" fill="#3f3d56"/>
    <path id="パス_1293" data-name="パス 1293" d="M556.087,730.435H426.164a.341.341,0,0,1,0-.682H556.087a.341.341,0,0,1,0,.682Z" transform="translate(-386.458 -538.276)" fill="#cacaca"/>
  </g>
</svg>
