<svg xmlns="http://www.w3.org/2000/svg" width="103.837" height="86.836" viewBox="0 0 103.837 86.836">
  <g id="グループ_820" data-name="グループ 820" transform="translate(-215.521 -4063.897)">
    <path id="パス_1134" data-name="パス 1134" d="M475.1,597.21H383.779a6.259,6.259,0,1,0,0,12.518H475.1a6.246,6.246,0,0,0,4.7-2.127,6.325,6.325,0,0,0,.7-.974,5.958,5.958,0,0,0,.408-.831,6.255,6.255,0,0,0-5.808-8.586Z" transform="translate(-161.999 3520.434)" fill="#ccc"/>
    <path id="パス_1136" data-name="パス 1136" d="M482.2,636.34a67.439,67.439,0,0,1-6.562,6.756H385.652a67.449,67.449,0,0,1-6.562-6.756Z" transform="translate(-163.202 3490.436)" fill="#3f3d56"/>
    <path id="パス_1137" data-name="パス 1137" d="M579.858,536.07h-15.15a.741.741,0,0,0-.24.037.8.8,0,0,0-.567.77v23.934h16.767V536.877a.808.808,0,0,0-.81-.807Zm-5.734,11.808a1.757,1.757,0,0,1-.364,1.073,1.789,1.789,0,0,1-3.216-1.074V545.1a1.79,1.79,0,1,1,3.58,0Z" transform="translate(-304.884 3567.306)" fill="#2f2e41"/>
    <path id="パス_1138" data-name="パス 1138" d="M563.68,638.81v2.308a.453.453,0,0,0,.451.453H580.1a.454.454,0,0,0,.45-.453V638.81Z" transform="translate(-304.715 3488.542)" fill="#3f3d56"/>
    <path id="パス_1139" data-name="パス 1139" d="M520.14,376.02H455.38a2.1,2.1,0,0,0-2.1,2.1v43.7a2.1,2.1,0,0,0,2.1,2.1H520.14a2.1,2.1,0,0,0,2.1-2.1v-43.7A2.1,2.1,0,0,0,520.14,376.02Z" transform="translate(-220.079 3690.006)" fill="#3f3d56"/>
    <path id="パス_1140" data-name="パス 1140" d="M524.581,382.52H460.9a1.125,1.125,0,0,0-1.122,1.125v42.617a1.124,1.124,0,0,0,1.122,1.122h63.679a1.124,1.124,0,0,0,1.122-1.122V383.645a1.125,1.125,0,0,0-1.122-1.125Z" transform="translate(-225.062 3685.023)" fill="#a981fc"/>
    <path id="パス_1141" data-name="パス 1141" d="M558.251,639.486l-.588-2.793a.7.7,0,0,0-.434-.506.675.675,0,0,0-.247-.047H520.271a.675.675,0,0,0-.247.047.7.7,0,0,0-.434.506L519,639.486a.7.7,0,0,0,.681.84h37.885a.688.688,0,0,0,.541-.259A.7.7,0,0,0,558.251,639.486Z" transform="translate(-270.451 3490.589)" fill="#2f2e41"/>
    <rect id="長方形_133" data-name="長方形 133" width="1.167" height="0.7" rx="0.35" transform="translate(250.088 4127.232)" fill="#3f3d56"/>
    <rect id="長方形_134" data-name="長方形 134" width="1.167" height="0.7" rx="0.35" transform="translate(252.422 4127.232)" fill="#3f3d56"/>
    <rect id="長方形_135" data-name="長方形 135" width="1.167" height="0.7" rx="0.35" transform="translate(254.756 4127.232)" fill="#3f3d56"/>
    <rect id="長方形_136" data-name="長方形 136" width="1.167" height="0.7" rx="0.35" transform="translate(257.089 4127.232)" fill="#3f3d56"/>
    <rect id="長方形_137" data-name="長方形 137" width="1.167" height="0.7" rx="0.35" transform="translate(259.423 4127.232)" fill="#3f3d56"/>
    <rect id="長方形_138" data-name="長方形 138" width="1.167" height="0.7" rx="0.35" transform="translate(261.757 4127.232)" fill="#3f3d56"/>
    <rect id="長方形_139" data-name="長方形 139" width="1.167" height="0.7" rx="0.35" transform="translate(264.09 4127.232)" fill="#3f3d56"/>
    <rect id="長方形_140" data-name="長方形 140" width="1.167" height="0.7" rx="0.35" transform="translate(266.424 4127.232)" fill="#3f3d56"/>
    <rect id="長方形_141" data-name="長方形 141" width="1.167" height="0.7" rx="0.35" transform="translate(268.758 4127.232)" fill="#3f3d56"/>
    <rect id="長方形_142" data-name="長方形 142" width="1.167" height="0.7" rx="0.35" transform="translate(271.091 4127.232)" fill="#3f3d56"/>
    <rect id="長方形_143" data-name="長方形 143" width="1.167" height="0.7" rx="0.35" transform="translate(273.425 4127.232)" fill="#3f3d56"/>
    <rect id="長方形_144" data-name="長方形 144" width="1.167" height="0.7" rx="0.35" transform="translate(275.759 4127.232)" fill="#3f3d56"/>
    <rect id="長方形_145" data-name="長方形 145" width="1.167" height="0.7" rx="0.35" transform="translate(278.092 4127.232)" fill="#3f3d56"/>
    <rect id="長方形_146" data-name="長方形 146" width="1.167" height="0.7" rx="0.35" transform="translate(280.426 4127.232)" fill="#3f3d56"/>
    <rect id="長方形_147" data-name="長方形 147" width="1.167" height="0.7" rx="0.35" transform="translate(282.76 4127.232)" fill="#3f3d56"/>
    <rect id="長方形_148" data-name="長方形 148" width="1.167" height="0.7" rx="0.35" transform="translate(285.093 4127.232)" fill="#3f3d56"/>
    <rect id="長方形_149" data-name="長方形 149" width="1.167" height="0.7" rx="0.35" transform="translate(250.061 4128.399)" fill="#3f3d56"/>
    <rect id="長方形_150" data-name="長方形 150" width="1.167" height="0.7" rx="0.35" transform="translate(252.395 4128.399)" fill="#3f3d56"/>
    <rect id="長方形_151" data-name="長方形 151" width="1.167" height="0.7" rx="0.35" transform="translate(254.728 4128.399)" fill="#3f3d56"/>
    <rect id="長方形_152" data-name="長方形 152" width="1.167" height="0.7" rx="0.35" transform="translate(257.062 4128.399)" fill="#3f3d56"/>
    <rect id="長方形_153" data-name="長方形 153" width="1.167" height="0.7" rx="0.35" transform="translate(259.396 4128.399)" fill="#3f3d56"/>
    <rect id="長方形_154" data-name="長方形 154" width="1.167" height="0.7" rx="0.35" transform="translate(261.729 4128.399)" fill="#3f3d56"/>
    <rect id="長方形_155" data-name="長方形 155" width="1.167" height="0.7" rx="0.35" transform="translate(264.063 4128.399)" fill="#3f3d56"/>
    <rect id="長方形_156" data-name="長方形 156" width="1.167" height="0.7" rx="0.35" transform="translate(266.397 4128.399)" fill="#3f3d56"/>
    <rect id="長方形_157" data-name="長方形 157" width="1.167" height="0.7" rx="0.35" transform="translate(268.73 4128.399)" fill="#3f3d56"/>
    <rect id="長方形_158" data-name="長方形 158" width="1.167" height="0.7" rx="0.35" transform="translate(271.064 4128.399)" fill="#3f3d56"/>
    <rect id="長方形_159" data-name="長方形 159" width="1.167" height="0.7" rx="0.35" transform="translate(273.398 4128.399)" fill="#3f3d56"/>
    <rect id="長方形_160" data-name="長方形 160" width="1.167" height="0.7" rx="0.35" transform="translate(275.731 4128.399)" fill="#3f3d56"/>
    <rect id="長方形_161" data-name="長方形 161" width="1.167" height="0.7" rx="0.35" transform="translate(278.065 4128.399)" fill="#3f3d56"/>
    <rect id="長方形_162" data-name="長方形 162" width="1.167" height="0.7" rx="0.35" transform="translate(280.398 4128.399)" fill="#3f3d56"/>
    <rect id="長方形_163" data-name="長方形 163" width="1.167" height="0.7" rx="0.35" transform="translate(282.732 4128.399)" fill="#3f3d56"/>
    <rect id="長方形_164" data-name="長方形 164" width="1.167" height="0.7" rx="0.35" transform="translate(285.066 4128.399)" fill="#3f3d56"/>
    <rect id="長方形_165" data-name="長方形 165" width="9.335" height="0.7" rx="0.35" transform="translate(261.262 4129.799)" fill="#3f3d56"/>
    <path id="パス_1142" data-name="パス 1142" d="M527.23,406.12H467.646a.237.237,0,1,1,0-.474H527.23a.237.237,0,1,1,0,.474Z" transform="translate(-230.911 3667.294)" fill="#3f3d56"/>
    <ellipse id="楕円形_29" data-name="楕円形 29" cx="1.389" cy="1.42" rx="1.389" ry="1.42" transform="translate(239.403 4068.891)" fill="#3f3d56"/>
    <ellipse id="楕円形_30" data-name="楕円形 30" cx="1.389" cy="1.42" rx="1.389" ry="1.42" transform="translate(244.2 4068.891)" fill="#3f3d56"/>
    <ellipse id="楕円形_31" data-name="楕円形 31" cx="1.389" cy="1.42" rx="1.389" ry="1.42" transform="translate(248.997 4068.891)" fill="#3f3d56"/>
    <path id="パス_1143" data-name="パス 1143" d="M699.35,389.8h-3.407a.258.258,0,0,0,0,.516h3.407a.258.258,0,1,0,0-.516Z" transform="translate(-405.919 3679.442)" fill="#3f3d56"/>
    <path id="パス_1144" data-name="パス 1144" d="M699.349,393.95h-3.407a.258.258,0,0,0,0,.516h3.407a.258.258,0,1,0,0-.516Z" transform="translate(-405.918 3676.26)" fill="#3f3d56"/>
    <path id="パス_1145" data-name="パス 1145" d="M699.35,398.1h-3.407a.258.258,0,0,0,0,.516h3.407a.258.258,0,1,0,0-.516Z" transform="translate(-405.919 3673.079)" fill="#3f3d56"/>
    <rect id="長方形_166" data-name="長方形 166" width="2.568" height="1.344" rx="0.672" transform="translate(239.977 4078.92)" fill="#e6e6e6"/>
    <rect id="長方形_167" data-name="長方形 167" width="2.568" height="1.344" rx="0.672" transform="translate(253.979 4078.92)" fill="#e6e6e6"/>
    <rect id="長方形_168" data-name="長方形 168" width="2.568" height="1.344" rx="0.672" transform="translate(257.946 4078.92)" fill="#e6e6e6"/>
    <rect id="長方形_169" data-name="長方形 169" width="8.953" height="1.344" rx="0.672" transform="translate(243.785 4078.808)" fill="#e6e6e6"/>
    <rect id="長方形_170" data-name="長方形 170" width="8.953" height="1.344" rx="0.672" transform="translate(262.455 4078.808)" fill="#e6e6e6"/>
    <rect id="長方形_171" data-name="長方形 171" width="2.568" height="1.344" rx="0.672" transform="translate(243.711 4081.954)" fill="#e6e6e6"/>
    <rect id="長方形_172" data-name="長方形 172" width="2.568" height="1.344" rx="0.672" transform="translate(257.713 4081.954)" fill="#e6e6e6"/>
    <rect id="長方形_173" data-name="長方形 173" width="2.568" height="1.344" rx="0.672" transform="translate(261.68 4081.954)" fill="#e6e6e6"/>
    <rect id="長方形_174" data-name="長方形 174" width="8.953" height="1.344" rx="0.672" transform="translate(247.519 4081.842)" fill="#e6e6e6"/>
    <rect id="長方形_175" data-name="長方形 175" width="8.953" height="1.344" rx="0.672" transform="translate(266.189 4081.842)" fill="#e6e6e6"/>
    <rect id="長方形_176" data-name="長方形 176" width="2.568" height="1.344" rx="0.672" transform="translate(247.445 4084.988)" fill="#e6e6e6"/>
    <rect id="長方形_177" data-name="長方形 177" width="2.568" height="1.344" rx="0.672" transform="translate(261.447 4084.988)" fill="#e6e6e6"/>
    <rect id="長方形_178" data-name="長方形 178" width="2.568" height="1.344" rx="0.672" transform="translate(265.414 4084.988)" fill="#e6e6e6"/>
    <rect id="長方形_179" data-name="長方形 179" width="8.953" height="1.344" rx="0.672" transform="translate(251.253 4084.876)" fill="#e6e6e6"/>
    <rect id="長方形_180" data-name="長方形 180" width="8.953" height="1.344" rx="0.672" transform="translate(269.922 4084.876)" fill="#e6e6e6"/>
    <rect id="長方形_181" data-name="長方形 181" width="2.568" height="1.344" rx="0.672" transform="translate(251.178 4088.021)" fill="#e6e6e6"/>
    <rect id="長方形_182" data-name="長方形 182" width="2.568" height="1.344" rx="0.672" transform="translate(265.18 4088.021)" fill="#e6e6e6"/>
    <rect id="長方形_183" data-name="長方形 183" width="2.568" height="1.344" rx="0.672" transform="translate(269.148 4088.021)" fill="#e6e6e6"/>
    <rect id="長方形_184" data-name="長方形 184" width="8.953" height="1.344" rx="0.672" transform="translate(254.987 4087.909)" fill="#e6e6e6"/>
    <rect id="長方形_185" data-name="長方形 185" width="2.568" height="1.344" rx="0.672" transform="translate(253.979 4100.085)" fill="#e6e6e6"/>
    <rect id="長方形_186" data-name="長方形 186" width="2.568" height="1.344" rx="0.672" transform="translate(257.946 4100.085)" fill="#e6e6e6"/>
    <rect id="長方形_187" data-name="長方形 187" width="8.953" height="1.344" rx="0.672" transform="translate(262.455 4100.197)" fill="#e6e6e6"/>
    <rect id="長方形_188" data-name="長方形 188" width="2.568" height="1.344" rx="0.672" transform="translate(239.977 4100.085)" fill="#e6e6e6"/>
    <rect id="長方形_189" data-name="長方形 189" width="8.953" height="1.344" rx="0.672" transform="translate(243.785 4100.197)" fill="#e6e6e6"/>
    <rect id="長方形_190" data-name="長方形 190" width="2.568" height="1.344" rx="0.672" transform="translate(243.711 4097.051)" fill="#e6e6e6"/>
    <rect id="長方形_191" data-name="長方形 191" width="2.568" height="1.344" rx="0.672" transform="translate(257.713 4097.051)" fill="#e6e6e6"/>
    <rect id="長方形_192" data-name="長方形 192" width="2.568" height="1.344" rx="0.672" transform="translate(261.68 4097.051)" fill="#e6e6e6"/>
    <rect id="長方形_193" data-name="長方形 193" width="8.953" height="1.344" rx="0.672" transform="translate(247.519 4097.164)" fill="#e6e6e6"/>
    <rect id="長方形_194" data-name="長方形 194" width="2.568" height="1.344" rx="0.672" transform="translate(247.445 4094.018)" fill="#e6e6e6"/>
    <rect id="長方形_195" data-name="長方形 195" width="2.568" height="1.344" rx="0.672" transform="translate(261.447 4094.018)" fill="#e6e6e6"/>
    <rect id="長方形_196" data-name="長方形 196" width="2.568" height="1.344" rx="0.672" transform="translate(265.414 4094.018)" fill="#e6e6e6"/>
    <rect id="長方形_197" data-name="長方形 197" width="8.953" height="1.344" rx="0.672" transform="translate(251.253 4094.13)" fill="#e6e6e6"/>
    <rect id="長方形_198" data-name="長方形 198" width="2.568" height="1.344" rx="0.672" transform="translate(251.178 4090.984)" fill="#e6e6e6"/>
    <rect id="長方形_199" data-name="長方形 199" width="2.568" height="1.344" rx="0.672" transform="translate(265.18 4090.984)" fill="#e6e6e6"/>
    <rect id="長方形_200" data-name="長方形 200" width="2.568" height="1.344" rx="0.672" transform="translate(269.148 4090.984)" fill="#e6e6e6"/>
    <rect id="長方形_201" data-name="長方形 201" width="8.953" height="1.344" rx="0.672" transform="translate(254.987 4091.096)" fill="#e6e6e6"/>
    <path id="パス_1146" data-name="パス 1146" d="M530.7,562.047c-.142.072-.287.145-.429.215A56.255,56.255,0,0,1,519.6,566.3c-.341-3.8-.67-10.49-.99-14.634-.084-1.076-.168-1.979-.25-2.616a3.544,3.544,0,0,0-.205-.992l.014.992.035,2.616.2,14.961a67.346,67.346,0,0,1-15.365,2.215c-.271.007-.537.012-.793.016-.091,0-.18,0-.268,0-.292,0-.581,0-.873,0a67.507,67.507,0,0,1-16.228-1.967c.114-3.764.229-10.375.338-15.234.023-.95.044-1.834.068-2.616.044-1.671.091-2.875.135-3.279a1.019,1.019,0,0,0-.091.226,22.675,22.675,0,0,0-.441,3.052c-.082.782-.163,1.666-.245,2.616-.434,5.048-.887,11.911-1.354,14.821a66.616,66.616,0,0,1-8.161-2.807q-2.1-.875-4.126-1.888c.257-1.68.525-3.564.8-5.517.215-1.515.436-3.071.663-4.609.35-2.376.709-4.7,1.073-6.756a30.986,30.986,0,0,1,1.62-6.511c.513-1.05,1.027-2.086,1.524-3.078.173-.348.345-.691.513-1.024.04-.079.079-.156.119-.233.357-.7.7-1.375,1.031-2,.282-.539.551-1.048.805-1.517.616-1.139,1.139-2.047,1.526-2.621a12.9,12.9,0,0,1,6.833-5.183l.07-.019.049.021,4.772-1.466.7-.215.469-.145,1.652-1.258.9-.684.842-.642,1.648-1.253,10.2.628,1.986,4.782,4.448,1.627.077-.035.068-.028.07.019a12.907,12.907,0,0,1,6.833,5.183c.219.329.485.763.786,1.288.257.446.537.954.84,1.517.432.8.9,1.7,1.4,2.681.11.215.222.434.334.656q.311.616.632,1.258c.5.992,1.01,2.028,1.524,3.08a24.676,24.676,0,0,1,1.34,5.176c.366,1.984.73,4.322,1.083,6.756.462,3.155-.03,6.933.387,9.836C530.644,561.688,530.672,561.868,530.7,562.047Z" transform="translate(-233.663 3581.865)" fill="#3f3d56"/>
    <circle id="楕円形_32" data-name="楕円形 32" cx="11.864" cy="11.864" r="11.864" transform="translate(255.721 4071.401)" fill="#a0616a"/>
    <path id="パス_1147" data-name="パス 1147" d="M575.243,370.543a6.209,6.209,0,0,0-.926-1.517c-1.8-2.2-5.078-3.169-8.441-.565a3.566,3.566,0,0,0-1.949.112,3.012,3.012,0,0,0-.821.453,3.727,3.727,0,0,0-1.153,1.517,3.622,3.622,0,0,0-.257.987,11.8,11.8,0,0,0-2.621-.987,14.081,14.081,0,0,0-6.8,0,8.528,8.528,0,0,0-2.049.812,3.272,3.272,0,0,0-1.832,2.31,6.644,6.644,0,0,0-4.434,2.275c-.138.152-.271.31-.394.474A7.633,7.633,0,0,0,542,381.093v.3h.3a6.27,6.27,0,0,1,2.369.462,6.438,6.438,0,0,1,1.375.758,6.712,6.712,0,0,1,.786.653,7.816,7.816,0,0,1,1.428,1.879,8.742,8.742,0,0,1,.952,5.766,8.449,8.449,0,0,1-.355,1.344,8.768,8.768,0,0,1-.866,1.781c-.014.021-.026.042-.04.063-.156.25-.306.5-.446.761-.105.191-.2.387-.294.583a12.122,12.122,0,0,0-.672,1.69,12.508,12.508,0,0,0-.569,3.16c-.016.285-.021.569-.012.854a12.138,12.138,0,0,0,.24,2.184l.063.292.17.744.4,1.776.28,1.223.259,1.134.383-.548c.131-.187.46-.761.9-1.573.292-.53.63-1.162,1-1.853.511-.968,1.071-2.049,1.62-3.127.222-.436.441-.87.653-1.3.4-.805.779-1.582,1.1-2.273.3-.637.553-1.2.742-1.655.058.3.107.6.145.9s.072.621.089.933c0,.047.007.1.009.142l.009.191,0,.056.247.033a21.707,21.707,0,0,0,4.294.033h0a17.47,17.47,0,0,0,5.5-1.333,11.5,11.5,0,0,0,2.754-1.69,9.638,9.638,0,0,0,1.087-1.055c.084-.1.166-.191.245-.289a9.6,9.6,0,0,0,1.179-1.844,9.756,9.756,0,0,0,.546-1.344c.9-2.714.845-6.1-.154-10.123a2.316,2.316,0,0,0,.763-.294,3.276,3.276,0,0,0,1.4-2.385l.252.068a7.025,7.025,0,0,0,2.336-1.76,5.636,5.636,0,0,0,.359-.474A5.555,5.555,0,0,0,575.243,370.543Z" transform="translate(-288.094 3697)" fill="#2f2e41"/>
    <path id="パス_1148" data-name="パス 1148" d="M206.32,450.157,208.3,442.5l1.751,6.6Z" transform="translate(41.826 3676.609)" opacity="0.2"/>
    <path id="パス_1149" data-name="パス 1149" d="M523.544,609.207c-.709,9.773.026,14.077-3.89,22.135a66.791,66.791,0,0,1-11.09,4.252q-.6.168-1.193.327a67.346,67.346,0,0,1-15.365,2.215c-.271.007-.537.012-.793.016-.091,0-.18,0-.268,0-.292,0-.581,0-.873,0a67.507,67.507,0,0,1-16.228-1.967q-.8-.2-1.589-.413a66.616,66.616,0,0,1-8.161-2.807q-2.1-.875-4.126-1.888c-.306-.154-.611-.308-.912-.467a20.1,20.1,0,0,1-2.446-10.007C457.681,613.76,521.178,603.3,523.544,609.207Z" transform="translate(-222.632 3512.573)" fill="#2f2e41"/>
    <path id="パス_1150" data-name="パス 1150" d="M523.944,610.2c.036-.605.077-1.23.124-1.881-2.366-5.909-65.863,4.553-66.934,11.4,0,.628.03,1.238.075,1.833C459.8,614.794,520.125,604.851,523.944,610.2Z" transform="translate(-223.033 3513.254)" opacity="0.2"/>
    <path id="パス_1151" data-name="パス 1151" d="M427.344,497.917a1.485,1.485,0,0,0-1.576-1.591,1.37,1.37,0,0,0-.235.029l-9.279,2.1a1.528,1.528,0,0,0-.982.755,1.907,1.907,0,0,0-.4.059,2.255,2.255,0,0,0,1,4.4,2.285,2.285,0,0,0,.909-.44l3.144,8.854a1.477,1.477,0,0,0,1.62.711l6.032-1.363a1.5,1.5,0,0,0,1.151-1.334Zm-11.617,5.116a1.613,1.613,0,1,1-.718-3.144c.029-.007.059,0,.088-.007a1.518,1.518,0,0,0,.2.762l1.151,2.008a1.518,1.518,0,0,1-.718.381Z" transform="translate(-189.285 3597.777)" fill="#2f2e41"/>
    <path id="パス_1152" data-name="パス 1152" d="M434.765,496.336c.088,1.173-1.92,2.521-4.61,3.056-2.47.506-4.684.154-5.307-.77a1.405,1.405,0,0,1,.4-.161l9.279-2.1A1.367,1.367,0,0,1,434.765,496.336Z" transform="translate(-198.282 3597.768)" fill="#3f3d56"/>
    <path id="パス_1153" data-name="パス 1153" d="M409.824,545.494l5.212-2.606-4.343-11.727-1.145-5.914a4.472,4.472,0,0,0-7.3-2.545h0a4.472,4.472,0,0,0-.582,6.189l4.249,5.311Z" transform="translate(-179.759 3578.381)" fill="#a0616a"/>
    <path id="パス_1154" data-name="パス 1154" d="M439.348,558.672l-6.949,3.475,5.274,16.524a7.229,7.229,0,0,0,5.212,4.834h0a7.229,7.229,0,0,0,7.873-3.313l13.984-23.97a7.379,7.379,0,0,0-2.379-10.031h0a7.379,7.379,0,0,0-10.571,2.979l-8.536,18.188Z" transform="translate(-204.07 3560.424)" fill="#3f3d56"/>
    <path id="パス_1155" data-name="パス 1155" d="M447.6,532.923a.116.116,0,0,1-.038-.006l-1.517-.522A.117.117,0,0,1,446,532.2l1.128-1.229a.117.117,0,0,1,.172.158l-1.008,1.1,1.349.464a.117.117,0,0,1-.038.227Z" transform="translate(-214.471 3571.24)" fill="#a981fc"/>
    <path id="パス_1156" data-name="パス 1156" d="M460.218,531.1a.117.117,0,0,1-.081-.2l1.026-.992-1.378-.568a.117.117,0,1,1,.089-.216l1.542.636a.117.117,0,0,1,.037.192l-1.154,1.115A.116.116,0,0,1,460.218,531.1Z" transform="translate(-225.01 3572.639)" fill="#a981fc"/>
    <path id="パス_1157" data-name="パス 1157" d="M453.948,530.234a.111.111,0,0,1-.034-.005.117.117,0,0,1-.077-.146l1.077-3.5a.117.117,0,1,1,.223.069l-1.077,3.5A.117.117,0,0,1,453.948,530.234Z" transform="translate(-220.502 3574.643)" fill="#a981fc"/>
  </g>
</svg>
