<svg id="POINT_矢印" data-name="POINT 矢印" xmlns="http://www.w3.org/2000/svg" width="21.259" height="25.803" viewBox="0 0 21.259 25.803">
  <path id="Icon_awesome-chevron-right" data-name="Icon awesome-chevron-right" d="M14.492,14.1,5.031,23.565a1.168,1.168,0,0,1-1.652,0l-1.1-1.1a1.168,1.168,0,0,1,0-1.65l7.5-7.533-7.5-7.533a1.168,1.168,0,0,1,0-1.65l1.1-1.1a1.168,1.168,0,0,1,1.652,0l9.461,9.461A1.168,1.168,0,0,1,14.492,14.1Z" transform="translate(23.907 -1.933) rotate(90)" fill="#a981fc"/>
  <path id="Icon_awesome-chevron-right-2" data-name="Icon awesome-chevron-right" d="M14.492,14.1,5.031,23.565a1.168,1.168,0,0,1-1.652,0l-1.1-1.1a1.168,1.168,0,0,1,0-1.65l7.5-7.533-7.5-7.533a1.168,1.168,0,0,1,0-1.65l1.1-1.1a1.168,1.168,0,0,1,1.652,0l9.461,9.461A1.168,1.168,0,0,1,14.492,14.1Z" transform="translate(23.907 10.969) rotate(90)" fill="#a981fc"/>
</svg>
