<svg xmlns="http://www.w3.org/2000/svg" width="154.455" height="92.121" viewBox="0 0 154.455 92.121">
  <g id="undraw_responsive_re_e1nn" transform="translate(0)">
    <path id="パス_1318" data-name="パス 1318" d="M243.673,527.636c-4.546-1.654-8.493-5.61-8.993-10.422A22.288,22.288,0,0,0,249.6,520.63c2.012-.261,4.223-.76,5.944.313a4.982,4.982,0,0,1,2.042,3.078,14.8,14.8,0,0,1,.276,3.766l.142.281C253.251,528.991,248.219,529.29,243.673,527.636Z" transform="translate(-234.572 -456.965)" fill="#f0f0f0"/>
    <path id="パス_1319" data-name="パス 1319" d="M234.375,516.921a19.05,19.05,0,0,0,9.394,7.01,8.2,8.2,0,0,0,2.525.483,4.706,4.706,0,0,0,2.389-.654,9.733,9.733,0,0,1,2.1-1.069,2.881,2.881,0,0,1,2.324.388,7.484,7.484,0,0,1,2.041,2.169,7.351,7.351,0,0,0,2.27,2.41c.12.067.009.249-.11.182-1.723-.958-2.361-2.99-3.828-4.226a2.918,2.918,0,0,0-2.451-.764,7.553,7.553,0,0,0-2.153,1.045,5.02,5.02,0,0,1-2.312.726,7.582,7.582,0,0,1-2.534-.384,18.483,18.483,0,0,1-5.174-2.57,19.39,19.39,0,0,1-4.668-4.646c-.079-.112.109-.213.187-.1Z" transform="translate(-234.169 -456.696)" fill="#fff"/>
    <path id="パス_1320" data-name="パス 1320" d="M260.751,548.067a2.858,2.858,0,0,1-3.4,1.452c-.131-.041-.073-.246.058-.205a2.647,2.647,0,0,0,3.164-1.357c.061-.123.243-.012.182.11Z" transform="translate(-252.396 -481.176)" fill="#fff"/>
    <path id="パス_1321" data-name="パス 1321" d="M291.705,538.3a5.509,5.509,0,0,0-2.543-3.106c-.12-.067-.009-.249.11-.182a5.731,5.731,0,0,1,2.64,3.238c.042.131-.165.181-.207.051Z" transform="translate(-277.512 -470.989)" fill="#fff"/>
    <path id="パス_1322" data-name="パス 1322" d="M248.884,526.747a1.618,1.618,0,0,0,.266-1.512c-.044-.13.164-.18.207-.051a1.813,1.813,0,0,1-.291,1.673.11.11,0,0,1-.146.036A.107.107,0,0,1,248.884,526.747Z" transform="translate(-245.766 -463.193)" fill="#fff"/>
    <path id="パス_1323" data-name="パス 1323" d="M283.348,461.845c.03.081.059.161.09.242a21.309,21.309,0,0,0,1.465,3.13c.043.078.088.157.133.234a22.462,22.462,0,0,0,5.42,6.246,21.817,21.817,0,0,0,2.747,1.855,14.2,14.2,0,0,1,3.8,2.589,3.748,3.748,0,0,1,.286.365l-1.761,7.688-.037.047-.056.31-.156-.076-.09-.044c-.02-.01-.04-.02-.058-.028l-.018-.01-.052-.025q-.444-.224-.887-.454s0,0,0,0a32.071,32.071,0,0,1-6.3-4.213c-.057-.05-.116-.1-.172-.154a20.817,20.817,0,0,1-2.347-2.456,18.4,18.4,0,0,1-1.093-1.507,15.3,15.3,0,0,1-1.941-4.373,12.151,12.151,0,0,1,.913-9.154C283.267,461.983,283.306,461.915,283.348,461.845Z" transform="translate(-271.767 -413.284)" fill="#f0f0f0"/>
    <path id="パス_1324" data-name="パス 1324" d="M288.657,461.587a19.051,19.051,0,0,0,3.28,11.253,8.2,8.2,0,0,0,1.725,1.905,4.705,4.705,0,0,0,2.3.916,9.738,9.738,0,0,1,2.321.411,2.881,2.881,0,0,1,1.622,1.709,7.486,7.486,0,0,1,.324,2.961,7.35,7.35,0,0,0,.361,3.291c.056.126-.142.2-.2.079-.8-1.8-.085-3.809-.513-5.679a2.918,2.918,0,0,0-1.5-2.086,7.555,7.555,0,0,0-2.349-.462,5.021,5.021,0,0,1-2.283-.812,7.583,7.583,0,0,1-1.792-1.832,18.481,18.481,0,0,1-2.584-5.167,19.388,19.388,0,0,1-.93-6.52c0-.137.215-.1.211.031Z" transform="translate(-276.982 -412.986)" fill="#fff"/>
    <path id="パス_1325" data-name="パス 1325" d="M287.782,506.518a2.858,2.858,0,0,1-3.593-.89c-.08-.112.09-.241.17-.129a2.647,2.647,0,0,0,3.343.821c.123-.062.2.137.079.2Z" transform="translate(-273.614 -447.689)" fill="#fff"/>
    <path id="パス_1326" data-name="パス 1326" d="M321.549,513.177a5.509,5.509,0,0,0-.161-4.012c-.055-.126.143-.2.2-.079a5.73,5.73,0,0,1,.159,4.175C321.7,513.391,321.5,513.306,321.549,513.177Z" transform="translate(-302.969 -450.503)" fill="#fff"/>
    <path id="パス_1327" data-name="パス 1327" d="M290.746,478.773a1.618,1.618,0,0,0,1.123-1.047c.044-.13.239-.045.2.084a1.813,1.813,0,0,1-1.24,1.161.11.11,0,0,1-.139-.059A.107.107,0,0,1,290.746,478.773Z" transform="translate(-278.75 -425.762)" fill="#fff"/>
    <path id="パス_1328" data-name="パス 1328" d="M875.63,523.049c4.308-2.2,7.739-6.611,7.644-11.448a22.288,22.288,0,0,1-14.384,5.223c-2.029-.012-4.284-.236-5.861,1.041a4.982,4.982,0,0,0-1.648,3.306,14.8,14.8,0,0,0,.189,3.771l-.106.3C866.291,525.57,871.322,525.249,875.63,523.049Z" transform="translate(-728.93 -452.536)" fill="#f0f0f0"/>
    <path id="パス_1329" data-name="パス 1329" d="M884.145,511.321a19.051,19.051,0,0,1-8.461,8.112,8.2,8.2,0,0,1-2.446.789,4.706,4.706,0,0,1-2.451-.355,9.739,9.739,0,0,0-2.216-.8,2.882,2.882,0,0,0-2.259.671,7.486,7.486,0,0,0-1.759,2.4,7.351,7.351,0,0,1-1.956,2.671c-.111.081.021.248.132.167,1.592-1.163,1.976-3.258,3.28-4.664a2.918,2.918,0,0,1,2.339-1.059,7.554,7.554,0,0,1,2.266.773,5.021,5.021,0,0,0,2.384.436,7.583,7.583,0,0,0,2.468-.692,18.478,18.478,0,0,0,4.818-3.186,19.391,19.391,0,0,0,4.061-5.184c.065-.121-.134-.2-.2-.078Z" transform="translate(-729.901 -452.268)" fill="#fff"/>
    <path id="パス_1330" data-name="パス 1330" d="M930.332,546.971a2.858,2.858,0,0,0,3.557,1.023c.125-.057.042-.254-.083-.2a2.647,2.647,0,0,1-3.307-.958C930.424,546.725,930.257,546.858,930.332,546.971Z" transform="translate(-783.356 -480.302)" fill="#fff"/>
    <path id="パス_1331" data-name="パス 1331" d="M902.4,539.578a5.509,5.509,0,0,1,2.142-3.4c.111-.081-.021-.249-.132-.167a5.731,5.731,0,0,0-2.222,3.538C902.162,539.688,902.374,539.712,902.4,539.578Z" transform="translate(-761.166 -471.78)" fill="#fff"/>
    <path id="パス_1332" data-name="パス 1332" d="M950.48,522.979a1.617,1.617,0,0,1-.45-1.468c.027-.135-.185-.159-.212-.025a1.813,1.813,0,0,0,.495,1.625.11.11,0,0,0,.15.018A.107.107,0,0,0,950.48,522.979Z" transform="translate(-798.717 -460.265)" fill="#fff"/>
    <path id="パス_1333" data-name="パス 1333" d="M859.6,463.331c-.019.084-.039.167-.06.252a21.3,21.3,0,0,1-1.069,3.287c-.033.083-.068.166-.1.248a22.462,22.462,0,0,1-4.611,6.865,21.818,21.818,0,0,1-2.5,2.178A14.2,14.2,0,0,0,847.8,479.2a3.723,3.723,0,0,0-.239.4l2.693,7.413.042.042.094.3.145-.1.083-.055c.018-.012.037-.025.054-.035l.017-.012.048-.031q.414-.277.825-.56s0,0,0,0a32.073,32.073,0,0,0,5.739-4.956c.05-.057.1-.114.151-.174a20.814,20.814,0,0,0,2.027-2.725,18.392,18.392,0,0,0,.9-1.63,15.3,15.3,0,0,0,1.389-4.578,12.151,12.151,0,0,0-2.032-8.972C859.7,463.458,859.647,463.4,859.6,463.331Z" transform="translate(-718.077 -414.457)" fill="#f0f0f0"/>
    <path id="パス_1334" data-name="パス 1334" d="M869.36,463.071a19.051,19.051,0,0,1-1.872,11.571,8.2,8.2,0,0,1-1.478,2.1,4.7,4.7,0,0,1-2.17,1.192,9.739,9.739,0,0,0-2.253.693,2.881,2.881,0,0,0-1.4,1.9,7.485,7.485,0,0,0,.043,2.978,7.35,7.35,0,0,1,.046,3.31c-.04.131.166.185.206.054.572-1.887-.384-3.791-.189-5.7a2.918,2.918,0,0,1,1.23-2.254,7.554,7.554,0,0,1,2.274-.747,5.02,5.02,0,0,0,2.166-1.087,7.585,7.585,0,0,0,1.553-2.038,18.483,18.483,0,0,0,1.929-5.445,19.39,19.39,0,0,0,.121-6.585C869.545,462.878,869.34,462.936,869.36,463.071Z" transform="translate(-727.927 -414.145)" fill="#fff"/>
    <path id="パス_1335" data-name="パス 1335" d="M898.106,507.562a2.858,2.858,0,0,0,3.456-1.325c.065-.121-.119-.228-.184-.107a2.647,2.647,0,0,1-3.217,1.226C898.031,507.309,897.977,507.516,898.106,507.562Z" transform="translate(-757.89 -448.178)" fill="#fff"/>
    <path id="パス_1336" data-name="パス 1336" d="M876.979,518.32a5.509,5.509,0,0,1-.334-4c.039-.132-.167-.186-.206-.054a5.73,5.73,0,0,0,.356,4.163C876.856,518.551,877.039,518.443,876.979,518.32Z" transform="translate(-740.669 -454.579)" fill="#fff"/>
    <path id="パス_1337" data-name="パス 1337" d="M899.827,480.925a1.618,1.618,0,0,1-1.243-.9c-.059-.124-.243-.016-.184.107a1.813,1.813,0,0,0,1.373,1,.11.11,0,0,0,.13-.076.107.107,0,0,0-.076-.13Z" transform="translate(-758.17 -427.583)" fill="#fff"/>
    <path id="パス_1338" data-name="パス 1338" d="M758.062,246.81H727.708v1.953a.43.43,0,0,0,.1.274c-.061,1.526-.1,3.475-.1,5.592v52.206c0,4.893.2,8.875.437,8.875h29.48c.241,0,.437-3.981.437-8.875V254.629c0-2.117-.036-4.066-.1-5.592a.431.431,0,0,0,.1-.274Z" transform="translate(-623.521 -243.644)" fill="#fff"/>
    <path id="パス_1339" data-name="パス 1339" d="M756.837,311.187h-29.48c-.23,0-.382,0-.519-2.8-.083-1.682-.129-3.913-.129-6.283V249.9c0-2.046.035-4.035.1-5.6.039-.94.084-1.693.134-2.238.1-1.067.189-1.248.417-1.248h29.48c.228,0,.32.18.417,1.248.049.547.094,1.3.134,2.237h0c.063,1.564.1,3.553.1,5.6V302.1c0,2.369-.046,4.6-.129,6.283C757.219,311.187,757.067,311.187,756.837,311.187Zm-29.36-.422h29.24a65.739,65.739,0,0,0,.346-8.664V249.9c0-2.042-.034-4.025-.1-5.583h0c-.039-.931-.083-1.676-.132-2.217a6.105,6.105,0,0,0-.119-.863H727.479a6.1,6.1,0,0,0-.119.863c-.049.538-.093,1.284-.132,2.217-.062,1.559-.1,3.542-.1,5.583V302.1A65.692,65.692,0,0,0,727.477,310.765Z" transform="translate(-622.733 -238.91)" fill="#e4e4e4"/>
    <path id="パス_1340" data-name="パス 1340" d="M757.626,241.81h-29.48a.438.438,0,0,0-.437.437v2.571a.431.431,0,0,0,.1.274.439.439,0,0,0,.34.163h29.48a.439.439,0,0,0,.34-.163.431.431,0,0,0,.1-.274v-2.571A.438.438,0,0,0,757.626,241.81Z" transform="translate(-623.522 -239.699)" fill="#cacaca"/>
    <circle id="Ellipse_90" data-name="Ellipse 90" cx="0.621" cy="0.621" r="0.621" transform="translate(106.104 3.087)" fill="#fff"/>
    <circle id="Ellipse_91" data-name="Ellipse 91" cx="0.621" cy="0.621" r="0.621" transform="translate(108.459 3.087)" fill="#fff"/>
    <circle id="Ellipse_92" data-name="Ellipse 92" cx="0.621" cy="0.621" r="0.621" transform="translate(110.815 3.087)" fill="#fff"/>
    <path id="パス_1341" data-name="パス 1341" d="M847.611,245.45H844.9a.2.2,0,0,0-.2.2.169.169,0,0,0,.021.087.2.2,0,0,0,.179.114h2.713a.2.2,0,0,0,.182-.114.193.193,0,0,0,.019-.087.2.2,0,0,0-.2-.2Z" transform="translate(-715.814 -242.571)" fill="#fff"/>
    <path id="パス_1342" data-name="パス 1342" d="M847.611,249.02H844.9a.2.2,0,0,0,0,.4h2.713a.2.2,0,1,0,0-.4Z" transform="translate(-715.814 -245.387)" fill="#fff"/>
    <path id="パス_1343" data-name="パス 1343" d="M847.611,252.59H844.9a.2.2,0,0,0,0,.4h2.713a.2.2,0,1,0,0-.4Z" transform="translate(-715.814 -248.203)" fill="#fff"/>
    <path id="パス_1344" data-name="パス 1344" d="M788.7,284.83h-5.581a1.056,1.056,0,0,0-1.055,1.056v4.834a1.057,1.057,0,0,0,1.055,1.056H788.7a1.059,1.059,0,0,0,1.055-1.056v-4.834A1.057,1.057,0,0,0,788.7,284.83Z" transform="translate(-666.398 -273.637)" fill="#a981fc"/>
    <path id="パス_1345" data-name="パス 1345" d="M771.861,332.69H752.408a.479.479,0,0,0,0,.958h19.453a.479.479,0,0,0,0-.958Z" transform="translate(-642.629 -311.394)" fill="#e4e4e4"/>
    <path id="パス_1346" data-name="パス 1346" d="M759.8,343.33h-7.388a.479.479,0,1,0,0,.958H759.8a.479.479,0,1,0,0-.958Z" transform="translate(-642.629 -319.788)" fill="#e4e4e4"/>
    <path id="パス_1347" data-name="パス 1347" d="M788.7,383.83h-5.581a1.056,1.056,0,0,0-1.055,1.056v4.834a1.057,1.057,0,0,0,1.055,1.055H788.7a1.059,1.059,0,0,0,1.055-1.055v-4.834A1.057,1.057,0,0,0,788.7,383.83Z" transform="translate(-666.398 -351.738)" fill="#a981fc"/>
    <path id="パス_1348" data-name="パス 1348" d="M771.861,431.69H752.408a.479.479,0,1,0,0,.958h19.453a.479.479,0,0,0,0-.958Z" transform="translate(-642.629 -389.495)" fill="#e4e4e4"/>
    <path id="パス_1349" data-name="パス 1349" d="M759.8,442.33h-7.388a.479.479,0,1,0,0,.958H759.8a.479.479,0,1,0,0-.958Z" transform="translate(-642.629 -397.889)" fill="#e4e4e4"/>
    <path id="パス_1350" data-name="パス 1350" d="M788.7,482.83h-5.581a1.056,1.056,0,0,0-1.055,1.056v4.834a1.057,1.057,0,0,0,1.055,1.055H788.7a1.059,1.059,0,0,0,1.055-1.055v-4.834A1.057,1.057,0,0,0,788.7,482.83Z" transform="translate(-666.398 -429.839)" fill="#a981fc"/>
    <path id="パス_1351" data-name="パス 1351" d="M771.861,530.69H752.408a.479.479,0,1,0,0,.958h19.453a.479.479,0,0,0,0-.958Z" transform="translate(-642.629 -467.596)" fill="#e4e4e4"/>
    <path id="パス_1352" data-name="パス 1352" d="M759.8,541.33h-7.388a.479.479,0,1,0,0,.958H759.8a.479.479,0,1,0,0-.958Z" transform="translate(-642.629 -475.99)" fill="#e4e4e4"/>
    <path id="パス_1353" data-name="パス 1353" d="M393.616,233.247a.438.438,0,0,0-.437-.437H315.146a.438.438,0,0,0-.437.437v2.571a.426.426,0,0,0,.112.289c-.07,1.746-.112,4.047-.112,6.567v58.034c0,5.442.2,9.867.437,9.867H393.18c.241,0,.437-4.425.437-9.867V242.675c0-2.521-.042-4.822-.112-6.567a.426.426,0,0,0,.112-.289Z" transform="translate(-297.707 -232.599)" fill="#fff"/>
    <path id="パス_1354" data-name="パス 1354" d="M392.391,310H314.357c-.239,0-.383,0-.52-3.094-.083-1.869-.128-4.349-.128-6.984V241.886c0-2.429.04-4.764.112-6.576.139-3.5.3-3.5.536-3.5h78.034c.239,0,.4,0,.536,3.5h0c.072,1.81.112,4.145.112,6.576V299.92c0,2.634-.046,5.114-.128,6.984C392.773,310,392.629,310,392.391,310Zm-77.911-.422h77.787a80.049,80.049,0,0,0,.349-9.656V241.886c0-2.425-.04-4.755-.112-6.559h0a21.035,21.035,0,0,0-.24-3.095H314.482a21.039,21.039,0,0,0-.24,3.095c-.072,1.806-.112,4.135-.112,6.559V299.92a80.059,80.059,0,0,0,.349,9.656Z" transform="translate(-296.918 -231.81)" fill="#e4e4e4"/>
    <path id="パス_1355" data-name="パス 1355" d="M393.18,232.81H315.146a.438.438,0,0,0-.437.437v2.571a.426.426,0,0,0,.112.289.433.433,0,0,0,.325.148H393.18a.433.433,0,0,0,.325-.148.425.425,0,0,0,.112-.289v-2.571A.438.438,0,0,0,393.18,232.81Z" transform="translate(-297.707 -232.599)" fill="#cacaca"/>
    <circle id="Ellipse_90-2" data-name="Ellipse 90" cx="0.621" cy="0.621" r="0.621" transform="translate(18.919 1.188)" fill="#fff"/>
    <circle id="Ellipse_91-2" data-name="Ellipse 91" cx="0.621" cy="0.621" r="0.621" transform="translate(21.274 1.188)" fill="#fff"/>
    <circle id="Ellipse_92-2" data-name="Ellipse 92" cx="0.621" cy="0.621" r="0.621" transform="translate(23.63 1.188)" fill="#fff"/>
    <path id="パス_1356" data-name="パス 1356" d="M664.611,236.45H661.9a.2.2,0,1,0,0,.4h2.713a.2.2,0,0,0,0-.4Z" transform="translate(-571.446 -235.471)" fill="#fff"/>
    <path id="パス_1357" data-name="パス 1357" d="M664.611,240.02H661.9a.2.2,0,0,0,0,.4h2.713a.2.2,0,0,0,0-.4Z" transform="translate(-571.446 -238.287)" fill="#fff"/>
    <path id="パス_1358" data-name="パス 1358" d="M664.611,243.59H661.9a.2.2,0,1,0,0,.4h2.713a.2.2,0,0,0,0-.4Z" transform="translate(-571.446 -241.103)" fill="#fff"/>
    <path id="パス_1359" data-name="パス 1359" d="M395.678,293.83h-9.133a1.729,1.729,0,0,0-1.727,1.727v7.91a1.729,1.729,0,0,0,1.727,1.727h9.132a1.729,1.729,0,0,0,1.727-1.727v-7.91A1.729,1.729,0,0,0,395.678,293.83Z" transform="translate(-353.016 -280.737)" fill="#a981fc"/>
    <path id="パス_1360" data-name="パス 1360" d="M492.808,308.32h-31.83a.784.784,0,0,0,0,1.568h31.83a.784.784,0,1,0,0-1.568Z" transform="translate(-412.48 -292.169)" fill="#e4e4e4"/>
    <path id="パス_1361" data-name="パス 1361" d="M473.068,325.73h-12.09a.784.784,0,0,0,0,1.569h12.09a.784.784,0,1,0,0-1.568Z" transform="translate(-412.48 -305.903)" fill="#e4e4e4"/>
    <path id="パス_1362" data-name="パス 1362" d="M395.678,393.83h-9.133a1.729,1.729,0,0,0-1.727,1.727v7.91a1.729,1.729,0,0,0,1.727,1.727h9.132a1.729,1.729,0,0,0,1.727-1.727v-7.91A1.729,1.729,0,0,0,395.678,393.83Z" transform="translate(-353.016 -359.627)" fill="#a981fc"/>
    <path id="パス_1363" data-name="パス 1363" d="M492.808,408.32h-31.83a.784.784,0,0,0,0,1.569h31.83a.784.784,0,0,0,0-1.568Z" transform="translate(-412.48 -371.058)" fill="#e4e4e4"/>
    <path id="パス_1364" data-name="パス 1364" d="M473.068,425.73h-12.09a.784.784,0,0,0,0,1.569h12.09a.784.784,0,0,0,0-1.569Z" transform="translate(-412.48 -384.793)" fill="#e4e4e4"/>
    <path id="パス_1365" data-name="パス 1365" d="M395.678,493.83h-9.133a1.729,1.729,0,0,0-1.727,1.727v7.91a1.729,1.729,0,0,0,1.727,1.727h9.132a1.729,1.729,0,0,0,1.727-1.727v-7.91A1.729,1.729,0,0,0,395.678,493.83Z" transform="translate(-353.016 -438.517)" fill="#a981fc"/>
    <path id="パス_1366" data-name="パス 1366" d="M492.808,508.32h-31.83a.784.784,0,0,0,0,1.568h31.83a.784.784,0,0,0,0-1.568Z" transform="translate(-412.48 -449.948)" fill="#e4e4e4"/>
    <path id="パス_1367" data-name="パス 1367" d="M473.068,525.73h-12.09a.784.784,0,0,0,0,1.568h12.09a.784.784,0,1,0,0-1.568Z" transform="translate(-412.48 -463.683)" fill="#e4e4e4"/>
    <path id="パス_1368" data-name="パス 1368" d="M555.429,423.909H503.15c-.241,0-.437-3.7-.437-8.259V367.068c0-4.554.2-8.259.437-8.259h52.279c.241,0,.437,3.7.437,8.259V415.65C555.866,420.2,555.67,423.909,555.429,423.909Z" transform="translate(-446.023 -332)" fill="#fff"/>
    <path id="パス_1369" data-name="パス 1369" d="M554.64,423.331H502.361c-.221,0-.381,0-.52-2.622-.083-1.565-.128-3.642-.128-5.849V366.28c0-2.206.046-4.283.128-5.849.139-2.622.3-2.622.52-2.622H554.64c.221,0,.381,0,.52,2.622.083,1.565.129,3.642.129,5.849v48.582c0,2.206-.046,4.283-.129,5.849C555.021,423.331,554.861,423.331,554.64,423.331Zm-52.162-.422h52.046a57.556,57.556,0,0,0,.343-8.048V366.28a57.556,57.556,0,0,0-.343-8.048H502.478a57.561,57.561,0,0,0-.343,8.048v48.582a57.525,57.525,0,0,0,.343,8.048Z" transform="translate(-445.234 -331.211)" fill="#e4e4e4"/>
    <path id="パス_1370" data-name="パス 1370" d="M555.429,362.255H503.15a.438.438,0,0,1-.437-.437v-2.571a.438.438,0,0,1,.437-.437h52.279a.437.437,0,0,1,.437.437v2.571A.437.437,0,0,1,555.429,362.255Z" transform="translate(-446.023 -332)" fill="#cacaca"/>
    <circle id="Ellipse_90-3" data-name="Ellipse 90" cx="0.621" cy="0.621" r="0.621" transform="translate(58.606 27.786)" fill="#fff"/>
    <circle id="Ellipse_91-3" data-name="Ellipse 91" cx="0.621" cy="0.621" r="0.621" transform="translate(60.961 27.786)" fill="#fff"/>
    <circle id="Ellipse_92-3" data-name="Ellipse 92" cx="0.621" cy="0.621" r="0.621" transform="translate(63.317 27.786)" fill="#fff"/>
    <path id="パス_1371" data-name="パス 1371" d="M730.612,362.85H727.9a.2.2,0,0,1,0-.4h2.712a.2.2,0,1,1,0,.4Z" transform="translate(-623.514 -334.871)" fill="#fff"/>
    <path id="パス_1372" data-name="パス 1372" d="M730.612,366.419H727.9a.2.2,0,0,1,0-.4h2.712a.2.2,0,1,1,0,.4Z" transform="translate(-623.514 -337.686)" fill="#fff"/>
    <path id="パス_1373" data-name="パス 1373" d="M730.612,369.988H727.9a.2.2,0,0,1,0-.4h2.712a.2.2,0,1,1,0,.4Z" transform="translate(-623.514 -340.502)" fill="#fff"/>
    <path id="パス_1374" data-name="パス 1374" d="M551.245,419.713h-6.669a1.263,1.263,0,0,1-1.261-1.261v-5.776a1.263,1.263,0,0,1,1.261-1.261h6.669a1.263,1.263,0,0,1,1.261,1.261v5.776A1.263,1.263,0,0,1,551.245,419.713Z" transform="translate(-478.053 -373.5)" fill="#a981fc"/>
    <path id="パス_1375" data-name="パス 1375" d="M622.182,423.146H598.937a.573.573,0,0,1,0-1.145h23.244a.573.573,0,1,1,0,1.145Z" transform="translate(-521.482 -381.851)" fill="#e4e4e4"/>
    <path id="パス_1376" data-name="パス 1376" d="M607.766,435.86h-8.828a.573.573,0,1,1,0-1.145h8.829a.573.573,0,0,1,0,1.145Z" transform="translate(-521.482 -391.881)" fill="#e4e4e4"/>
    <path id="パス_1377" data-name="パス 1377" d="M551.245,500.713h-6.669a1.263,1.263,0,0,1-1.261-1.261v-5.776a1.263,1.263,0,0,1,1.261-1.261h6.669a1.263,1.263,0,0,1,1.261,1.261v5.776A1.263,1.263,0,0,1,551.245,500.713Z" transform="translate(-478.053 -437.4)" fill="#a981fc"/>
    <path id="パス_1378" data-name="パス 1378" d="M622.182,504.146H598.937a.573.573,0,0,1,0-1.145h23.244a.573.573,0,1,1,0,1.145Z" transform="translate(-521.482 -445.752)" fill="#e4e4e4"/>
    <path id="パス_1379" data-name="パス 1379" d="M607.766,516.86h-8.828a.573.573,0,0,1,0-1.145h8.829a.573.573,0,0,1,0,1.145Z" transform="translate(-521.482 -455.782)" fill="#e4e4e4"/>
    <path id="パス_1380" data-name="パス 1380" d="M551.245,581.713h-6.669a1.263,1.263,0,0,1-1.261-1.261v-5.776a1.263,1.263,0,0,1,1.261-1.261h6.669a1.263,1.263,0,0,1,1.261,1.261v5.776A1.263,1.263,0,0,1,551.245,581.713Z" transform="translate(-478.053 -501.301)" fill="#a981fc"/>
    <path id="パス_1381" data-name="パス 1381" d="M622.182,585.146H598.937a.573.573,0,0,1,0-1.145h23.244a.573.573,0,1,1,0,1.145Z" transform="translate(-521.482 -509.653)" fill="#e4e4e4"/>
    <path id="パス_1382" data-name="パス 1382" d="M607.766,597.86h-8.828a.573.573,0,0,1,0-1.145h8.829a.573.573,0,0,1,0,1.145Z" transform="translate(-521.482 -519.683)" fill="#e4e4e4"/>
  </g>
</svg>
